<?xml version="1.0" encoding="UTF-8" standalone="no"?>
<!DOCTYPE svg PUBLIC "-//W3C//DTD SVG 1.1//EN"
"http://www.w3.org/Graphics/SVG/1.1/DTD/svg11.dtd">
<!-- Creator: dpic version 2022.12.01 option -v for SVG 1.1 -->
<!-- width="460" height="215" -->
<svg
 xmlns="http://www.w3.org/2000/svg" xmlns:xlink="http://www.w3.org/1999/xlink"
 xml:space="preserve"
 style="shape-rendering:geometricPrecision; text-rendering:geometricPrecision;
 image-rendering:optimizeQuality; fill-rule:evenodd; clip-rule:evenodd"
 width="459.2px" height="214.4px"
 viewBox="0 0 459.2 214.4"
 font-size="11pt" text-anchor="middle"
 stroke="black" stroke-miterlimit="10" stroke-width="1.066667" fill="none">
<g>
<g style="font-family:sans-serif"
>
<rect x="121.066667" y="58.133333" width="336" height="19.2" />
<text font-size="11pt" stroke-width="0.266667"
 fill="black"
 text-anchor="start"
 x="123.733333" y="72.94">B0STDISBL (reset pin is enabled) </text>
<rect x="121.066667" y="77.333333" width="336" height="19.2" />
<text font-size="11pt" stroke-width="0.266667"
 fill="black"
 text-anchor="start"
 x="123.733333" y="92.14">WDTON (WDT not always on) </text>
<rect x="121.066667" y="96.533333" width="336" height="19.2" />
<text font-size="11pt" stroke-width="0.266667"
 fill="black"
 text-anchor="start"
 x="123.733333" y="111.34">SPIEN (allow serial programming) </text>
<rect x="121.066667" y="115.733333" width="336" height="19.2" />
<text font-size="11pt" stroke-width="0.266667"
 fill="black"
 text-anchor="start"
 x="123.733333" y="130.54">CKOPT (full output swing) </text>
<rect x="121.066667" y="134.933333" width="336" height="19.2" />
<text font-size="11pt" stroke-width="0.266667"
 fill="black"
 text-anchor="start"
 x="123.733333" y="149.74"
>EESAVE (don't preserve EEPB0OM over chip erase) </text>
<rect x="121.066667" y="154.133333" width="336" height="19.2" />
<text font-size="11pt" stroke-width="0.266667"
 fill="black"
 text-anchor="start"
 x="123.733333" y="168.94">BOOTSZ1 </text>
<rect x="121.066667" y="173.333333" width="336" height="19.2" />
<text font-size="11pt" stroke-width="0.266667"
 fill="black"
 text-anchor="start"
 x="123.733333" y="188.14">BOOTSZ0 </text>
<rect x="121.066667" y="192.533333" width="336" height="19.2" />
<text font-size="11pt" stroke-width="0.266667"
 fill="black"
 text-anchor="start"
 x="123.733333" y="207.34">BOOTB0ST (boot reset vector at 0x0000) </text>
<rect x="173.866667" y="0.533333" width="19.2" height="19.2" />
<text font-size="11pt" stroke-width="0.2pt" fill="black" x="183.466667" y="15.34">1</text>
<rect x="154.666667" y="0.533333" width="19.2" height="19.2" />
<text font-size="11pt" stroke-width="0.2pt" fill="black" x="164.266667" y="15.34">0</text>
<rect x="135.466667" y="0.533333" width="19.2" height="19.2" />
<text font-size="11pt" stroke-width="0.2pt" fill="black" x="145.066667" y="15.34">0</text>
<rect x="116.266667" y="0.533333" width="19.2" height="19.2" />
<text font-size="11pt" stroke-width="0.2pt" fill="black" x="125.866667" y="15.34">1</text>
<rect x="97.066667" y="0.533333" width="19.2" height="19.2" />
<text font-size="11pt" stroke-width="0.2pt" fill="black" x="106.666667" y="15.34">0</text>
<rect x="77.866667" y="0.533333" width="19.2" height="19.2" />
<text font-size="11pt" stroke-width="0.2pt" fill="black" x="87.466667" y="15.34">0</text>
<rect x="58.666667" y="0.533333" width="19.2" height="19.2" />
<text font-size="11pt" stroke-width="0.2pt" fill="black" x="68.266667" y="15.34">1</text>
<rect x="39.466667" y="0.533333" width="19.2" height="19.2" />
<text font-size="11pt" stroke-width="0.2pt" fill="black" x="49.066667" y="15.34">1</text>
<rect x="1.066667" y="0.533333" width="38.4" height="19.2" />
<text font-size="11pt" stroke-width="0.2pt" fill="black" x="20.266667" y="15.34">0xc9</text>
<polygon stroke-width="0" fill="black"
 points="114.346667,65.333333 121.066667,67.733333
114.346667,70.133333" />
<path d="M 183.466667,19.733333
 C 183.466667,20.533333 183.466667,21.333333 183.466667,22.133333 183.466667,23.733333
171.466667,30.133333 147.466667,41.333333 123.466667,52.533333
111.466667,59.733333 111.466667,62.933333 111.466667,66.133333
112.802381,67.733333 115.47381,67.733333 116.809524,67.733333 118.145238,67.733333
119.480953,67.733333" />
<polygon stroke-width="0" fill="black"
 points="114.346667,84.533333 121.066667,86.933333
114.346667,89.333333" />
<path d="M 164.266667,19.733333
 C 164.266667,20.533333 164.266667,21.333333 164.266667,22.133333 164.266667,23.733333
153.866667,30.133333 133.066667,41.333333 112.266667,52.533333
101.866667,62.933333 101.866667,72.533333 101.866667,82.133333
104.802381,86.933333 110.67381,86.933333 113.609524,86.933333 116.545238,86.933333
119.480953,86.933333" />
<polygon stroke-width="0" fill="black"
 points="114.346667,103.733333 121.066667,106.133333
114.346667,108.533333" />
<path d="M 145.066667,19.733333
 C 145.066667,20.533333 145.066667,21.333333 145.066667,22.133333 145.066667,23.733333
136.266667,30.133333 118.666667,41.333333 101.066667,52.533333
92.266667,66.133333 92.266667,82.133333 92.266667,98.133333
96.802381,106.133333 105.87381,106.133333 110.409524,106.133333 114.945238,106.133333
119.480953,106.133333" />
<polygon stroke-width="0" fill="black"
 points="114.346667,122.933333 121.066667,125.333333
114.346667,127.733333" />
<path d="M 125.866667,19.733333
 C 125.866667,20.533333 125.866667,21.333333 125.866667,22.133333 125.866667,23.733333
118.666667,30.133333 104.266667,41.333333 89.866667,52.533333
82.666667,69.333333 82.666667,91.733333 82.666667,114.133333
88.802381,125.333333 101.07381,125.333333 107.209524,125.333333 113.345238,125.333333
119.480953,125.333333" />
<polygon stroke-width="0" fill="black"
 points="114.346667,142.133333 121.066667,144.533333
114.346667,146.933333" />
<path d="M 106.666667,19.733333
 C 106.666667,20.533333 106.666667,21.333333 106.666667,22.133333 106.666667,23.733333
101.066667,30.133333 89.866667,41.333333 78.666667,52.533333
73.066667,72.533333 73.066667,101.333333 73.066667,130.133333
80.802381,144.533333 96.27381,144.533333 104.009524,144.533333 111.745238,144.533333
119.480953,144.533333" />
<polygon stroke-width="0" fill="black"
 points="114.346667,161.333333 121.066667,163.733333
114.346667,166.133333" />
<path d="M 87.466667,19.733333
 C 87.466667,20.533333 87.466667,21.333333 87.466667,22.133333 87.466667,23.733333
83.466667,30.133333 75.466667,41.333333 67.466667,52.533333
63.466667,75.733333 63.466667,110.933333 63.466667,146.133333
72.802381,163.733333 91.47381,163.733333 100.809524,163.733333 110.145238,163.733333
119.480953,163.733333" />
<polygon stroke-width="0" fill="black"
 points="114.346667,180.533333 121.066667,182.933333
114.346667,185.333333" />
<path d="M 68.266667,19.733333
 C 68.266667,20.533333 68.266667,21.333333 68.266667,22.133333 68.266667,23.733333
65.866667,30.133333 61.066667,41.333333 56.266667,52.533333
53.866667,78.933333 53.866667,120.533333 53.866667,162.133333
64.802381,182.933333 86.67381,182.933333 97.609524,182.933333 108.545238,182.933333
119.480953,182.933333" />
<polygon stroke-width="0" fill="black"
 points="114.346667,199.733333 121.066667,202.133333
114.346667,204.533333" />
<path d="M 49.066667,19.733333
 C 49.066667,20.533333 49.066667,21.333333 49.066667,22.133333 49.066667,23.733333
48.266667,30.133333 46.666667,41.333333 45.066667,52.533333
44.266667,82.133333 44.266667,130.133333 44.266667,178.133333
56.802381,202.133333 81.87381,202.133333 94.409524,202.133333 106.945238,202.133333
119.480953,202.133333" />
</g>
</g></svg>
