<?xml version="1.0" encoding="UTF-8" standalone="no"?>
<!DOCTYPE svg PUBLIC "-//W3C//DTD SVG 1.1//EN"
"http://www.w3.org/Graphics/SVG/1.1/DTD/svg11.dtd">
<!-- Creator: dpic version 2022.12.01 option -v for SVG 1.1 -->
<!-- width="681" height="387" -->
<svg
 xmlns="http://www.w3.org/2000/svg" xmlns:xlink="http://www.w3.org/1999/xlink"
 xml:space="preserve"
 style="shape-rendering:geometricPrecision; text-rendering:geometricPrecision;
 image-rendering:optimizeQuality; fill-rule:evenodd; clip-rule:evenodd"
 width="680px" height="385.6px"
 viewBox="0 0 680 385.6"
 font-size="11pt" text-anchor="middle"
 stroke="black" stroke-miterlimit="10" stroke-width="1.066667" fill="none">
<g>
<g style="font-family:sans-serif"
>
<rect x="10.666667" y="62.933333" width="115.2" height="288" />
<line x1="10.666667" y1="149.333333" x2="1.066667" y2="149.333333" />
<text font-size="8.5pt" stroke-width="0.266667"
 fill="black"
 text-anchor="start"
 x="13.333333" y="153.356667">IOREF</text>
<line x1="10.666667" y1="163.733333" x2="1.066667" y2="163.733333" />
<text font-size="8.5pt" stroke-width="0.266667"
 fill="black"
 text-anchor="start"
 x="13.333333" y="167.756667">RESET</text>
<line x1="10.666667" y1="178.133333" x2="1.066667" y2="178.133333" />
<text font-size="8.5pt" stroke-width="0.266667"
 fill="black"
 text-anchor="start"
 x="13.333333" y="182.156667"><tspan font-style="italic">+</tspan>3V3</text>
<line x1="10.666667" y1="192.533333" x2="1.066667" y2="192.533333" />
<text font-size="8.5pt" stroke-width="0.266667"
 fill="black"
 text-anchor="start"
 x="13.333333" y="196.556667"><tspan font-style="italic">+</tspan>5V</text>
<line x1="10.666667" y1="206.933333" x2="1.066667" y2="206.933333" />
<text font-size="8.5pt" stroke-width="0.266667"
 fill="black"
 text-anchor="start"
 x="13.333333" y="210.956667">GND</text>
<line x1="10.666667" y1="221.333333" x2="1.066667" y2="221.333333" />
<text font-size="8.5pt" stroke-width="0.266667"
 fill="black"
 text-anchor="start"
 x="13.333333" y="225.356667">GND</text>
<line x1="10.666667" y1="235.733333" x2="1.066667" y2="235.733333" />
<text font-size="8.5pt" stroke-width="0.266667"
 fill="black"
 text-anchor="start"
 x="13.333333" y="239.756667">VIN</text>
<line x1="10.666667" y1="264.533333" x2="1.066667" y2="264.533333" />
<text font-size="8.5pt" stroke-width="0.266667"
 fill="black"
 text-anchor="start"
 x="13.333333" y="268.556667">A0</text>
<line x1="10.666667" y1="278.933333" x2="1.066667" y2="278.933333" />
<text font-size="8.5pt" stroke-width="0.266667"
 fill="black"
 text-anchor="start"
 x="13.333333" y="282.956667">A1</text>
<line x1="10.666667" y1="293.333333" x2="1.066667" y2="293.333333" />
<text font-size="8.5pt" stroke-width="0.266667"
 fill="black"
 text-anchor="start"
 x="13.333333" y="297.356667">A2</text>
<line x1="10.666667" y1="307.733333" x2="1.066667" y2="307.733333" />
<text font-size="8.5pt" stroke-width="0.266667"
 fill="black"
 text-anchor="start"
 x="13.333333" y="311.756667">A3</text>
<line x1="10.666667" y1="322.133333" x2="1.066667" y2="322.133333" />
<text font-size="8.5pt" stroke-width="0.266667"
 fill="black"
 text-anchor="start"
 x="13.333333" y="326.156667">A4</text>
<line x1="10.666667" y1="336.533333" x2="1.066667" y2="336.533333" />
<text font-size="8.5pt" stroke-width="0.266667"
 fill="black"
 text-anchor="start"
 x="13.333333" y="340.556667">A5</text>
<line x1="125.866667" y1="77.333333" x2="135.466667" y2="77.333333" />
<text font-size="8.5pt" stroke-width="0.266667"
 fill="black"
 text-anchor="end"
 x="123.2" y="81.356667">SCL</text>
<line x1="125.866667" y1="91.733333" x2="135.466667" y2="91.733333" />
<text font-size="8.5pt" stroke-width="0.266667"
 fill="black"
 text-anchor="end"
 x="123.2" y="95.756667">SDA</text>
<line x1="125.866667" y1="106.133333" x2="135.466667" y2="106.133333" />
<text font-size="8.5pt" stroke-width="0.266667"
 fill="black"
 text-anchor="end"
 x="123.2" y="110.156667">AREF</text>
<line x1="125.866667" y1="120.533333" x2="135.466667" y2="120.533333" />
<text font-size="8.5pt" stroke-width="0.266667"
 fill="black"
 text-anchor="end"
 x="123.2" y="124.556667">GND</text>
<line x1="125.866667" y1="134.933333" x2="135.466667" y2="134.933333" />
<text font-size="8.5pt" stroke-width="0.266667"
 fill="black"
 text-anchor="end"
 x="123.2" y="138.956667">~D13</text>
<line x1="125.866667" y1="149.333333" x2="135.466667" y2="149.333333" />
<text font-size="8.5pt" stroke-width="0.266667"
 fill="black"
 text-anchor="end"
 x="123.2" y="153.356667">D12</text>
<line x1="125.866667" y1="163.733333" x2="135.466667" y2="163.733333" />
<text font-size="8.5pt" stroke-width="0.266667"
 fill="black"
 text-anchor="end"
 x="123.2" y="167.756667">~D11</text>
<line x1="125.866667" y1="178.133333" x2="135.466667" y2="178.133333" />
<text font-size="8.5pt" stroke-width="0.266667"
 fill="black"
 text-anchor="end"
 x="123.2" y="182.156667">~D10</text>
<line x1="125.866667" y1="192.533333" x2="135.466667" y2="192.533333" />
<text font-size="8.5pt" stroke-width="0.266667"
 fill="black"
 text-anchor="end"
 x="123.2" y="196.556667">~D9</text>
<line x1="125.866667" y1="206.933333" x2="135.466667" y2="206.933333" />
<text font-size="8.5pt" stroke-width="0.266667"
 fill="black"
 text-anchor="end"
 x="123.2" y="210.956667">D8</text>
<line x1="125.866667" y1="235.733333" x2="135.466667" y2="235.733333" />
<text font-size="8.5pt" stroke-width="0.266667"
 fill="black"
 text-anchor="end"
 x="123.2" y="239.756667">D7</text>
<line x1="125.866667" y1="250.133333" x2="135.466667" y2="250.133333" />
<text font-size="8.5pt" stroke-width="0.266667"
 fill="black"
 text-anchor="end"
 x="123.2" y="254.156667">~D6</text>
<line x1="125.866667" y1="264.533333" x2="135.466667" y2="264.533333" />
<text font-size="8.5pt" stroke-width="0.266667"
 fill="black"
 text-anchor="end"
 x="123.2" y="268.556667">~D5</text>
<line x1="125.866667" y1="278.933333" x2="135.466667" y2="278.933333" />
<text font-size="8.5pt" stroke-width="0.266667"
 fill="black"
 text-anchor="end"
 x="123.2" y="282.956667">D4</text>
<line x1="125.866667" y1="293.333333" x2="135.466667" y2="293.333333" />
<text font-size="8.5pt" stroke-width="0.266667"
 fill="black"
 text-anchor="end"
 x="123.2" y="297.356667">~D3</text>
<line x1="125.866667" y1="307.733333" x2="135.466667" y2="307.733333" />
<text font-size="8.5pt" stroke-width="0.266667"
 fill="black"
 text-anchor="end"
 x="123.2" y="311.756667">D2</text>
<line x1="125.866667" y1="322.133333" x2="135.466667" y2="322.133333" />
<text font-size="8.5pt" stroke-width="0.266667"
 fill="black"
 text-anchor="end"
 x="123.2" y="326.156667">TX D1</text>
<line x1="125.866667" y1="336.533333" x2="135.466667" y2="336.533333" />
<text font-size="8.5pt" stroke-width="0.266667"
 fill="black"
 text-anchor="end"
 x="123.2" y="340.556667">RX D0</text>
<text font-size="8.5pt" stroke-width="0.266667"
 fill="black"
 x="68.266667" y="361.646667">Arduino Leonardo</text>
<rect x="188.266667" y="48.533333" width="163.2" height="302.4" />
<line x1="188.266667" y1="62.933333" x2="159.466667" y2="62.933333" />
<text font-size="8.5pt" stroke-width="0.266667"
 fill="black"
 text-anchor="start"
 x="190.933333" y="66.956667">3V3</text>
<text font-size="8.5pt" stroke-width="0.266667"
 fill="black"
 x="173.866667" y="60.266667"></text>
<line x1="188.266667" y1="77.333333" x2="159.466667" y2="77.333333" />
<text font-size="8.5pt" stroke-width="0.266667"
 fill="black"
 text-anchor="start"
 x="190.933333" y="81.356667">SDA1</text>
<text font-size="8.5pt" stroke-width="0.266667"
 fill="black"
 x="173.866667" y="74.666667">2</text>
<line x1="188.266667" y1="91.733333" x2="159.466667" y2="91.733333" />
<text font-size="8.5pt" stroke-width="0.266667"
 fill="black"
 text-anchor="start"
 x="190.933333" y="95.756667">SCL1</text>
<text font-size="8.5pt" stroke-width="0.266667"
 fill="black"
 x="173.866667" y="89.066667">3</text>
<line x1="188.266667" y1="106.133333" x2="159.466667" y2="106.133333" />
<text font-size="8.5pt" stroke-width="0.266667"
 fill="black"
 text-anchor="start"
 x="190.933333" y="110.156667">GPIO_GCLK</text>
<text font-size="8.5pt" stroke-width="0.266667"
 fill="black"
 x="173.866667" y="103.466667">4</text>
<line x1="188.266667" y1="120.533333" x2="159.466667" y2="120.533333" />
<text font-size="8.5pt" stroke-width="0.266667"
 fill="black"
 text-anchor="start"
 x="190.933333" y="124.556667">GND</text>
<text font-size="8.5pt" stroke-width="0.266667"
 fill="black"
 x="173.866667" y="117.866667"></text>
<line x1="188.266667" y1="134.933333" x2="159.466667" y2="134.933333" />
<text font-size="8.5pt" stroke-width="0.266667"
 fill="black"
 text-anchor="start"
 x="190.933333" y="138.956667">GPIO_GEN0</text>
<text font-size="8.5pt" stroke-width="0.266667"
 fill="black"
 x="173.866667" y="132.266667">17</text>
<line x1="188.266667" y1="149.333333" x2="159.466667" y2="149.333333" />
<text font-size="8.5pt" stroke-width="0.266667"
 fill="black"
 text-anchor="start"
 x="190.933333" y="153.356667">GPIO_GEN2</text>
<text font-size="8.5pt" stroke-width="0.266667"
 fill="black"
 x="173.866667" y="146.666667">27</text>
<line x1="188.266667" y1="163.733333" x2="159.466667" y2="163.733333" />
<text font-size="8.5pt" stroke-width="0.266667"
 fill="black"
 text-anchor="start"
 x="190.933333" y="167.756667">GPIO_GEN3</text>
<text font-size="8.5pt" stroke-width="0.266667"
 fill="black"
 x="173.866667" y="161.066667">22</text>
<line x1="188.266667" y1="178.133333" x2="159.466667" y2="178.133333" />
<text font-size="8.5pt" stroke-width="0.266667"
 fill="black"
 text-anchor="start"
 x="190.933333" y="182.156667">3V3</text>
<text font-size="8.5pt" stroke-width="0.266667"
 fill="black"
 x="173.866667" y="175.466667"></text>
<line x1="188.266667" y1="192.533333" x2="159.466667" y2="192.533333" />
<text font-size="8.5pt" stroke-width="0.266667"
 fill="black"
 text-anchor="start"
 x="190.933333" y="196.556667">SPI_MOSI</text>
<text font-size="8.5pt" stroke-width="0.266667"
 fill="black"
 x="173.866667" y="189.866667">10</text>
<line x1="188.266667" y1="206.933333" x2="159.466667" y2="206.933333" />
<text font-size="8.5pt" stroke-width="0.266667"
 fill="black"
 text-anchor="start"
 x="190.933333" y="210.956667">SPI_MISO</text>
<text font-size="8.5pt" stroke-width="0.266667"
 fill="black"
 x="173.866667" y="204.266667">9</text>
<line x1="188.266667" y1="221.333333" x2="159.466667" y2="221.333333" />
<text font-size="8.5pt" stroke-width="0.266667"
 fill="black"
 text-anchor="start"
 x="190.933333" y="225.356667">SPI_SCLK</text>
<text font-size="8.5pt" stroke-width="0.266667"
 fill="black"
 x="173.866667" y="218.666667">11</text>
<line x1="188.266667" y1="235.733333" x2="159.466667" y2="235.733333" />
<text font-size="8.5pt" stroke-width="0.266667"
 fill="black"
 text-anchor="start"
 x="190.933333" y="239.756667">GND</text>
<text font-size="8.5pt" stroke-width="0.266667"
 fill="black"
 x="173.866667" y="233.066667"></text>
<line x1="188.266667" y1="250.133333" x2="159.466667" y2="250.133333" />
<text font-size="8.5pt" stroke-width="0.266667"
 fill="black"
 text-anchor="start"
 x="190.933333" y="254.156667">ID_SD</text>
<text font-size="8.5pt" stroke-width="0.266667"
 fill="black"
 x="173.866667" y="247.466667"></text>
<line x1="188.266667" y1="264.533333" x2="159.466667" y2="264.533333" />
<text font-size="8.5pt" stroke-width="0.266667"
 fill="black"
 text-anchor="start"
 x="190.933333" y="268.556667"></text>
<text font-size="8.5pt" stroke-width="0.266667"
 fill="black"
 x="173.866667" y="261.866667">5</text>
<line x1="188.266667" y1="278.933333" x2="159.466667" y2="278.933333" />
<text font-size="8.5pt" stroke-width="0.266667"
 fill="black"
 text-anchor="start"
 x="190.933333" y="282.956667"></text>
<text font-size="8.5pt" stroke-width="0.266667"
 fill="black"
 x="173.866667" y="276.266667">6</text>
<line x1="188.266667" y1="293.333333" x2="159.466667" y2="293.333333" />
<text font-size="8.5pt" stroke-width="0.266667"
 fill="black"
 text-anchor="start"
 x="190.933333" y="297.356667"></text>
<text font-size="8.5pt" stroke-width="0.266667"
 fill="black"
 x="173.866667" y="290.666667">13</text>
<line x1="188.266667" y1="307.733333" x2="159.466667" y2="307.733333" />
<text font-size="8.5pt" stroke-width="0.266667"
 fill="black"
 text-anchor="start"
 x="190.933333" y="311.756667"></text>
<text font-size="8.5pt" stroke-width="0.266667"
 fill="black"
 x="173.866667" y="305.066667">19</text>
<line x1="188.266667" y1="322.133333" x2="159.466667" y2="322.133333" />
<text font-size="8.5pt" stroke-width="0.266667"
 fill="black"
 text-anchor="start"
 x="190.933333" y="326.156667"></text>
<text font-size="8.5pt" stroke-width="0.266667"
 fill="black"
 x="173.866667" y="319.466667">26</text>
<line x1="188.266667" y1="336.533333" x2="159.466667" y2="336.533333" />
<text font-size="8.5pt" stroke-width="0.266667"
 fill="black"
 text-anchor="start"
 x="190.933333" y="340.556667">GND </text>
<text font-size="8.5pt" stroke-width="0.266667"
 fill="black"
 x="173.866667" y="333.866667"></text>
<line x1="351.466667" y1="62.933333" x2="380.266667" y2="62.933333" />
<text font-size="8.5pt" stroke-width="0.266667"
 fill="black"
 text-anchor="end"
 x="348.8" y="66.956667">5V</text>
<text font-size="8.5pt" stroke-width="0.266667"
 fill="black"
 x="365.866667" y="60.266667"></text>
<line x1="351.466667" y1="77.333333" x2="380.266667" y2="77.333333" />
<text font-size="8.5pt" stroke-width="0.266667"
 fill="black"
 text-anchor="end"
 x="348.8" y="81.356667">5V</text>
<text font-size="8.5pt" stroke-width="0.266667"
 fill="black"
 x="365.866667" y="74.666667"></text>
<line x1="351.466667" y1="91.733333" x2="380.266667" y2="91.733333" />
<text font-size="8.5pt" stroke-width="0.266667"
 fill="black"
 text-anchor="end"
 x="348.8" y="95.756667">GND</text>
<text font-size="8.5pt" stroke-width="0.266667"
 fill="black"
 x="365.866667" y="89.066667"></text>
<line x1="351.466667" y1="106.133333" x2="380.266667" y2="106.133333" />
<text font-size="8.5pt" stroke-width="0.266667"
 fill="black"
 text-anchor="end"
 x="348.8" y="110.156667">TXD0</text>
<text font-size="8.5pt" stroke-width="0.266667"
 fill="black"
 x="365.866667" y="103.466667">14</text>
<line x1="351.466667" y1="120.533333" x2="380.266667" y2="120.533333" />
<text font-size="8.5pt" stroke-width="0.266667"
 fill="black"
 text-anchor="end"
 x="348.8" y="124.556667">RXD0</text>
<text font-size="8.5pt" stroke-width="0.266667"
 fill="black"
 x="365.866667" y="117.866667">15</text>
<line x1="351.466667" y1="134.933333" x2="380.266667" y2="134.933333" />
<text font-size="8.5pt" stroke-width="0.266667"
 fill="black"
 text-anchor="end"
 x="348.8" y="138.956667">GPIO_GEN1</text>
<text font-size="8.5pt" stroke-width="0.266667"
 fill="black"
 x="365.866667" y="132.266667">18</text>
<line x1="351.466667" y1="149.333333" x2="380.266667" y2="149.333333" />
<text font-size="8.5pt" stroke-width="0.266667"
 fill="black"
 text-anchor="end"
 x="348.8" y="153.356667">GND</text>
<text font-size="8.5pt" stroke-width="0.266667"
 fill="black"
 x="365.866667" y="146.666667"></text>
<line x1="351.466667" y1="163.733333" x2="380.266667" y2="163.733333" />
<text font-size="8.5pt" stroke-width="0.266667"
 fill="black"
 text-anchor="end"
 x="348.8" y="167.756667">GPIO_GEN4</text>
<text font-size="8.5pt" stroke-width="0.266667"
 fill="black"
 x="365.866667" y="161.066667">23</text>
<line x1="351.466667" y1="178.133333" x2="380.266667" y2="178.133333" />
<text font-size="8.5pt" stroke-width="0.266667"
 fill="black"
 text-anchor="end"
 x="348.8" y="182.156667">GPIO_GEN5</text>
<text font-size="8.5pt" stroke-width="0.266667"
 fill="black"
 x="365.866667" y="175.466667">24</text>
<line x1="351.466667" y1="192.533333" x2="380.266667" y2="192.533333" />
<text font-size="8.5pt" stroke-width="0.266667"
 fill="black"
 text-anchor="end"
 x="348.8" y="196.556667">GND</text>
<text font-size="8.5pt" stroke-width="0.266667"
 fill="black"
 x="365.866667" y="189.866667"></text>
<line x1="351.466667" y1="206.933333" x2="380.266667" y2="206.933333" />
<text font-size="8.5pt" stroke-width="0.266667"
 fill="black"
 text-anchor="end"
 x="348.8" y="210.956667">GPIO_GEN6</text>
<text font-size="8.5pt" stroke-width="0.266667"
 fill="black"
 x="365.866667" y="204.266667">25</text>
<line x1="351.466667" y1="221.333333" x2="380.266667" y2="221.333333" />
<text font-size="8.5pt" stroke-width="0.266667"
 fill="black"
 text-anchor="end"
 x="348.8" y="225.356667">SPI_CEO_N</text>
<text font-size="8.5pt" stroke-width="0.266667"
 fill="black"
 x="365.866667" y="218.666667">8</text>
<line x1="351.466667" y1="235.733333" x2="380.266667" y2="235.733333" />
<text font-size="8.5pt" stroke-width="0.266667"
 fill="black"
 text-anchor="end"
 x="348.8" y="239.756667">SPI_CE1_N</text>
<text font-size="8.5pt" stroke-width="0.266667"
 fill="black"
 x="365.866667" y="233.066667">7</text>
<line x1="351.466667" y1="250.133333" x2="380.266667" y2="250.133333" />
<text font-size="8.5pt" stroke-width="0.266667"
 fill="black"
 text-anchor="end"
 x="348.8" y="254.156667">ID_SC</text>
<text font-size="8.5pt" stroke-width="0.266667"
 fill="black"
 x="365.866667" y="247.466667"></text>
<line x1="351.466667" y1="264.533333" x2="380.266667" y2="264.533333" />
<text font-size="8.5pt" stroke-width="0.266667"
 fill="black"
 text-anchor="end"
 x="348.8" y="268.556667">GND</text>
<text font-size="8.5pt" stroke-width="0.266667"
 fill="black"
 x="365.866667" y="261.866667"></text>
<line x1="351.466667" y1="278.933333" x2="380.266667" y2="278.933333" />
<text font-size="8.5pt" stroke-width="0.266667"
 fill="black"
 text-anchor="end"
 x="348.8" y="282.956667"></text>
<text font-size="8.5pt" stroke-width="0.266667"
 fill="black"
 x="365.866667" y="276.266667">12</text>
<line x1="351.466667" y1="293.333333" x2="380.266667" y2="293.333333" />
<text font-size="8.5pt" stroke-width="0.266667"
 fill="black"
 text-anchor="end"
 x="348.8" y="297.356667">GND</text>
<text font-size="8.5pt" stroke-width="0.266667"
 fill="black"
 x="365.866667" y="290.666667"></text>
<line x1="351.466667" y1="307.733333" x2="380.266667" y2="307.733333" />
<text font-size="8.5pt" stroke-width="0.266667"
 fill="black"
 text-anchor="end"
 x="348.8" y="311.756667"></text>
<text font-size="8.5pt" stroke-width="0.266667"
 fill="black"
 x="365.866667" y="305.066667">16</text>
<line x1="351.466667" y1="322.133333" x2="380.266667" y2="322.133333" />
<text font-size="8.5pt" stroke-width="0.266667"
 fill="black"
 text-anchor="end"
 x="348.8" y="326.156667"></text>
<text font-size="8.5pt" stroke-width="0.266667"
 fill="black"
 x="365.866667" y="319.466667">20</text>
<line x1="351.466667" y1="336.533333" x2="380.266667" y2="336.533333" />
<text font-size="8.5pt" stroke-width="0.266667"
 fill="black"
 text-anchor="end"
 x="348.8" y="340.556667"></text>
<text font-size="8.5pt" stroke-width="0.266667"
 fill="black"
 x="365.866667" y="333.866667">21</text>
<text font-size="8.5pt" stroke-width="0.266667"
 fill="black"
 x="269.866667" y="361.646667">Raspberry Pi 4 GPIO</text>
<polyline points="433.066667,328.533333 433.066667,29.333333
484.266667,29.333333
509.866667,54.933333
509.866667,328.533333
484.266667,354.133333
433.066667,354.133333
433.066667,328.533333" />
<line x1="433.066667" y1="62.133333" x2="404.266667" y2="62.133333" />
<text font-size="8.5pt" stroke-width="0.266667"
 fill="black"
 text-anchor="start"
 x="435.733333" y="66.156667">HPD</text>
<text font-size="8.5pt" stroke-width="0.266667"
 fill="black"
 x="418.666667" y="59.466667">1</text>
<line x1="433.066667" y1="76.533333" x2="404.266667" y2="76.533333" />
<text font-size="8.5pt" stroke-width="0.266667"
 fill="black"
 text-anchor="start"
 x="435.733333" y="80.556667">UTILITY</text>
<text font-size="8.5pt" stroke-width="0.266667"
 fill="black"
 x="418.666667" y="73.866667">2</text>
<line x1="433.066667" y1="90.933333" x2="404.266667" y2="90.933333" />
<text font-size="8.5pt" stroke-width="0.266667"
 fill="black"
 text-anchor="start"
 x="435.733333" y="94.956667">D2<tspan font-style="italic">+</tspan></text>
<text font-size="8.5pt" stroke-width="0.266667"
 fill="black"
 x="418.666667" y="88.266667">3</text>
<line x1="433.066667" y1="105.333333" x2="404.266667" y2="105.333333" />
<text font-size="8.5pt" stroke-width="0.266667"
 fill="black"
 text-anchor="start"
 x="435.733333" y="109.356667">D2_SH</text>
<text font-size="8.5pt" stroke-width="0.266667"
 fill="black"
 x="418.666667" y="102.666667">4</text>
<line x1="433.066667" y1="119.733333" x2="404.266667" y2="119.733333" />
<text font-size="8.5pt" stroke-width="0.266667"
 fill="black"
 text-anchor="start"
 x="435.733333" y="123.756667">D2<tspan font-style="italic">-</tspan></text>
<text font-size="8.5pt" stroke-width="0.266667"
 fill="black"
 x="418.666667" y="117.066667">5</text>
<line x1="433.066667" y1="134.133333" x2="404.266667" y2="134.133333" />
<text font-size="8.5pt" stroke-width="0.266667"
 fill="black"
 text-anchor="start"
 x="435.733333" y="138.156667">D1<tspan font-style="italic">+</tspan></text>
<text font-size="8.5pt" stroke-width="0.266667"
 fill="black"
 x="418.666667" y="131.466667">6</text>
<line x1="433.066667" y1="148.533333" x2="404.266667" y2="148.533333" />
<text font-size="8.5pt" stroke-width="0.266667"
 fill="black"
 text-anchor="start"
 x="435.733333" y="152.556667">D1_SH</text>
<text font-size="8.5pt" stroke-width="0.266667"
 fill="black"
 x="418.666667" y="145.866667">7</text>
<line x1="433.066667" y1="162.933333" x2="404.266667" y2="162.933333" />
<text font-size="8.5pt" stroke-width="0.266667"
 fill="black"
 text-anchor="start"
 x="435.733333" y="166.956667">D1<tspan font-style="italic">-</tspan></text>
<text font-size="8.5pt" stroke-width="0.266667"
 fill="black"
 x="418.666667" y="160.266667">8</text>
<line x1="433.066667" y1="177.333333" x2="404.266667" y2="177.333333" />
<text font-size="8.5pt" stroke-width="0.266667"
 fill="black"
 text-anchor="start"
 x="435.733333" y="181.356667">D0<tspan font-style="italic">+</tspan></text>
<text font-size="8.5pt" stroke-width="0.266667"
 fill="black"
 x="418.666667" y="174.666667">9</text>
<line x1="433.066667" y1="191.733333" x2="404.266667" y2="191.733333" />
<text font-size="8.5pt" stroke-width="0.266667"
 fill="black"
 text-anchor="start"
 x="435.733333" y="195.756667">D0_SH</text>
<text font-size="8.5pt" stroke-width="0.266667"
 fill="black"
 x="418.666667" y="189.066667">10</text>
<line x1="433.066667" y1="206.133333" x2="404.266667" y2="206.133333" />
<text font-size="8.5pt" stroke-width="0.266667"
 fill="black"
 text-anchor="start"
 x="435.733333" y="210.156667">D0<tspan font-style="italic">-</tspan></text>
<text font-size="8.5pt" stroke-width="0.266667"
 fill="black"
 x="418.666667" y="203.466667">11</text>
<line x1="433.066667" y1="220.533333" x2="404.266667" y2="220.533333" />
<text font-size="8.5pt" stroke-width="0.266667"
 fill="black"
 text-anchor="start"
 x="435.733333" y="224.556667">CLK<tspan font-style="italic">+</tspan></text>
<text font-size="8.5pt" stroke-width="0.266667"
 fill="black"
 x="418.666667" y="217.866667">12</text>
<line x1="433.066667" y1="234.933333" x2="404.266667" y2="234.933333" />
<text font-size="8.5pt" stroke-width="0.266667"
 fill="black"
 text-anchor="start"
 x="435.733333" y="238.956667">CLK_SH</text>
<text font-size="8.5pt" stroke-width="0.266667"
 fill="black"
 x="418.666667" y="232.266667">13</text>
<line x1="433.066667" y1="249.333333" x2="404.266667" y2="249.333333" />
<text font-size="8.5pt" stroke-width="0.266667"
 fill="black"
 text-anchor="start"
 x="435.733333" y="253.356667">CLK<tspan font-style="italic">-</tspan></text>
<text font-size="8.5pt" stroke-width="0.266667"
 fill="black"
 x="418.666667" y="246.666667">14</text>
<line x1="433.066667" y1="263.733333" x2="404.266667" y2="263.733333" />
<text font-size="8.5pt" stroke-width="0.266667"
 fill="black"
 text-anchor="start"
 x="435.733333" y="267.756667">CEC</text>
<text font-size="8.5pt" stroke-width="0.266667"
 fill="black"
 x="418.666667" y="261.066667">15</text>
<line x1="433.066667" y1="278.133333" x2="404.266667" y2="278.133333" />
<text font-size="8.5pt" stroke-width="0.266667"
 fill="black"
 text-anchor="start"
 x="435.733333" y="282.156667">GND</text>
<text font-size="8.5pt" stroke-width="0.266667"
 fill="black"
 x="418.666667" y="275.466667">16</text>
<line x1="433.066667" y1="292.533333" x2="404.266667" y2="292.533333" />
<text font-size="8.5pt" stroke-width="0.266667"
 fill="black"
 text-anchor="start"
 x="435.733333" y="296.556667">SCL</text>
<text font-size="8.5pt" stroke-width="0.266667"
 fill="black"
 x="418.666667" y="289.866667">17</text>
<line x1="433.066667" y1="306.933333" x2="404.266667" y2="306.933333" />
<text font-size="8.5pt" stroke-width="0.266667"
 fill="black"
 text-anchor="start"
 x="435.733333" y="310.956667">SDA</text>
<text font-size="8.5pt" stroke-width="0.266667"
 fill="black"
 x="418.666667" y="304.266667">18</text>
<line x1="433.066667" y1="321.333333" x2="404.266667" y2="321.333333" />
<text font-size="8.5pt" stroke-width="0.266667"
 fill="black"
 text-anchor="start"
 x="435.733333" y="325.356667"><tspan font-style="italic">+</tspan>5V</text>
<text font-size="8.5pt" stroke-width="0.266667"
 fill="black"
 x="418.666667" y="318.666667">19</text>
<line x1="469.866667" y1="29.333333" x2="469.866667" y2="0.533333" />
<g transform="rotate(-90 468.515 14.9752)">
<text font-size="8.5pt" stroke-width="0.266667"
 fill="black"
 x="468.556667" y="14.933333">21</text>
</g>
<g transform="rotate(-90 479.181 40.0419)">
<text font-size="8.5pt" stroke-width="0.266667"
 fill="black"
 x="479.223333" y="40">SH2</text>
</g>
<line x1="455.466667" y1="29.333333" x2="455.466667" y2="0.533333" />
<g transform="rotate(-90 454.115 14.9752)">
<text font-size="8.5pt" stroke-width="0.266667"
 fill="black"
 x="454.156667" y="14.933333">20</text>
</g>
<g transform="rotate(-90 464.781 40.0419)">
<text font-size="8.5pt" stroke-width="0.266667"
 fill="black"
 x="464.823333" y="40">SH1</text>
</g>
<line x1="469.866667" y1="354.133333" x2="469.866667" y2="382.933333" />
<g transform="rotate(-90 468.515 368.575)">
<text font-size="8.5pt" stroke-width="0.266667"
 fill="black"
 x="468.556667" y="368.533333">23</text>
</g>
<g transform="rotate(-90 479.181 335.509)">
<text font-size="8.5pt" stroke-width="0.266667"
 fill="black"
 x="479.223333" y="335.466667">SH4</text>
</g>
<line x1="455.466667" y1="354.133333" x2="455.466667" y2="382.933333" />
<g transform="rotate(-90 454.115 368.575)">
<text font-size="8.5pt" stroke-width="0.266667"
 fill="black"
 x="454.156667" y="368.533333">22</text>
</g>
<g transform="rotate(-90 464.781 335.509)">
<text font-size="8.5pt" stroke-width="0.266667"
 fill="black"
 x="464.823333" y="335.466667">SH3</text>
</g>
<text font-size="8.5pt" stroke-width="0.266667"
 fill="black"
 text-anchor="end"
 x="430.4" y="352.49">Micro</text>
<text font-size="8.5pt" stroke-width="0.266667"
 fill="black"
 text-anchor="end"
 x="430.4" y="363.823333">HDMI</text>
<rect x="562.666667" y="149.333333" rx="24" ry="24" width="86.4" height="201.6" />
<line x1="562.666667" y1="170.933333" x2="533.866667" y2="170.933333" />
<text font-size="8.5pt" stroke-width="0.266667"
 fill="black"
 text-anchor="start"
 x="565.333333" y="174.956667">GND</text>
<line x1="562.666667" y1="185.333333" x2="533.866667" y2="185.333333" />
<text font-size="8.5pt" stroke-width="0.266667"
 fill="black"
 text-anchor="start"
 x="565.333333" y="189.356667">RX1<tspan font-style="italic">+</tspan></text>
<line x1="562.666667" y1="199.733333" x2="533.866667" y2="199.733333" />
<text font-size="8.5pt" stroke-width="0.266667"
 fill="black"
 text-anchor="start"
 x="565.333333" y="203.756667">RX1<tspan font-style="italic">-</tspan></text>
<line x1="562.666667" y1="214.133333" x2="533.866667" y2="214.133333" />
<text font-size="8.5pt" stroke-width="0.266667"
 fill="black"
 text-anchor="start"
 x="565.333333" y="218.156667">VBUS</text>
<line x1="562.666667" y1="228.533333" x2="533.866667" y2="228.533333" />
<text font-size="8.5pt" stroke-width="0.266667"
 fill="black"
 text-anchor="start"
 x="565.333333" y="232.556667">SBU2</text>
<line x1="562.666667" y1="242.933333" x2="533.866667" y2="242.933333" />
<text font-size="8.5pt" stroke-width="0.266667"
 fill="black"
 text-anchor="start"
 x="565.333333" y="246.956667">D<tspan font-style="italic">-</tspan></text>
<line x1="562.666667" y1="257.333333" x2="533.866667" y2="257.333333" />
<text font-size="8.5pt" stroke-width="0.266667"
 fill="black"
 text-anchor="start"
 x="565.333333" y="261.356667">D<tspan font-style="italic">+</tspan></text>
<line x1="562.666667" y1="271.733333" x2="533.866667" y2="271.733333" />
<text font-size="8.5pt" stroke-width="0.266667"
 fill="black"
 text-anchor="start"
 x="565.333333" y="275.756667">CC2</text>
<line x1="562.666667" y1="286.133333" x2="533.866667" y2="286.133333" />
<text font-size="8.5pt" stroke-width="0.266667"
 fill="black"
 text-anchor="start"
 x="565.333333" y="290.156667">VBUS</text>
<line x1="562.666667" y1="300.533333" x2="533.866667" y2="300.533333" />
<text font-size="8.5pt" stroke-width="0.266667"
 fill="black"
 text-anchor="start"
 x="565.333333" y="304.556667">TX2<tspan font-style="italic">-</tspan></text>
<line x1="562.666667" y1="314.933333" x2="533.866667" y2="314.933333" />
<text font-size="8.5pt" stroke-width="0.266667"
 fill="black"
 text-anchor="start"
 x="565.333333" y="318.956667">TX2<tspan font-style="italic">+</tspan></text>
<line x1="562.666667" y1="329.333333" x2="533.866667" y2="329.333333" />
<text font-size="8.5pt" stroke-width="0.266667"
 fill="black"
 text-anchor="start"
 x="565.333333" y="333.356667">GND</text>
<line x1="649.066667" y1="170.933333" x2="677.866667" y2="170.933333" />
<text font-size="8.5pt" stroke-width="0.266667"
 fill="black"
 text-anchor="end"
 x="646.4" y="174.956667">GND</text>
<line x1="649.066667" y1="185.333333" x2="677.866667" y2="185.333333" />
<text font-size="8.5pt" stroke-width="0.266667"
 fill="black"
 text-anchor="end"
 x="646.4" y="189.356667">TX1<tspan font-style="italic">+</tspan></text>
<line x1="649.066667" y1="199.733333" x2="677.866667" y2="199.733333" />
<text font-size="8.5pt" stroke-width="0.266667"
 fill="black"
 text-anchor="end"
 x="646.4" y="203.756667">TX1<tspan font-style="italic">-</tspan></text>
<line x1="649.066667" y1="214.133333" x2="677.866667" y2="214.133333" />
<text font-size="8.5pt" stroke-width="0.266667"
 fill="black"
 text-anchor="end"
 x="646.4" y="218.156667">VBUS</text>
<line x1="649.066667" y1="228.533333" x2="677.866667" y2="228.533333" />
<text font-size="8.5pt" stroke-width="0.266667"
 fill="black"
 text-anchor="end"
 x="646.4" y="232.556667">CC1</text>
<line x1="649.066667" y1="242.933333" x2="677.866667" y2="242.933333" />
<text font-size="8.5pt" stroke-width="0.266667"
 fill="black"
 text-anchor="end"
 x="646.4" y="246.956667">D<tspan font-style="italic">+</tspan></text>
<line x1="649.066667" y1="257.333333" x2="677.866667" y2="257.333333" />
<text font-size="8.5pt" stroke-width="0.266667"
 fill="black"
 text-anchor="end"
 x="646.4" y="261.356667">D<tspan font-style="italic">-</tspan></text>
<line x1="649.066667" y1="271.733333" x2="677.866667" y2="271.733333" />
<text font-size="8.5pt" stroke-width="0.266667"
 fill="black"
 text-anchor="end"
 x="646.4" y="275.756667">SBU1</text>
<line x1="649.066667" y1="286.133333" x2="677.866667" y2="286.133333" />
<text font-size="8.5pt" stroke-width="0.266667"
 fill="black"
 text-anchor="end"
 x="646.4" y="290.156667">VBUS</text>
<line x1="649.066667" y1="300.533333" x2="677.866667" y2="300.533333" />
<text font-size="8.5pt" stroke-width="0.266667"
 fill="black"
 text-anchor="end"
 x="646.4" y="304.556667">RX2<tspan font-style="italic">-</tspan></text>
<line x1="649.066667" y1="314.933333" x2="677.866667" y2="314.933333" />
<text font-size="8.5pt" stroke-width="0.266667"
 fill="black"
 text-anchor="end"
 x="646.4" y="318.956667">RX2<tspan font-style="italic">+</tspan></text>
<line x1="649.066667" y1="329.333333" x2="677.866667" y2="329.333333" />
<text font-size="8.5pt" stroke-width="0.266667"
 fill="black"
 text-anchor="end"
 x="646.4" y="333.356667">GND</text>
<text font-size="8.5pt" stroke-width="0.266667"
 fill="black"
 x="605.866667" y="361.646667">USB-C Socket</text>
<text font-size="8.5pt" stroke-width="0.266667"
 fill="black"
 text-anchor="start"
 x="536.533333" y="168.266667">B12</text>
<text font-size="8.5pt" stroke-width="0.266667"
 fill="black"
 text-anchor="start"
 x="536.533333" y="326.666667">B1</text>
<text font-size="8.5pt" stroke-width="0.266667"
 fill="black"
 text-anchor="end"
 x="675.2" y="168.266667">A1</text>
<text font-size="8.5pt" stroke-width="0.266667"
 fill="black"
 text-anchor="end"
 x="675.2" y="326.666667">A12</text>
</g>
</g></svg>
