<?xml version="1.0" encoding="UTF-8" standalone="no"?>
<!DOCTYPE svg PUBLIC "-//W3C//DTD SVG 1.1//EN"
"http://www.w3.org/Graphics/SVG/1.1/DTD/svg11.dtd">
<!-- Creator: dpic version 2022.12.01 option -v for SVG 1.1 -->
<!-- width="797" height="428" -->
<svg
 xmlns="http://www.w3.org/2000/svg" xmlns:xlink="http://www.w3.org/1999/xlink"
 xml:space="preserve"
 style="shape-rendering:geometricPrecision; text-rendering:geometricPrecision;
 image-rendering:optimizeQuality; fill-rule:evenodd; clip-rule:evenodd"
 width="796.4px" height="426.730667px"
 viewBox="0 0 796.4 426.730667"
 font-size="11pt" text-anchor="middle"
 stroke="black" stroke-miterlimit="10" stroke-width="1.066667" fill="none">
<g>
<g style="font-family:sans-serif"
>
<polyline points="106.666667,4.698667 106.666667,16.698667
110.666667,18.698667
102.666667,22.698667
110.666667,26.698667
102.666667,30.698667
110.666667,34.698667
102.666667,38.698667
106.666667,40.698667
106.666667,52.698667" />
<text font-size="8.8pt" stroke-width="0.266667"
 fill="black"
 text-anchor="start"
 x="112" y="26.616"
><tspan font-style="italic">R<tspan font-size="70%"
dy="0.66ex" dx="">2</tspan><tspan
font-size="70%" dy="-0.66ex"
dx="-0.5ex"> </tspan></tspan></text>
<text font-size="8.8pt" stroke-width="0.266667"
 fill="black"
 text-anchor="start"
 x="114.666667" y="39.112">150&#937;</text>
<circle fill="black"
 cx="106.666667" cy="52.698667" r="1.92" />
<polyline points="106.666667,52.698667 106.666667,62.298667
107.022222,62.458667" />
<polyline points="106.666667,100.698667 106.666667,91.098667
107.022222,90.938667" />
<line x1="125.866667" y1="67.098667" x2="125.866667" y2="86.298667" />
<line x1="137.866667" y1="76.698667" x2="125.866667" y2="76.698667" />
<line x1="106.666667" y1="62.298667" x2="125.866667" y2="70.938667" />
<polygon stroke-width="0" fill="black"
 points="114.8656,63.063959 121.066667,68.778667
112.676989,67.92754" />
<line x1="111.466667" y1="64.458667" x2="119.528667" y2="68.086567" />
<line x1="106.666667" y1="91.098667" x2="125.866667" y2="82.458667" />
<path d="M 137.866667,76.698667
 A 19.2 19.2 0 0 1 99.466667,76.698667" />
<line x1="99.466667" y1="76.698667" x2="99.466667" y2="76.698667" />
<path d="M 99.466667,76.698667
 A 19.2 19.2 0 0 1 137.866667,76.698667" />
<line x1="137.866667" y1="76.698667" x2="137.866667" y2="76.698667" />
<text font-size="8.8pt" stroke-width="0.266667"
 fill="black"
 text-anchor="end"
 x="100.8" y="74.616"
><tspan font-style="italic">Q<tspan font-size="70%"
dy="0.66ex" dx="">13</tspan><tspan
font-size="70%" dy="-0.66ex"
dx="-0.5ex"> </tspan></tspan></text>
<text font-size="8.8pt" stroke-width="0.266667"
 fill="black"
 text-anchor="end"
 x="98.133333" y="87.112">2N4236</text>
<line x1="106.666667" y1="100.698667" x2="106.666667" y2="323.898667" />
<polyline points="106.666667,371.898667 106.666667,362.298667
107.022222,362.138667" />
<polyline points="106.666667,323.898667 106.666667,333.498667
107.022222,333.658667" />
<line x1="125.866667" y1="357.498667" x2="125.866667" y2="338.298667" />
<line x1="137.866667" y1="347.898667" x2="125.866667" y2="347.898667" />
<line x1="106.666667" y1="362.298667" x2="125.866667" y2="353.658667" />
<polygon stroke-width="0" fill="black"
 points="119.856345,359.28754 111.466667,360.138667
117.667733,354.423959" />
<line x1="113.004666" y1="359.446567" x2="121.066667" y2="355.818667" />
<line x1="106.666667" y1="333.498667" x2="125.866667" y2="342.138667" />
<path d="M 137.866667,347.898667
 A 19.2 19.2 0 0 0 99.466667,347.898667" />
<line x1="99.466667" y1="347.898667" x2="99.466667" y2="347.898667" />
<path d="M 99.466667,347.898667
 A 19.2 19.2 0 0 0 137.866667,347.898667" />
<line x1="137.866667" y1="347.898667" x2="137.866667" y2="347.898667" />
<text font-size="8.8pt" stroke-width="0.266667"
 fill="black"
 text-anchor="end"
 x="100.8" y="345.816"
><tspan font-style="italic">Q<tspan font-size="70%"
dy="0.66ex" dx="">14</tspan><tspan
font-size="70%" dy="-0.66ex"
dx="-0.5ex"> </tspan></tspan></text>
<text font-size="8.8pt" stroke-width="0.266667"
 fill="black"
 text-anchor="end"
 x="98.133333" y="358.312">2N4239</text>
<circle fill="black"
 cx="106.666667" cy="371.898667" r="1.92" />
<polyline points="106.666667,371.898667 44.266667,371.898667
44.266667,323.898667" />
<polyline points="44.266667,323.898667 44.266667,311.898667
40.266667,309.898667
48.266667,305.898667
40.266667,301.898667
48.266667,297.898667
40.266667,293.898667
48.266667,289.898667
44.266667,287.898667
44.266667,275.898667" />
<polygon stroke-width="0" fill="black"
 points="34.666667,297.498667 44.266667,299.898667
34.666667,302.298667" />
<line x1="24.266667" y1="299.898667" x2="42.067677" y2="299.898667" />
<text font-size="8.8pt" stroke-width="0.266667"
 fill="black"
 text-anchor="start"
 x="49.6" y="297.816"
><tspan font-style="italic">R<tspan font-size="70%"
dy="0.66ex" dx="">1</tspan><tspan
font-size="70%" dy="-0.66ex"
dx="-0.5ex"> </tspan></tspan></text>
<text font-size="8.8pt" stroke-width="0.266667"
 fill="black"
 text-anchor="start"
 x="52.266667" y="310.312">20k&#937;</text>
<line x1="24.266667" y1="299.898667" x2="24.266667" y2="311.898667" />
<line x1="32.266667" y1="311.898667" x2="16.266667" y2="311.898667" />
<line x1="29.6" y1="314.898667" x2="18.933333" y2="314.898667" />
<line x1="27.695238" y1="317.898667" x2="20.838095" y2="317.898667" />
<polyline points="44.266667,275.898667 44.266667,52.698667
106.666667,52.698667" />
<circle fill="black"
 cx="106.666667" cy="172.698667" r="1.92" />
<line x1="106.666667" y1="172.698667" x2="20.266667" y2="172.698667" />
<line x1="20.266667" y1="172.698667" x2="44.266667" y2="172.698667" />
<polygon stroke-width="0" fill="black"
 points="27.466667,170.298667 37.066667,172.698667
27.466667,175.098667" />
<line x1="27.466667" y1="172.698667" x2="34.867677" y2="172.698667" />
<text font-size="8.8pt" stroke-width="0.266667"
 fill="black"
 x="32.266667" y="167.632"
>i<tspan font-size="70%"
dy="0.66ex" dx="">1</tspan><tspan
font-size="70%" dy="-0.66ex"
dx="-0.5ex"> </tspan></text>
<circle fill="white"
 cx="20.266667" cy="172.698667" r="1.92" />
<circle fill="white"
 cx="20.266667" cy="220.698667" r="1.92" />
<text font-size="8.8pt" stroke-width="0.266667"
 fill="black"
 text-anchor="end"
 x="17.6" y="182.476444">+</text>
<text font-size="8.8pt" stroke-width="0.266667"
 fill="black"
 text-anchor="end"
 x="17.6" y="200.864"
>V<tspan font-size="70%"
dy="0.66ex" dx="">1</tspan><tspan
font-size="70%" dy="-0.66ex"
dx="-0.5ex"> </tspan></text>
<text font-size="8.8pt" stroke-width="0.266667"
 fill="black"
 text-anchor="end"
 x="17.6" y="219.251556">-</text>
<line x1="20.266667" y1="222.618667" x2="20.266667" y2="232.698667" />
<line x1="28.266667" y1="232.698667" x2="12.266667" y2="232.698667" />
<line x1="25.6" y1="235.698667" x2="14.933333" y2="235.698667" />
<line x1="23.695238" y1="238.698667" x2="16.838095" y2="238.698667" />
<polyline points="106.666667,371.898667 106.666667,383.898667
110.666667,385.898667
102.666667,389.898667
110.666667,393.898667
102.666667,397.898667
110.666667,401.898667
102.666667,405.898667
106.666667,407.898667
106.666667,419.898667" />
<text font-size="8.8pt" stroke-width="0.266667"
 fill="black"
 text-anchor="start"
 x="112" y="393.816"
><tspan font-style="italic">R<tspan font-size="70%"
dy="0.66ex" dx="">3</tspan><tspan
font-size="70%" dy="-0.66ex"
dx="-0.5ex"> </tspan></tspan></text>
<text font-size="8.8pt" stroke-width="0.266667"
 fill="black"
 text-anchor="start"
 x="114.666667" y="406.312">150&#937;</text>
<circle fill="black"
 cx="106.666667" cy="244.698667" r="1.92" />
<line x1="106.666667" y1="244.698667" x2="130.666667" y2="244.698667" />
<polyline points="130.666667,232.698667 130.666667,208.698667
178.666667,232.698667
130.666667,256.698667
130.666667,232.698667" />
<line x1="178.666667" y1="232.698667" x2="190.666667" y2="232.698667" />
<text font-size="8.8pt" stroke-width="0.266667"
 fill="black"
 x="135.980075" y="224.030933">-</text>
<text font-size="8.8pt" stroke-width="0.266667"
 fill="black"
 x="135.980075" y="248.030933">+</text>
<text font-size="8.8pt" stroke-width="0.266667"
 fill="black"
 x="154.666667" y="236.864"
><tspan font-style="italic">A<tspan font-size="70%"
dy="0.66ex" dx="">1</tspan><tspan
font-size="70%" dy="-0.66ex"
dx="-0.5ex"> </tspan></tspan></text>
<text font-size="8.8pt" stroke-width="0.266667"
 fill="black"
 text-anchor="end"
 x="176" y="259.162667">Nexus</text>
<text font-size="8.8pt" stroke-width="0.266667"
 fill="black"
 text-anchor="end"
 x="176" y="270.896">SQ-10A</text>
<polyline points="130.666667,220.698667 118.666667,220.698667
118.666667,196.698667
166.666667,196.698667" />
<circle fill="black"
 cx="166.666667" cy="196.698667" r="1.92" />
<polyline points="166.666667,196.698667 166.666667,172.698667
162.666667,170.698667
170.666667,166.698667
162.666667,162.698667
170.666667,158.698667
162.666667,154.698667
170.666667,150.698667
166.666667,148.698667
166.666667,124.698667" />
<text font-size="8.8pt" stroke-width="0.266667"
 fill="black"
 text-anchor="end"
 x="161.333333" y="158.616"
><tspan font-style="italic">R<tspan font-size="70%"
dy="0.66ex" dx="">14</tspan><tspan
font-size="70%" dy="-0.66ex"
dx="-0.5ex"> </tspan></tspan></text>
<text font-size="8.8pt" stroke-width="0.266667"
 fill="black"
 text-anchor="end"
 x="158.666667" y="171.112">19k&#937;</text>
<polyline points="166.666667,124.698667 166.666667,52.698667
106.666667,52.698667" />
<line x1="166.666667" y1="196.698667" x2="190.666667" y2="196.698667" />
<circle fill="black"
 cx="190.666667" cy="196.698667" r="1.92" />
<line x1="190.666667" y1="196.698667" x2="190.666667" y2="232.698667" />
<circle fill="black"
 cx="190.666667" cy="232.698667" r="1.92" />
<polyline points="190.666667,232.698667 190.666667,290.298667
194.666667,292.298667
186.666667,296.298667
194.666667,300.298667
186.666667,304.298667
194.666667,308.298667
186.666667,312.298667
190.666667,314.298667
190.666667,371.898667" />
<text font-size="8.8pt" stroke-width="0.266667"
 fill="black"
 text-anchor="start"
 x="196" y="300.216"
><tspan font-style="italic">R<tspan font-size="70%"
dy="0.66ex" dx="">13</tspan><tspan
font-size="70%" dy="-0.66ex"
dx="-0.5ex"> </tspan></tspan></text>
<text font-size="8.8pt" stroke-width="0.266667"
 fill="black"
 text-anchor="start"
 x="198.666667" y="312.712">91k&#937;</text>
<line x1="190.666667" y1="371.898667" x2="106.666667" y2="371.898667" />
<polyline points="190.666667,196.698667 202.666667,196.698667
204.666667,192.698667
208.666667,200.698667
212.666667,192.698667
216.666667,200.698667
220.666667,192.698667
224.666667,200.698667
226.666667,196.698667
238.666667,196.698667" />
<text font-size="8.8pt" stroke-width="0.266667"
 fill="black"
 text-anchor="start"
 x="201.333333" y="211.696"
><tspan font-style="italic">R<tspan font-size="70%"
dy="0.66ex" dx="">6</tspan><tspan
font-size="70%" dy="-0.66ex"
dx="-0.5ex"> </tspan></tspan></text>
<text font-size="8.8pt" stroke-width="0.266667"
 fill="black"
 text-anchor="start"
 x="204" y="224.192">15k&#937;</text>
<circle fill="black"
 cx="238.666667" cy="196.698667" r="1.92" />
<polyline points="238.666667,196.698667 238.666667,220.698667
250.666667,220.698667" />
<polyline points="250.666667,232.698667 250.666667,208.698667
298.666667,232.698667
250.666667,256.698667
250.666667,232.698667" />
<line x1="298.666667" y1="232.698667" x2="310.666667" y2="232.698667" />
<text font-size="8.8pt" stroke-width="0.266667"
 fill="black"
 x="255.980075" y="224.030933">-</text>
<text font-size="8.8pt" stroke-width="0.266667"
 fill="black"
 x="255.980075" y="248.030933">+</text>
<text font-size="8.8pt" stroke-width="0.266667"
 fill="black"
 x="274.666667" y="236.864"
><tspan font-style="italic">A<tspan font-size="70%"
dy="0.66ex" dx="">2</tspan><tspan
font-size="70%" dy="-0.66ex"
dx="-0.5ex"> </tspan></tspan></text>
<text font-size="8.8pt" stroke-width="0.266667"
 fill="black"
 text-anchor="end"
 x="296" y="259.162667">Nexus</text>
<text font-size="8.8pt" stroke-width="0.266667"
 fill="black"
 text-anchor="end"
 x="296" y="270.896">SQ-10A</text>
<line x1="250.666667" y1="244.698667" x2="238.666667" y2="244.698667" />
<line x1="238.666667" y1="244.698667" x2="238.666667" y2="256.698667" />
<line x1="246.666667" y1="256.698667" x2="230.666667" y2="256.698667" />
<line x1="244" y1="259.698667" x2="233.333333" y2="259.698667" />
<line x1="242.095238" y1="262.698667" x2="235.238095" y2="262.698667" />
<circle fill="black"
 cx="310.666667" cy="232.698667" r="1.92" />
<polyline points="357.466667,275.898667 357.466667,290.298667
356.403985,290.298667" />
<polyline points="357.466667,323.898667 357.466667,309.498667
356.403985,309.498667" />
<line x1="357.466667" y1="309.498667" x2="340.666667" y2="309.498667" />
<line x1="340.666667" y1="287.898667" x2="340.666667" y2="311.898667" />
<line x1="340.666667" y1="299.898667" x2="321.466667" y2="299.898667" />
<polygon stroke-width="0" fill="black"
 points="334.266667,302.565333 326.266667,299.898667
334.266667,297.232" />
<line x1="334.266667" y1="299.898667" x2="327.953215" y2="299.898667" />
<line x1="357.466667" y1="290.298667" x2="340.666667" y2="290.298667" />
<circle cx="340.666667" cy="299.898667" r="19.2" />
<text font-size="8.8pt" stroke-width="0.266667"
 fill="black"
 text-anchor="start"
 x="313.466667" y="267.568"
><tspan font-style="italic">Q<tspan font-size="70%"
dy="0.66ex" dx="">3</tspan><tspan
font-size="70%" dy="-0.66ex"
dx="-0.5ex"> </tspan></tspan></text>
<text font-size="8.8pt" stroke-width="0.266667"
 fill="black"
 text-anchor="start"
 x="316.133333" y="280.064">2N5464</text>
<line x1="357.466667" y1="323.898667" x2="369.466667" y2="323.898667" />
<polyline points="400.666667,347.898667 400.666667,338.298667
400.311111,338.138667" />
<polyline points="400.666667,299.898667 400.666667,309.498667
400.311111,309.658667" />
<line x1="381.466667" y1="333.498667" x2="381.466667" y2="314.298667" />
<line x1="369.466667" y1="323.898667" x2="381.466667" y2="323.898667" />
<line x1="400.666667" y1="338.298667" x2="381.466667" y2="329.658667" />
<polygon stroke-width="0" fill="black"
 points="389.6656,330.423959 395.866667,336.138667
387.476989,335.28754" />
<line x1="394.328667" y1="335.446567" x2="386.266667" y2="331.818667" />
<line x1="400.666667" y1="309.498667" x2="381.466667" y2="318.138667" />
<path d="M 369.466667,323.898667
 A 19.2 19.2 0 0 1 407.866667,323.898667" />
<line x1="407.866667" y1="323.898667" x2="407.866667" y2="323.898667" />
<path d="M 407.866667,323.898667
 A 19.2 19.2 0 1 1 369.466667,323.898667" />
<line x1="369.466667" y1="323.898667" x2="369.466667" y2="323.898667" />
<text font-size="8.8pt" stroke-width="0.266667"
 fill="black"
 text-anchor="start"
 x="406.533333" y="321.816"
><tspan font-style="italic">Q<tspan font-size="70%"
dy="0.66ex" dx="">4</tspan><tspan
font-size="70%" dy="-0.66ex"
dx="-0.5ex"> </tspan></tspan></text>
<text font-size="8.8pt" stroke-width="0.266667"
 fill="black"
 text-anchor="start"
 x="409.2" y="334.312">2N4239</text>
<circle fill="black"
 cx="400.666667" cy="275.898667" r="1.92" />
<polyline points="357.466667,275.898667 400.666667,275.898667
400.666667,299.898667" />
<polyline points="310.666667,232.698667 310.666667,299.898667
321.466667,299.898667" />
<line x1="400.666667" y1="347.898667" x2="400.666667" y2="419.898667" />
<circle fill="black"
 cx="400.666667" cy="419.898667" r="1.92" />
<line x1="400.666667" y1="251.898667" x2="400.666667" y2="260.434565" />
<polyline stroke-width="0" fill="black"
 points="400.666667,260.434565
404.666667,260.434565
400.666667,266.831427
396.666667,260.434565
400.666667,260.434565" />
<polyline points="400.666667,260.434565 404.666667,260.434565
400.666667,266.831427
396.666667,260.434565
400.666667,260.434565" />
<line x1="396.277698" y1="267.362768" x2="405.055635" y2="267.362768" />
<line x1="400.666667" y1="267.362768" x2="400.666667" y2="275.898667" />
<line x1="400.666667" y1="235.898667" x2="400.666667" y2="244.434565" />
<polyline stroke-width="0" fill="black"
 points="400.666667,244.434565
404.666667,244.434565
400.666667,250.831427
396.666667,244.434565
400.666667,244.434565" />
<polyline points="400.666667,244.434565 404.666667,244.434565
400.666667,250.831427
396.666667,244.434565
400.666667,244.434565" />
<line x1="396.277698" y1="251.362768" x2="405.055635" y2="251.362768" />
<line x1="400.666667" y1="251.362768" x2="400.666667" y2="259.898667" />
<text font-size="8.8pt" stroke-width="0.266667"
 fill="black"
 text-anchor="end"
 x="393.079691" y="240.330667">OMC-V</text>
<text font-size="8.8pt" stroke-width="0.266667"
 fill="black"
 text-anchor="end"
 x="393.079691" y="252.064"
><tspan font-style="italic">D<tspan font-size="70%"
dy="0.66ex" dx="">4</tspan><tspan
font-size="70%" dy="-0.66ex"
dx="-0.5ex"> </tspan></tspan></text>
<text font-size="8.8pt" stroke-width="0.266667"
 fill="black"
 text-anchor="end"
 x="393.079691" y="263.797333"
><tspan font-style="italic">D<tspan font-size="70%"
dy="0.66ex" dx="">3</tspan><tspan
font-size="70%" dy="-0.66ex"
dx="-0.5ex"> </tspan></tspan></text>
<polyline points="357.466667,100.698667 357.466667,115.098667
356.403985,115.098667" />
<polyline points="357.466667,148.698667 357.466667,134.298667
356.403985,134.298667" />
<line x1="357.466667" y1="134.298667" x2="340.666667" y2="134.298667" />
<line x1="340.666667" y1="112.698667" x2="340.666667" y2="136.698667" />
<polygon stroke-width="0" fill="black"
 points="332.666667,122.032 340.666667,124.698667
332.666667,127.365333" />
<line x1="321.466667" y1="124.698667" x2="338.980119" y2="124.698667" />
<line x1="357.466667" y1="115.098667" x2="340.666667" y2="115.098667" />
<circle cx="340.666667" cy="124.698667" r="19.2" />
<text font-size="8.8pt" stroke-width="0.266667"
 fill="black"
 text-anchor="start"
 x="320.133333" y="151.6144"
><tspan font-style="italic">Q<tspan font-size="70%"
dy="0.66ex" dx="">1</tspan><tspan
font-size="70%" dy="-0.66ex"
dx="-0.5ex"> </tspan></tspan></text>
<text font-size="8.8pt" stroke-width="0.266667"
 fill="black"
 text-anchor="start"
 x="322.8" y="164.1104">2N3819</text>
<line x1="357.466667" y1="100.698667" x2="369.466667" y2="100.698667" />
<polyline points="400.666667,76.698667 400.666667,86.298667
400.311111,86.458667" />
<polyline points="400.666667,124.698667 400.666667,115.098667
400.311111,114.938667" />
<line x1="381.466667" y1="91.098667" x2="381.466667" y2="110.298667" />
<line x1="369.466667" y1="100.698667" x2="381.466667" y2="100.698667" />
<line x1="400.666667" y1="86.298667" x2="381.466667" y2="94.938667" />
<polygon stroke-width="0" fill="black"
 points="394.656345,91.92754 386.266667,92.778667
392.467733,87.063959" />
<line x1="395.866667" y1="88.458667" x2="387.804666" y2="92.086567" />
<line x1="400.666667" y1="115.098667" x2="381.466667" y2="106.458667" />
<path d="M 369.466667,100.698667
 A 19.2 19.2 0 0 0 407.866667,100.698667" />
<line x1="407.866667" y1="100.698667" x2="407.866667" y2="100.698667" />
<path d="M 407.866667,100.698667
 A 19.2 19.2 0 0 0 369.466667,100.698667" />
<line x1="369.466667" y1="100.698667" x2="369.466667" y2="100.698667" />
<text font-size="8.8pt" stroke-width="0.266667"
 fill="black"
 text-anchor="start"
 x="407.866667" y="98.616"
><tspan font-style="italic">Q<tspan font-size="70%"
dy="0.66ex" dx="">2</tspan><tspan
font-size="70%" dy="-0.66ex"
dx="-0.5ex"> </tspan></tspan></text>
<text font-size="8.8pt" stroke-width="0.266667"
 fill="black"
 text-anchor="start"
 x="410.533333" y="111.112">2N4236</text>
<circle fill="black"
 cx="400.666667" cy="148.698667" r="1.92" />
<polyline points="357.466667,148.698667 400.666667,148.698667
400.666667,124.698667" />
<line x1="400.666667" y1="148.698667" x2="400.666667" y2="157.234565" />
<polyline stroke-width="0" fill="black"
 points="400.666667,157.234565
404.666667,157.234565
400.666667,163.631427
396.666667,157.234565
400.666667,157.234565" />
<polyline points="400.666667,157.234565 404.666667,157.234565
400.666667,163.631427
396.666667,157.234565
400.666667,157.234565" />
<line x1="396.277698" y1="164.162768" x2="405.055635" y2="164.162768" />
<line x1="400.666667" y1="164.162768" x2="400.666667" y2="172.698667" />
<line x1="400.666667" y1="164.698667" x2="400.666667" y2="173.234565" />
<polyline stroke-width="0" fill="black"
 points="400.666667,173.234565
404.666667,173.234565
400.666667,179.631427
396.666667,173.234565
400.666667,173.234565" />
<polyline points="400.666667,173.234565 404.666667,173.234565
400.666667,179.631427
396.666667,173.234565
400.666667,173.234565" />
<line x1="396.277698" y1="180.162768" x2="405.055635" y2="180.162768" />
<line x1="400.666667" y1="180.162768" x2="400.666667" y2="188.698667" />
<text font-size="8.8pt" stroke-width="0.266667"
 fill="black"
 text-anchor="end"
 x="393.079691" y="169.130667"
><tspan font-style="italic">D<tspan font-size="70%"
dy="0.66ex" dx="">1</tspan><tspan
font-size="70%" dy="-0.66ex"
dx="-0.5ex"> </tspan></tspan></text>
<text font-size="8.8pt" stroke-width="0.266667"
 fill="black"
 text-anchor="end"
 x="393.079691" y="180.864"
><tspan font-style="italic">D<tspan font-size="70%"
dy="0.66ex" dx="">2</tspan><tspan
font-size="70%" dy="-0.66ex"
dx="-0.5ex"> </tspan></tspan></text>
<text font-size="8.8pt" stroke-width="0.266667"
 fill="black"
 text-anchor="end"
 x="393.079691" y="192.597333">OMC-V</text>
<circle fill="black"
 cx="400.666667" cy="232.698667" r="1.92" />
<line x1="400.666667" y1="232.698667" x2="400.666667" y2="188.698667" />
<polyline points="321.466667,124.698667 310.666667,124.698667
310.666667,232.698667" />
<line x1="400.666667" y1="76.698667" x2="400.666667" y2="4.698667" />
<circle fill="black"
 cx="400.666667" cy="4.698667" r="1.92" />
<circle fill="black"
 cx="448.666667" cy="232.698667" r="1.92" />
<polyline points="496.666667,275.898667 496.666667,290.298667
495.603985,290.298667" />
<polyline points="496.666667,323.898667 496.666667,309.498667
495.603985,309.498667" />
<line x1="496.666667" y1="309.498667" x2="479.866667" y2="309.498667" />
<line x1="479.866667" y1="287.898667" x2="479.866667" y2="311.898667" />
<line x1="479.866667" y1="299.898667" x2="460.666667" y2="299.898667" />
<polygon stroke-width="0" fill="black"
 points="473.466667,302.565333 465.466667,299.898667
473.466667,297.232" />
<line x1="473.466667" y1="299.898667" x2="467.153215" y2="299.898667" />
<line x1="496.666667" y1="290.298667" x2="479.866667" y2="290.298667" />
<circle cx="479.866667" cy="299.898667" r="19.2" />
<text font-size="8.8pt" stroke-width="0.266667"
 fill="black"
 text-anchor="start"
 x="452.666667" y="267.568"
><tspan font-style="italic">Q<tspan font-size="70%"
dy="0.66ex" dx="">7</tspan><tspan
font-size="70%" dy="-0.66ex"
dx="-0.5ex"> </tspan></tspan></text>
<text font-size="8.8pt" stroke-width="0.266667"
 fill="black"
 text-anchor="start"
 x="455.333333" y="280.064">2N5464</text>
<line x1="496.666667" y1="323.898667" x2="508.666667" y2="323.898667" />
<polyline points="539.866667,347.898667 539.866667,338.298667
539.511111,338.138667" />
<polyline points="539.866667,299.898667 539.866667,309.498667
539.511111,309.658667" />
<line x1="520.666667" y1="333.498667" x2="520.666667" y2="314.298667" />
<line x1="508.666667" y1="323.898667" x2="520.666667" y2="323.898667" />
<line x1="539.866667" y1="338.298667" x2="520.666667" y2="329.658667" />
<polygon stroke-width="0" fill="black"
 points="528.8656,330.423959 535.066667,336.138667
526.676989,335.28754" />
<line x1="533.528667" y1="335.446567" x2="525.466667" y2="331.818667" />
<line x1="539.866667" y1="309.498667" x2="520.666667" y2="318.138667" />
<path d="M 508.666667,323.898667
 A 19.2 19.2 0 0 1 547.066667,323.898667" />
<line x1="547.066667" y1="323.898667" x2="547.066667" y2="323.898667" />
<path d="M 547.066667,323.898667
 A 19.2 19.2 0 1 1 508.666667,323.898667" />
<line x1="508.666667" y1="323.898667" x2="508.666667" y2="323.898667" />
<text font-size="8.8pt" stroke-width="0.266667"
 fill="black"
 text-anchor="start"
 x="545.733333" y="321.816"
><tspan font-style="italic">Q<tspan font-size="70%"
dy="0.66ex" dx="">8</tspan><tspan
font-size="70%" dy="-0.66ex"
dx="-0.5ex"> </tspan></tspan></text>
<text font-size="8.8pt" stroke-width="0.266667"
 fill="black"
 text-anchor="start"
 x="548.4" y="334.312">2N4239</text>
<circle fill="black"
 cx="539.866667" cy="275.898667" r="1.92" />
<polyline points="496.666667,275.898667 539.866667,275.898667
539.866667,299.898667" />
<circle fill="black"
 cx="539.866667" cy="347.898667" r="1.92" />
<line x1="539.866667" y1="347.898667" x2="137.866667" y2="347.898667" />
<polyline points="496.666667,100.698667 496.666667,115.098667
495.603985,115.098667" />
<polyline points="496.666667,148.698667 496.666667,134.298667
495.603985,134.298667" />
<line x1="496.666667" y1="134.298667" x2="479.866667" y2="134.298667" />
<line x1="479.866667" y1="112.698667" x2="479.866667" y2="136.698667" />
<polygon stroke-width="0" fill="black"
 points="471.866667,122.032 479.866667,124.698667
471.866667,127.365333" />
<line x1="460.666667" y1="124.698667" x2="478.180119" y2="124.698667" />
<line x1="496.666667" y1="115.098667" x2="479.866667" y2="115.098667" />
<circle cx="479.866667" cy="124.698667" r="19.2" />
<text font-size="8.8pt" stroke-width="0.266667"
 fill="black"
 text-anchor="start"
 x="459.333333" y="151.6144"
><tspan font-style="italic">Q<tspan font-size="70%"
dy="0.66ex" dx="">5</tspan><tspan
font-size="70%" dy="-0.66ex"
dx="-0.5ex"> </tspan></tspan></text>
<text font-size="8.8pt" stroke-width="0.266667"
 fill="black"
 text-anchor="start"
 x="462" y="164.1104">2N3819</text>
<line x1="496.666667" y1="100.698667" x2="508.666667" y2="100.698667" />
<polyline points="539.866667,76.698667 539.866667,86.298667
539.511111,86.458667" />
<polyline points="539.866667,124.698667 539.866667,115.098667
539.511111,114.938667" />
<line x1="520.666667" y1="91.098667" x2="520.666667" y2="110.298667" />
<line x1="508.666667" y1="100.698667" x2="520.666667" y2="100.698667" />
<line x1="539.866667" y1="86.298667" x2="520.666667" y2="94.938667" />
<polygon stroke-width="0" fill="black"
 points="533.856345,91.92754 525.466667,92.778667
531.667733,87.063959" />
<line x1="535.066667" y1="88.458667" x2="527.004666" y2="92.086567" />
<line x1="539.866667" y1="115.098667" x2="520.666667" y2="106.458667" />
<path d="M 508.666667,100.698667
 A 19.2 19.2 0 0 0 547.066667,100.698667" />
<line x1="547.066667" y1="100.698667" x2="547.066667" y2="100.698667" />
<path d="M 547.066667,100.698667
 A 19.2 19.2 0 0 0 508.666667,100.698667" />
<line x1="508.666667" y1="100.698667" x2="508.666667" y2="100.698667" />
<text font-size="8.8pt" stroke-width="0.266667"
 fill="black"
 text-anchor="start"
 x="547.066667" y="98.616"
><tspan font-style="italic">Q<tspan font-size="70%"
dy="0.66ex" dx="">6</tspan><tspan
font-size="70%" dy="-0.66ex"
dx="-0.5ex"> </tspan></tspan></text>
<text font-size="8.8pt" stroke-width="0.266667"
 fill="black"
 text-anchor="start"
 x="549.733333" y="111.112">2N4236</text>
<circle fill="black"
 cx="539.866667" cy="148.698667" r="1.92" />
<polyline points="496.666667,148.698667 539.866667,148.698667
539.866667,124.698667" />
<circle fill="black"
 cx="539.866667" cy="76.698667" r="1.92" />
<line x1="539.866667" y1="76.698667" x2="137.866667" y2="76.698667" />
<polyline points="460.666667,299.898667 448.666667,299.898667
448.666667,124.698667
460.666667,124.698667" />
<polyline points="539.866667,148.698667 539.866667,160.698667
543.866667,162.698667
535.866667,166.698667
543.866667,170.698667
535.866667,174.698667
543.866667,178.698667
535.866667,182.698667
539.866667,184.698667
539.866667,196.698667" />
<text font-size="8.8pt" stroke-width="0.266667"
 fill="black"
 text-anchor="end"
 x="534.533333" y="170.616"
><tspan font-style="italic">R<tspan font-size="70%"
dy="0.66ex" dx="">11</tspan><tspan
font-size="70%" dy="-0.66ex"
dx="-0.5ex"> </tspan></tspan></text>
<text font-size="8.8pt" stroke-width="0.266667"
 fill="black"
 text-anchor="end"
 x="531.866667" y="183.112">20&#937;</text>
<line x1="539.866667" y1="275.898667" x2="539.866667" y2="257.762768" />
<polyline stroke-width="0" fill="black"
 points="539.866667,257.762768
535.866667,257.762768
539.866667,251.365906
543.866667,257.762768
539.866667,257.762768" />
<polyline points="539.866667,257.762768 535.866667,257.762768
539.866667,251.365906
543.866667,257.762768
539.866667,257.762768" />
<polyline points="544.255635,252.834565 544.255635,250.834565
535.477698,250.834565
535.477698,248.834565" />
<line x1="539.866667" y1="250.834565" x2="539.866667" y2="232.698667" />
<text font-size="8.8pt" stroke-width="0.266667"
 fill="black"
 text-anchor="end"
 x="533.613024" y="251.48167"
><tspan font-style="italic">D<tspan font-size="70%"
dy="0.66ex" dx="">5</tspan><tspan
font-size="70%" dy="-0.66ex"
dx="-0.5ex"> </tspan></tspan></text>
<text font-size="8.8pt" stroke-width="0.266667"
 fill="black"
 text-anchor="end"
 x="530.946357" y="263.97767">1N4729</text>
<line x1="539.866667" y1="232.698667" x2="539.866667" y2="196.698667" />
<line x1="539.866667" y1="275.898667" x2="568.666667" y2="275.898667" />
<line x1="568.666667" y1="281.898667" x2="568.666667" y2="269.898667" />
<path d="M 573.466667,281.898667
 A 12 12 0 0 1 573.466667,269.898667" />
<line x1="571.858972" y1="275.898667" x2="602.266667" y2="275.898667" />
<text font-size="8.8pt" stroke-width="0.266667"
 fill="black"
 x="571.066667" y="267.232"
><tspan font-style="italic">C<tspan font-size="70%"
dy="0.66ex" dx="">4</tspan><tspan
font-size="70%" dy="-0.66ex"
dx="-0.5ex"> </tspan></tspan></text>
<text font-size="8.8pt" stroke-width="0.266667"
 fill="black"
 x="571.066667" y="292.896">0.68&#956;F</text>
<line x1="539.866667" y1="148.698667" x2="568.666667" y2="148.698667" />
<line x1="568.666667" y1="154.698667" x2="568.666667" y2="142.698667" />
<path d="M 573.466667,154.698667
 A 12 12 0 0 1 573.466667,142.698667" />
<line x1="571.858972" y1="148.698667" x2="602.266667" y2="148.698667" />
<text font-size="8.8pt" stroke-width="0.266667"
 fill="black"
 x="571.066667" y="140.032"
><tspan font-style="italic">C<tspan font-size="70%"
dy="0.66ex" dx="">3</tspan><tspan
font-size="70%" dy="-0.66ex"
dx="-0.5ex"> </tspan></tspan></text>
<text font-size="8.8pt" stroke-width="0.266667"
 fill="black"
 x="571.066667" y="165.696">0.68&#956;F</text>
<circle fill="black"
 cx="602.266667" cy="148.698667" r="1.92" />
<circle fill="black"
 cx="602.266667" cy="196.698667" r="1.92" />
<line x1="539.866667" y1="196.698667" x2="568.666667" y2="196.698667" />
<line x1="568.666667" y1="202.698667" x2="568.666667" y2="190.698667" />
<path d="M 573.466667,202.698667
 A 12 12 0 0 1 573.466667,190.698667" />
<line x1="571.858972" y1="196.698667" x2="602.266667" y2="196.698667" />
<text font-size="8.8pt" stroke-width="0.266667"
 fill="black"
 x="571.066667" y="188.032"
><tspan font-style="italic">C<tspan font-size="70%"
dy="0.66ex" dx="">2</tspan><tspan
font-size="70%" dy="-0.66ex"
dx="-0.5ex"> </tspan></tspan></text>
<text font-size="8.8pt" stroke-width="0.266667"
 fill="black"
 x="571.066667" y="213.696">0.1&#956;F</text>
<line x1="539.866667" y1="196.698667" x2="238.666667" y2="196.698667" />
<polyline points="238.666667,196.698667 238.666667,148.698667
234.666667,146.698667
242.666667,142.698667
234.666667,138.698667
242.666667,134.698667
234.666667,130.698667
242.666667,126.698667
238.666667,124.698667
238.666667,76.698667" />
<text font-size="8.8pt" stroke-width="0.266667"
 fill="black"
 text-anchor="start"
 x="244" y="134.616"
><tspan font-style="italic">R<tspan font-size="70%"
dy="0.66ex" dx="">5</tspan><tspan
font-size="70%" dy="-0.66ex"
dx="-0.5ex"> </tspan></tspan></text>
<text font-size="8.8pt" stroke-width="0.266667"
 fill="black"
 text-anchor="start"
 x="246.666667" y="147.112">100k&#937;</text>
<circle fill="black"
 cx="238.666667" cy="100.698667" r="1.92" />
<line x1="238.666667" y1="100.698667" x2="214.666667" y2="100.698667" />
<line x1="214.666667" y1="100.698667" x2="214.666667" y2="122.298667" />
<line x1="208.666667" y1="122.298667" x2="220.666667" y2="122.298667" />
<path d="M 208.666667,127.098667
 A 12 12 0 0 1 220.666667,127.098667" />
<line x1="214.666667" y1="125.490972" x2="214.666667" y2="148.698667" />
<text font-size="8.8pt" stroke-width="0.266667"
 fill="black"
 text-anchor="end"
 x="207.333333" y="122.616"
><tspan font-style="italic">C<tspan font-size="70%"
dy="0.66ex" dx="">1</tspan><tspan
font-size="70%" dy="-0.66ex"
dx="-0.5ex"> </tspan></tspan></text>
<text font-size="8.8pt" stroke-width="0.266667"
 fill="black"
 text-anchor="end"
 x="204.666667" y="135.112">1&#956;F</text>
<line x1="222.666667" y1="148.698667" x2="206.666667" y2="148.698667" />
<line x1="220" y1="151.698667" x2="209.333333" y2="151.698667" />
<line x1="218.095238" y1="154.698667" x2="211.238095" y2="154.698667" />
<line x1="539.866667" y1="76.698667" x2="539.866667" y2="52.698667" />
<polyline points="539.866667,52.698667 539.866667,40.698667
535.866667,38.698667
543.866667,34.698667
535.866667,30.698667
543.866667,26.698667
535.866667,22.698667
543.866667,18.698667
539.866667,16.698667
539.866667,4.698667" />
<text font-size="8.8pt" stroke-width="0.266667"
 fill="black"
 text-anchor="start"
 x="545.2" y="26.616"
><tspan font-style="italic">R<tspan font-size="70%"
dy="0.66ex" dx="">9</tspan><tspan
font-size="70%" dy="-0.66ex"
dx="-0.5ex"> </tspan></tspan></text>
<text font-size="8.8pt" stroke-width="0.266667"
 fill="black"
 text-anchor="start"
 x="547.866667" y="39.112">910&#937;</text>
<circle fill="black"
 cx="539.866667" cy="4.698667" r="1.92" />
<polyline points="539.866667,347.898667 539.866667,371.898667
543.866667,373.898667
535.866667,377.898667
543.866667,381.898667
535.866667,385.898667
543.866667,389.898667
535.866667,393.898667
539.866667,395.898667
539.866667,419.898667" />
<text font-size="8.8pt" stroke-width="0.266667"
 fill="black"
 text-anchor="start"
 x="545.2" y="381.816"
><tspan font-style="italic">R<tspan font-size="70%"
dy="0.66ex" dx="">10</tspan><tspan
font-size="70%" dy="-0.66ex"
dx="-0.5ex"> </tspan></tspan></text>
<text font-size="8.8pt" stroke-width="0.266667"
 fill="black"
 text-anchor="start"
 x="547.866667" y="394.312">910&#937;</text>
<circle fill="black"
 cx="539.866667" cy="419.898667" r="1.92" />
<line x1="238.666667" y1="76.698667" x2="238.666667" y2="52.698667" />
<polyline points="238.666667,52.698667 262.666667,52.698667
264.666667,48.698667
268.666667,56.698667
272.666667,48.698667
276.666667,56.698667
280.666667,48.698667
284.666667,56.698667
286.666667,52.698667
310.666667,52.698667" />
<text font-size="8.8pt" stroke-width="0.266667"
 fill="black"
 text-anchor="start"
 x="261.333333" y="34.869333"
><tspan font-style="italic">R<tspan font-size="70%"
dy="0.66ex" dx="">4</tspan><tspan
font-size="70%" dy="-0.66ex"
dx="-0.5ex"> </tspan></tspan></text>
<text font-size="8.8pt" stroke-width="0.266667"
 fill="black"
 text-anchor="start"
 x="264" y="47.365333">100k&#937;</text>
<polyline points="310.666667,52.698667 602.266667,52.698667
602.266667,275.898667" />
<polyline points="703.066667,275.898667 703.066667,290.298667
704.129348,290.298667" />
<polyline points="703.066667,323.898667 703.066667,309.498667
704.129348,309.498667" />
<line x1="703.066667" y1="309.498667" x2="719.866667" y2="309.498667" />
<line x1="719.866667" y1="287.898667" x2="719.866667" y2="311.898667" />
<line x1="719.866667" y1="299.898667" x2="739.066667" y2="299.898667" />
<polygon stroke-width="0" fill="black"
 points="726.266667,297.232 734.266667,299.898667
726.266667,302.565333" />
<line x1="726.266667" y1="299.898667" x2="732.580119" y2="299.898667" />
<line x1="703.066667" y1="290.298667" x2="719.866667" y2="290.298667" />
<circle cx="719.866667" cy="299.898667" r="19.2" />
<text font-size="8.8pt" stroke-width="0.266667"
 fill="black"
 text-anchor="start"
 x="706" y="267.568"
><tspan font-style="italic">Q<tspan font-size="70%"
dy="0.66ex" dx="">11</tspan><tspan
font-size="70%" dy="-0.66ex"
dx="-0.5ex"> </tspan></tspan></text>
<text font-size="8.8pt" stroke-width="0.266667"
 fill="black"
 text-anchor="start"
 x="708.666667" y="280.064">2N5464</text>
<line x1="703.066667" y1="323.898667" x2="691.066667" y2="323.898667" />
<polyline points="659.866667,347.898667 659.866667,338.298667
660.222222,338.138667" />
<polyline points="659.866667,299.898667 659.866667,309.498667
660.222222,309.658667" />
<line x1="679.066667" y1="333.498667" x2="679.066667" y2="314.298667" />
<line x1="691.066667" y1="323.898667" x2="679.066667" y2="323.898667" />
<line x1="659.866667" y1="338.298667" x2="679.066667" y2="329.658667" />
<polygon stroke-width="0" fill="black"
 points="673.056345,335.28754 664.666667,336.138667
670.867733,330.423959" />
<line x1="666.204666" y1="335.446567" x2="674.266667" y2="331.818667" />
<line x1="659.866667" y1="309.498667" x2="679.066667" y2="318.138667" />
<path d="M 691.066667,323.898667
 A 19.2 19.2 0 0 0 652.666667,323.898667" />
<line x1="652.666667" y1="323.898667" x2="652.666667" y2="323.898667" />
<path d="M 652.666667,323.898667
 A 19.2 19.2 0 0 0 691.066667,323.898667" />
<line x1="691.066667" y1="323.898667" x2="691.066667" y2="323.898667" />
<text font-size="8.8pt" stroke-width="0.266667"
 fill="black"
 text-anchor="end"
 x="654" y="321.816"
><tspan font-style="italic">Q<tspan font-size="70%"
dy="0.66ex" dx="">10</tspan><tspan
font-size="70%" dy="-0.66ex"
dx="-0.5ex"> </tspan></tspan></text>
<text font-size="8.8pt" stroke-width="0.266667"
 fill="black"
 text-anchor="end"
 x="651.333333" y="334.312">2N4239</text>
<circle fill="black"
 cx="659.866667" cy="275.898667" r="1.92" />
<polyline points="703.066667,275.898667 659.866667,275.898667
659.866667,299.898667" />
<line x1="659.866667" y1="347.898667" x2="659.866667" y2="419.898667" />
<circle fill="black"
 cx="659.866667" cy="419.898667" r="1.92" />
<line x1="106.666667" y1="419.898667" x2="683.866667" y2="419.898667" />
<circle fill="white"
 cx="683.866667" cy="419.898667" r="1.92" />
<text font-size="8.8pt" stroke-width="0.266667"
 fill="black"
 text-anchor="start"
 x="688.453333" y="424.064"
><tspan font-style="italic">-E<tspan font-size="70%"
dy="0.66ex" dx="">CC</tspan><tspan
font-size="70%" dy="-0.66ex"
dx="-0.5ex"> </tspan></tspan></text>
<line x1="659.866667" y1="275.898667" x2="659.866667" y2="257.762768" />
<polyline stroke-width="0" fill="black"
 points="659.866667,257.762768
655.866667,257.762768
659.866667,251.365906
663.866667,257.762768
659.866667,257.762768" />
<polyline points="659.866667,257.762768 655.866667,257.762768
659.866667,251.365906
663.866667,257.762768
659.866667,257.762768" />
<polyline points="664.255635,252.834565 664.255635,250.834565
655.477698,250.834565
655.477698,248.834565" />
<line x1="659.866667" y1="250.834565" x2="659.866667" y2="232.698667" />
<text font-size="8.8pt" stroke-width="0.266667"
 fill="black"
 text-anchor="end"
 x="653.613024" y="251.48167"
><tspan font-style="italic">D<tspan font-size="70%"
dy="0.66ex" dx="">6</tspan><tspan
font-size="70%" dy="-0.66ex"
dx="-0.5ex"> </tspan></tspan></text>
<text font-size="8.8pt" stroke-width="0.266667"
 fill="black"
 text-anchor="end"
 x="650.946357" y="263.97767">1N4728</text>
<polyline points="703.066667,100.698667 703.066667,115.098667
704.129348,115.098667" />
<polyline points="703.066667,148.698667 703.066667,134.298667
704.129348,134.298667" />
<line x1="703.066667" y1="134.298667" x2="719.866667" y2="134.298667" />
<line x1="719.866667" y1="112.698667" x2="719.866667" y2="136.698667" />
<polygon stroke-width="0" fill="black"
 points="727.866667,127.365333 719.866667,124.698667
727.866667,122.032" />
<line x1="739.066667" y1="124.698667" x2="721.553215" y2="124.698667" />
<line x1="703.066667" y1="115.098667" x2="719.866667" y2="115.098667" />
<circle cx="719.866667" cy="124.698667" r="19.2" />
<text font-size="8.8pt" stroke-width="0.266667"
 fill="black"
 text-anchor="start"
 x="704.666667" y="151.6144"
><tspan font-style="italic">Q<tspan font-size="70%"
dy="0.66ex" dx="">12</tspan><tspan
font-size="70%" dy="-0.66ex"
dx="-0.5ex"> </tspan></tspan></text>
<text font-size="8.8pt" stroke-width="0.266667"
 fill="black"
 text-anchor="start"
 x="707.333333" y="164.1104">2N3819</text>
<line x1="703.066667" y1="100.698667" x2="691.066667" y2="100.698667" />
<polyline points="659.866667,76.698667 659.866667,86.298667
660.222222,86.458667" />
<polyline points="659.866667,124.698667 659.866667,115.098667
660.222222,114.938667" />
<line x1="679.066667" y1="91.098667" x2="679.066667" y2="110.298667" />
<line x1="691.066667" y1="100.698667" x2="679.066667" y2="100.698667" />
<line x1="659.866667" y1="86.298667" x2="679.066667" y2="94.938667" />
<polygon stroke-width="0" fill="black"
 points="668.0656,87.063959 674.266667,92.778667
665.876989,91.92754" />
<line x1="664.666667" y1="88.458667" x2="672.728667" y2="92.086567" />
<line x1="659.866667" y1="115.098667" x2="679.066667" y2="106.458667" />
<path d="M 691.066667,100.698667
 A 19.2 19.2 0 0 1 652.666667,100.698667" />
<line x1="652.666667" y1="100.698667" x2="652.666667" y2="100.698667" />
<path d="M 652.666667,100.698667
 A 19.2 19.2 0 0 1 691.066667,100.698667" />
<line x1="691.066667" y1="100.698667" x2="691.066667" y2="100.698667" />
<text font-size="8.8pt" stroke-width="0.266667"
 fill="black"
 text-anchor="end"
 x="652.666667" y="98.616"
><tspan font-style="italic">Q<tspan font-size="70%"
dy="0.66ex" dx="">9</tspan><tspan
font-size="70%" dy="-0.66ex"
dx="-0.5ex"> </tspan></tspan></text>
<text font-size="8.8pt" stroke-width="0.266667"
 fill="black"
 text-anchor="end"
 x="650" y="111.112">2N4236</text>
<circle fill="black"
 cx="659.866667" cy="148.698667" r="1.92" />
<polyline points="703.066667,148.698667 659.866667,148.698667
659.866667,124.698667" />
<line x1="659.866667" y1="76.698667" x2="659.866667" y2="4.698667" />
<circle fill="black"
 cx="659.866667" cy="4.698667" r="1.92" />
<line x1="106.666667" y1="4.698667" x2="683.866667" y2="4.698667" />
<circle fill="white"
 cx="683.866667" cy="4.698667" r="1.92" />
<text font-size="8.8pt" stroke-width="0.266667"
 fill="black"
 text-anchor="start"
 x="688.453333" y="8.864"
><tspan font-style="italic">E<tspan font-size="70%"
dy="0.66ex" dx="">CC</tspan><tspan
font-size="70%" dy="-0.66ex"
dx="-0.5ex"> </tspan></tspan></text>
<polyline points="659.866667,148.698667 659.866667,160.698667
663.866667,162.698667
655.866667,166.698667
663.866667,170.698667
655.866667,174.698667
663.866667,178.698667
655.866667,182.698667
659.866667,184.698667
659.866667,196.698667" />
<text font-size="8.8pt" stroke-width="0.266667"
 fill="black"
 text-anchor="end"
 x="654.533333" y="170.616"
><tspan font-style="italic">R<tspan font-size="70%"
dy="0.66ex" dx="">12</tspan><tspan
font-size="70%" dy="-0.66ex"
dx="-0.5ex"> </tspan></tspan></text>
<text font-size="8.8pt" stroke-width="0.266667"
 fill="black"
 text-anchor="end"
 x="651.866667" y="183.112">20&#937;</text>
<circle fill="black"
 cx="659.866667" cy="196.698667" r="1.92" />
<line x1="659.866667" y1="196.698667" x2="602.266667" y2="196.698667" />
<line x1="659.866667" y1="196.698667" x2="659.866667" y2="232.698667" />
<circle fill="black"
 cx="751.066667" cy="172.698667" r="1.92" />
<polyline points="739.066667,124.698667 751.066667,124.698667
751.066667,299.898667
739.066667,299.898667" />
<line x1="775.066667" y1="172.698667" x2="751.066667" y2="172.698667" />
<polygon stroke-width="0" fill="black"
 points="767.866667,175.098667 758.266667,172.698667
767.866667,170.298667" />
<line x1="767.866667" y1="172.698667" x2="760.465656" y2="172.698667" />
<text font-size="8.8pt" stroke-width="0.266667"
 fill="black"
 x="763.066667" y="167.632"
>i<tspan font-size="70%"
dy="0.66ex" dx="">2</tspan><tspan
font-size="70%" dy="-0.66ex"
dx="-0.5ex"> </tspan></text>
<circle fill="white"
 cx="775.066667" cy="172.698667" r="1.92" />
<circle fill="white"
 cx="775.066667" cy="220.698667" r="1.92" />
<text font-size="8.8pt" stroke-width="0.266667"
 fill="black"
 text-anchor="start"
 x="777.733333" y="182.476444">+</text>
<text font-size="8.8pt" stroke-width="0.266667"
 fill="black"
 text-anchor="start"
 x="777.733333" y="200.864"
>V<tspan font-size="70%"
dy="0.66ex" dx="">2</tspan><tspan
font-size="70%" dy="-0.66ex"
dx="-0.5ex"> </tspan></text>
<text font-size="8.8pt" stroke-width="0.266667"
 fill="black"
 text-anchor="start"
 x="777.733333" y="219.251556">-</text>
<line x1="775.066667" y1="222.618667" x2="775.066667" y2="232.698667" />
<line x1="783.066667" y1="232.698667" x2="767.066667" y2="232.698667" />
<line x1="780.4" y1="235.698667" x2="769.733333" y2="235.698667" />
<line x1="778.495238" y1="238.698667" x2="771.638095" y2="238.698667" />
<circle fill="black"
 cx="751.066667" cy="232.698667" r="1.92" />
<polyline points="751.066667,232.698667 717.466667,232.698667
715.466667,236.698667
711.466667,228.698667
707.466667,236.698667
703.466667,228.698667
699.466667,236.698667
695.466667,228.698667
693.466667,232.698667
659.866667,232.698667" />
<text font-size="8.8pt" stroke-width="0.266667"
 fill="black"
 text-anchor="start"
 x="692.133333" y="213.536"
><tspan font-style="italic">R<tspan font-size="70%"
dy="0.66ex" dx="">15</tspan><tspan
font-size="70%" dy="-0.66ex"
dx="-0.5ex"> </tspan></tspan></text>
<text font-size="8.8pt" stroke-width="0.266667"
 fill="black"
 text-anchor="start"
 x="694.8" y="226.032">200&#937;</text>
<line x1="659.866667" y1="232.698667" x2="400.666667" y2="232.698667" />
<circle fill="black"
 cx="400.666667" cy="232.698667" r="1.92" />
</g>
</g></svg>
