<?xml version="1.0" encoding="UTF-8" standalone="no"?>
<!DOCTYPE svg PUBLIC "-//W3C//DTD SVG 1.1//EN"
"http://www.w3.org/Graphics/SVG/1.1/DTD/svg11.dtd">
<!-- Creator: dpic version 2022.12.01 option -v for SVG 1.1 -->
<!-- width="606" height="592" -->
<svg
 xmlns="http://www.w3.org/2000/svg" xmlns:xlink="http://www.w3.org/1999/xlink"
 xml:space="preserve"
 style="shape-rendering:geometricPrecision; text-rendering:geometricPrecision;
 image-rendering:optimizeQuality; fill-rule:evenodd; clip-rule:evenodd"
 width="605.2px" height="590.666667px"
 viewBox="0 0 605.2 590.666667"
 font-size="11pt" text-anchor="middle"
 stroke="black" stroke-miterlimit="10" stroke-width="1.066667" fill="none">
<g>
<g style="font-family:sans-serif"
>
<circle fill="black"
 cx="153.466667" cy="84.666667" r="1.92" />
<line x1="153.466667" y1="84.666667" x2="153.466667" y2="56.666667" />
<line x1="153.466667" y1="56.666667" x2="141.466667" y2="44.666667" />
<line x1="153.466667" y1="40.666667" x2="153.466667" y2="12.666667" />
<text font-size="10pt" stroke-width="0.266667"
 fill="black"
 x="153.466667" y="10">Public supply</text>
<line stroke-width="2.133333"
 x1="33.466667" y1="84.666667" x2="273.466667" y2="84.666667" />
<circle fill="black"
 cx="43.066667" cy="84.666667" r="1.92" />
<circle fill="black"
 cx="87.226667" cy="84.666667" r="1.92" />
<circle fill="black"
 cx="131.386667" cy="84.666667" r="1.92" />
<circle fill="black"
 cx="175.546667" cy="84.666667" r="1.92" />
<circle fill="black"
 cx="219.706667" cy="84.666667" r="1.92" />
<circle fill="black"
 cx="263.866667" cy="84.666667" r="1.92" />
<text font-size="10pt" stroke-width="0.266667"
 fill="black"
 text-anchor="start"
 x="36.133333" y="82"><tspan font-size="66%">20 kV</tspan></text>
<line x1="43.066667" y1="156.666667" x2="43.066667" y2="128.666667" />
<line x1="43.066667" y1="128.666667" x2="31.066667" y2="116.666667" />
<line x1="43.066667" y1="112.666667" x2="43.066667" y2="84.666667" />
<line x1="87.226667" y1="156.666667" x2="87.226667" y2="128.666667" />
<line x1="87.226667" y1="128.666667" x2="75.226667" y2="116.666667" />
<line x1="87.226667" y1="112.666667" x2="87.226667" y2="84.666667" />
<line x1="131.386667" y1="84.666667" x2="131.386667" y2="93.366667" />
<circle cx="131.386667" cy="108.966667" r="15.6" />
<circle cx="131.386667" cy="132.366667" r="15.6" />
<line x1="131.386667" y1="147.966667" x2="131.386667" y2="156.666667" />
<polyline points="131.386667,112.292204 125.626667,112.292204
131.386667,102.315592
137.146667,112.292204
131.386667,112.292204" />
<line x1="131.386667" y1="139.017742" x2="131.386667" y2="132.366667" />
<polyline points="125.626667,129.041129 131.386667,132.366667
137.146667,129.041129" />
<polygon stroke-width="0" fill="black"
 points="133.786667,163.066667 131.386667,172.666667
128.986667,163.066667" />
<line x1="131.386667" y1="156.666667" x2="131.386667" y2="170.467677" />
<line x1="175.546667" y1="84.666667" x2="175.546667" y2="93.366667" />
<circle cx="175.546667" cy="108.966667" r="15.6" />
<circle cx="175.546667" cy="132.366667" r="15.6" />
<line x1="175.546667" y1="147.966667" x2="175.546667" y2="156.666667" />
<polyline points="175.546667,112.292204 169.786667,112.292204
175.546667,102.315592
181.306667,112.292204
175.546667,112.292204" />
<line x1="175.546667" y1="139.017742" x2="175.546667" y2="132.366667" />
<polyline points="169.786667,129.041129 175.546667,132.366667
181.306667,129.041129" />
<polygon stroke-width="0" fill="black"
 points="177.946667,163.066667 175.546667,172.666667
173.146667,163.066667" />
<line x1="175.546667" y1="156.666667" x2="175.546667" y2="170.467677" />
<line x1="219.706667" y1="84.666667" x2="219.706667" y2="93.366667" />
<circle cx="219.706667" cy="108.966667" r="15.6" />
<circle cx="219.706667" cy="132.366667" r="15.6" />
<line x1="219.706667" y1="147.966667" x2="219.706667" y2="156.666667" />
<polyline points="219.706667,112.292204 213.946667,112.292204
219.706667,102.315592
225.466667,112.292204
219.706667,112.292204" />
<line x1="219.706667" y1="139.017742" x2="219.706667" y2="132.366667" />
<polyline points="213.946667,129.041129 219.706667,132.366667
225.466667,129.041129" />
<polygon stroke-width="0" fill="black"
 points="222.106667,163.066667 219.706667,172.666667
217.306667,163.066667" />
<line x1="219.706667" y1="156.666667" x2="219.706667" y2="170.467677" />
<line x1="263.866667" y1="156.666667" x2="263.866667" y2="128.666667" />
<line x1="263.866667" y1="128.666667" x2="251.866667" y2="116.666667" />
<line x1="263.866667" y1="112.666667" x2="263.866667" y2="84.666667" />
<line stroke-width="2.133333"
 x1="7.066667" y1="228.666667" x2="79.066667" y2="228.666667" />
<circle fill="black"
 cx="16.666667" cy="228.666667" r="1.92" />
<circle fill="black"
 cx="43.066667" cy="228.666667" r="1.92" />
<circle fill="black"
 cx="69.466667" cy="228.666667" r="1.92" />
<text font-size="10pt" stroke-width="0.266667"
 fill="black"
 text-anchor="start"
 x="9.733333" y="226"><tspan font-size="66%">20 kV</tspan></text>
<text font-size="10pt" stroke-width="0.266667"
 fill="black"
 x="43.066667" y="240.8"><tspan font-size="66%">1.25 MVA</tspan></text>
<line x1="43.066667" y1="228.666667" x2="43.066667" y2="200.666667" />
<line x1="43.066667" y1="200.666667" x2="31.066667" y2="188.666667" />
<line x1="43.066667" y1="184.666667" x2="43.066667" y2="156.666667" />
<line x1="16.666667" y1="228.666667" x2="16.666667" y2="237.366667" />
<circle cx="16.666667" cy="252.966667" r="15.6" />
<circle cx="16.666667" cy="276.366667" r="15.6" />
<line x1="16.666667" y1="291.966667" x2="16.666667" y2="300.666667" />
<polyline points="16.666667,256.292204 10.906667,256.292204
16.666667,246.315592
22.426667,256.292204
16.666667,256.292204" />
<line x1="16.666667" y1="283.017742" x2="16.666667" y2="276.366667" />
<polyline points="10.906667,273.041129 16.666667,276.366667
22.426667,273.041129" />
<line x1="69.466667" y1="300.666667" x2="69.466667" y2="272.666667" />
<line x1="69.466667" y1="272.666667" x2="57.466667" y2="260.666667" />
<line x1="69.466667" y1="256.666667" x2="69.466667" y2="228.666667" />
<line stroke-width="2.133333"
 x1="111.066667" y1="260.666667" x2="111.066667" y2="196.666667" />
<line x1="111.066667" y1="228.666667" x2="131.766667" y2="228.666667" />
<circle fill="lightgray" stroke="none"
 cx="147.366667" cy="228.666667" r="15.6" />
<circle fill="lightgray" stroke="none"
 cx="170.766667" cy="228.666667" r="15.6" />
<circle cx="147.366667" cy="228.666667" r="15.6" />
<circle cx="170.766667" cy="228.666667" r="15.6" />
<line x1="186.366667" y1="228.666667" x2="207.066667" y2="228.666667" />
<polygon stroke-width="0" fill="black"
 points="176.037229,208.301991 184.522511,203.210823
179.431342,211.696104" />
<line x1="133.610823" y1="254.122511" x2="182.96759" y2="204.765743" />
<line stroke-width="2.133333"
 x1="207.066667" y1="260.666667" x2="207.066667" y2="196.666667" />
<line x1="207.066667" y1="251.066667" x2="183.066667" y2="251.066667" />
<line x1="183.066667" y1="251.066667" x2="183.066667" y2="260.666667" />
<line x1="175.066667" y1="260.666667" x2="191.066667" y2="260.666667" />
<line x1="175.066667" y1="265.466667" x2="191.066667" y2="265.466667" />
<line x1="183.066667" y1="265.466667" x2="183.066667" y2="275.066667" />
<line x1="191.066667" y1="275.066667" x2="175.066667" y2="275.066667" />
<line x1="188.4" y1="278.066667" x2="177.733333" y2="278.066667" />
<line x1="186.495238" y1="281.066667" x2="179.638095" y2="281.066667" />
<line x1="207.066667" y1="228.666667" x2="231.066667" y2="228.666667" />
<line x1="231.066667" y1="228.666667" x2="231.066667" y2="251.066667" />
<line x1="231.066667" y1="251.066667" x2="231.066667" y2="260.666667" />
<line x1="223.066667" y1="260.666667" x2="239.066667" y2="260.666667" />
<line x1="223.066667" y1="265.466667" x2="239.066667" y2="265.466667" />
<line x1="231.066667" y1="265.466667" x2="231.066667" y2="275.066667" />
<line x1="239.066667" y1="275.066667" x2="223.066667" y2="275.066667" />
<line x1="236.4" y1="278.066667" x2="225.733333" y2="278.066667" />
<line x1="234.495238" y1="281.066667" x2="227.638095" y2="281.066667" />
<line x1="231.066667" y1="228.666667" x2="255.066667" y2="228.666667" />
<polyline stroke-width="0" fill="lightgray"
 points="375.066667,228.666667
375.066667,223.866667
255.066667,223.866667
255.066667,233.466667
375.066667,233.466667
375.066667,228.666667" />
<polyline points="375.066667,228.666667 375.066667,223.866667
255.066667,223.866667
255.066667,233.466667
375.066667,233.466667
375.066667,228.666667" />
<line x1="375.066667" y1="228.666667" x2="399.066667" y2="228.666667" />
<line x1="399.066667" y1="228.666667" x2="399.066667" y2="251.066667" />
<line x1="399.066667" y1="251.066667" x2="399.066667" y2="260.666667" />
<line x1="391.066667" y1="260.666667" x2="407.066667" y2="260.666667" />
<line x1="391.066667" y1="265.466667" x2="407.066667" y2="265.466667" />
<line x1="399.066667" y1="265.466667" x2="399.066667" y2="275.066667" />
<line x1="407.066667" y1="275.066667" x2="391.066667" y2="275.066667" />
<line x1="404.4" y1="278.066667" x2="393.733333" y2="278.066667" />
<line x1="402.495238" y1="281.066667" x2="395.638095" y2="281.066667" />
<line x1="399.066667" y1="228.666667" x2="423.066667" y2="228.666667" />
<line stroke-width="2.133333"
 x1="423.066667" y1="336.666667" x2="423.066667" y2="120.666667" />
<line x1="423.066667" y1="327.066667" x2="459.066667" y2="327.066667" />
<rect fill="rgb(217,166,33)" x="459.066667" y="312.666667" width="144" height="28.8" />
<text font-size="10pt" stroke-width="0.2pt" fill="black" x="531.066667" y="331.8">Static Load</text>
<line x1="423.066667" y1="287.706667" x2="459.066667" y2="287.706667" />
<rect fill="rgb(201,150,145)" x="459.066667" y="273.306667" width="144" height="28.8" />
<text font-size="10pt" stroke-width="0.2pt" fill="black" x="531.066667" y="292.44">Electronic Load</text>
<circle fill="rgb(51,204,51)" cx="489.066667" cy="248.346667" r="18" />
<text font-size="10pt" stroke-width="0.2pt" fill="black" x="489.066667" y="253.08">A/C</text>
<line x1="471.066667" y1="248.346667" x2="423.066667" y2="248.346667" />
<circle fill="rgb(54,120,219)" cx="489.066667" cy="208.986667" r="18" />
<text font-size="10pt" stroke-width="0.2pt" fill="black" x="489.066667" y="213.72">M</text>
<line x1="471.066667" y1="208.986667" x2="423.066667" y2="208.986667" />
<circle fill="rgb(51,153,204)" cx="489.066667" cy="169.626667" r="18" />
<text font-size="10pt" stroke-width="0.2pt" fill="black" x="489.066667" y="174.36">M</text>
<line x1="471.066667" y1="169.626667" x2="423.066667" y2="169.626667" />
<circle fill="rgb(51,161,204)" cx="489.066667" cy="130.266667" r="18" />
<text font-size="10pt" stroke-width="0.2pt" fill="black" x="489.066667" y="135">M</text>
<line x1="471.066667" y1="130.266667" x2="423.066667" y2="130.266667" />
<circle fill="rgb(199,92,77)" cx="357.066667" cy="307.386667" r="18" />
<text font-size="10pt" stroke-width="0.2pt" fill="black" x="357.066667" y="312.12"><tspan font-size="66%">DER_A</tspan></text>
<line x1="375.066667" y1="307.386667" x2="423.066667" y2="307.386667" />
<line x1="87.733333" y1="409.6" x2="96.733333" y2="409.6" />
<line x1="96.733333" y1="409.6" x2="96.733333" y2="409.6" />
<polyline stroke-width="0" fill="rgb(99,128,237)"
 points="87.733333,409.6
87.733333,414.1
96.733333,414.1
96.733333,405.1
87.733333,405.1
87.733333,409.6" />
<polyline points="87.733333,409.6 87.733333,414.1
96.733333,414.1
96.733333,405.1
87.733333,405.1
87.733333,409.6" />
<line x1="87.733333" y1="409.6" x2="87.733333" y2="409.6" />
<circle fill="rgb(99,128,237)" cx="47.733333" cy="409.6" r="16" />
<line x1="63.733333" y1="409.6" x2="87.733333" y2="409.6" />
<polyline points="71.733333,432.528203 63.733333,432.528203
71.733333,418.671797
79.733333,432.528203
71.733333,432.528203" />
<line x1="87.733333" y1="409.6" x2="117.233333" y2="409.6" />
<line x1="117.233333" y1="394" x2="117.233333" y2="394" />
<line x1="117.233333" y1="394" x2="116.7" y2="394" />
<path d="M 117.233333,394
 A 3.9 3.9 0 0 1 117.233333,401.8" />
<line x1="117.233333" y1="401.8" x2="116.7" y2="401.8" />
<path d="M 117.233333,401.8
 A 3.9 3.9 0 0 1 117.233333,409.6" />
<line x1="117.233333" y1="409.6" x2="116.7" y2="409.6" />
<path d="M 117.233333,409.6
 A 3.9 3.9 0 1 1 117.233333,417.4" />
<line x1="117.233333" y1="417.4" x2="116.7" y2="417.4" />
<path d="M 117.233333,417.4
 A 3.9 3.9 0 1 1 117.233333,425.2" />
<line x1="117.233333" y1="425.2" x2="116.7" y2="425.2" />
<line x1="117.233333" y1="425.2" x2="117.233333" y2="425.2" />
<line x1="130.233333" y1="425.2" x2="130.233333" y2="425.2" />
<line x1="130.233333" y1="425.2" x2="130.766667" y2="425.2" />
<path d="M 130.233333,425.2
 A 3.9 3.9 0 0 1 130.233333,417.4" />
<line x1="130.233333" y1="417.4" x2="130.766667" y2="417.4" />
<path d="M 130.233333,417.4
 A 3.9 3.9 0 0 1 130.233333,409.6" />
<line x1="130.233333" y1="409.6" x2="130.766667" y2="409.6" />
<path d="M 130.233333,409.6
 A 3.9 3.9 0 0 1 130.233333,401.8" />
<line x1="130.233333" y1="401.8" x2="130.766667" y2="401.8" />
<path d="M 130.233333,401.8
 A 3.9 3.9 0 0 1 130.233333,394" />
<line x1="130.233333" y1="394" x2="130.766667" y2="394" />
<line x1="130.233333" y1="394" x2="130.233333" y2="394" />
<line x1="130.233333" y1="409.6" x2="159.733333" y2="409.6" />
<line stroke-width="2.133333"
 x1="159.733333" y1="445.6" x2="159.733333" y2="373.6" />
<line x1="159.733333" y1="383.2" x2="191.233333" y2="383.2" />
<polyline stroke-width="0" fill="rgb(99,128,237)"
 points="200.233333,383.2
200.233333,378.7
191.233333,378.7
191.233333,387.7
200.233333,387.7
200.233333,383.2" />
<polyline points="200.233333,383.2 200.233333,378.7
191.233333,378.7
191.233333,387.7
200.233333,387.7
200.233333,383.2" />
<line x1="200.233333" y1="383.2" x2="231.733333" y2="383.2" />
<line x1="231.733333" y1="383.2" x2="295.733333" y2="383.2" />
<line x1="159.733333" y1="436" x2="191.233333" y2="436" />
<polyline stroke-width="0" fill="rgb(99,128,237)"
 points="200.233333,436
200.233333,431.5
191.233333,431.5
191.233333,440.5
200.233333,440.5
200.233333,436" />
<polyline points="200.233333,436 200.233333,431.5
191.233333,431.5
191.233333,440.5
200.233333,440.5
200.233333,436" />
<line x1="200.233333" y1="436" x2="231.733333" y2="436" />
<line x1="231.733333" y1="436" x2="231.733333" y2="455.5" />
<polyline stroke-width="0" fill="rgb(99,128,237)"
 points="231.733333,464.5
236.233333,464.5
236.233333,455.5
227.233333,455.5
227.233333,464.5
231.733333,464.5" />
<polyline points="231.733333,464.5 236.233333,464.5
236.233333,455.5
227.233333,455.5
227.233333,464.5
231.733333,464.5" />
<line x1="231.733333" y1="464.5" x2="231.733333" y2="484" />
<line stroke-width="2.133333"
 x1="207.733333" y1="484" x2="255.733333" y2="484" />
<line x1="231.733333" y1="484" x2="231.733333" y2="501.5" />
<line x1="247.333333" y1="501.5" x2="247.333333" y2="501.5" />
<line x1="247.333333" y1="501.5" x2="247.333333" y2="500.966667" />
<path d="M 247.333333,501.5
 A 3.9 3.9 0 0 1 239.533333,501.5" />
<line x1="239.533333" y1="501.5" x2="239.533333" y2="500.966667" />
<path d="M 239.533333,501.5
 A 3.9 3.9 0 1 1 231.733333,501.5" />
<line x1="231.733333" y1="501.5" x2="231.733333" y2="500.966667" />
<path d="M 231.733333,501.5
 A 3.9 3.9 0 0 1 223.933333,501.5" />
<line x1="223.933333" y1="501.5" x2="223.933333" y2="500.966667" />
<path d="M 223.933333,501.5
 A 3.9 3.9 0 1 1 216.133333,501.5" />
<line x1="216.133333" y1="501.5" x2="216.133333" y2="500.966667" />
<line x1="216.133333" y1="501.5" x2="216.133333" y2="501.5" />
<line x1="216.133333" y1="514.5" x2="216.133333" y2="514.5" />
<line x1="216.133333" y1="514.5" x2="216.133333" y2="515.033333" />
<path d="M 216.133333,514.5
 A 3.9 3.9 0 0 1 223.933333,514.5" />
<line x1="223.933333" y1="514.5" x2="223.933333" y2="515.033333" />
<path d="M 223.933333,514.5
 A 3.9 3.9 0 0 1 231.733333,514.5" />
<line x1="231.733333" y1="514.5" x2="231.733333" y2="515.033333" />
<path d="M 231.733333,514.5
 A 3.9 3.9 0 0 1 239.533333,514.5" />
<line x1="239.533333" y1="514.5" x2="239.533333" y2="515.033333" />
<path d="M 239.533333,514.5
 A 3.9 3.9 0 0 1 247.333333,514.5" />
<line x1="247.333333" y1="514.5" x2="247.333333" y2="515.033333" />
<line x1="247.333333" y1="514.5" x2="247.333333" y2="514.5" />
<line x1="231.733333" y1="514.5" x2="231.733333" y2="532" />
<line x1="231.733333" y1="532" x2="231.733333" y2="523" />
<line x1="231.733333" y1="523" x2="231.733333" y2="523" />
<polyline stroke-width="0" fill="rgb(99,128,237)"
 points="231.733333,532
236.233333,532
236.233333,523
227.233333,523
227.233333,532
231.733333,532" />
<polyline points="231.733333,532 236.233333,532
236.233333,523
227.233333,523
227.233333,532
231.733333,532" />
<line x1="231.733333" y1="532" x2="231.733333" y2="532" />
<circle fill="rgb(99,128,237)" cx="231.733333" cy="572" r="16" />
<text font-size="10pt" stroke-width="0.2pt" fill="black" x="231.733333" y="576.733333">SM</text>
<line x1="231.733333" y1="556" x2="231.733333" y2="532" />
<line x1="263.066667" y1="577.547005" x2="263.066667" y2="568.309401" />
<polyline points="255.066667,563.690599 263.066667,568.309401
271.066667,563.690599" />
<line x1="263.066667" y1="568.309401" x2="275.066667" y2="568.309401" />
<line x1="274.533333" y1="568.309401" x2="275.6" y2="568.309401" />
<line x1="275.066667" y1="568.309401" x2="275.066667" y2="576.309401" />
<line x1="280.4" y1="576.309401" x2="269.733333" y2="576.309401" />
<line x1="278.622222" y1="578.309401" x2="271.511111" y2="578.309401" />
<line x1="277.352381" y1="580.309401" x2="272.780952" y2="580.309401" />
<line x1="503.733333" y1="409.6" x2="494.733333" y2="409.6" />
<line x1="494.733333" y1="409.6" x2="494.733333" y2="409.6" />
<polyline stroke-width="0" fill="rgb(99,128,237)"
 points="503.733333,409.6
503.733333,405.1
494.733333,405.1
494.733333,414.1
503.733333,414.1
503.733333,409.6" />
<polyline points="503.733333,409.6 503.733333,405.1
494.733333,405.1
494.733333,414.1
503.733333,414.1
503.733333,409.6" />
<line x1="503.733333" y1="409.6" x2="503.733333" y2="409.6" />
<circle fill="rgb(99,128,237)" cx="543.733333" cy="409.6" r="16" />
<line x1="527.733333" y1="409.6" x2="503.733333" y2="409.6" />
<line x1="519.733333" y1="432.528203" x2="519.733333" y2="423.290599" />
<polyline points="511.733333,418.671797 519.733333,423.290599
527.733333,418.671797" />
<line x1="503.733333" y1="409.6" x2="474.233333" y2="409.6" />
<line x1="474.233333" y1="425.2" x2="474.233333" y2="425.2" />
<line x1="474.233333" y1="425.2" x2="474.766667" y2="425.2" />
<path d="M 474.233333,425.2
 A 3.9 3.9 0 0 1 474.233333,417.4" />
<line x1="474.233333" y1="417.4" x2="474.766667" y2="417.4" />
<path d="M 474.233333,417.4
 A 3.9 3.9 0 1 1 474.233333,409.6" />
<line x1="474.233333" y1="409.6" x2="474.766667" y2="409.6" />
<path d="M 474.233333,409.6
 A 3.9 3.9 0 0 1 474.233333,401.8" />
<line x1="474.233333" y1="401.8" x2="474.766667" y2="401.8" />
<path d="M 474.233333,401.8
 A 3.9 3.9 0 0 1 474.233333,394" />
<line x1="474.233333" y1="394" x2="474.766667" y2="394" />
<line x1="474.233333" y1="394" x2="474.233333" y2="394" />
<line x1="461.233333" y1="394" x2="461.233333" y2="394" />
<line x1="461.233333" y1="394" x2="460.7" y2="394" />
<path d="M 461.233333,394
 A 3.9 3.9 0 0 1 461.233333,401.8" />
<line x1="461.233333" y1="401.8" x2="460.7" y2="401.8" />
<path d="M 461.233333,401.8
 A 3.9 3.9 0 0 1 461.233333,409.6" />
<line x1="461.233333" y1="409.6" x2="460.7" y2="409.6" />
<path d="M 461.233333,409.6
 A 3.9 3.9 0 0 1 461.233333,417.4" />
<line x1="461.233333" y1="417.4" x2="460.7" y2="417.4" />
<path d="M 461.233333,417.4
 A 3.9 3.9 0 1 1 461.233333,425.2" />
<line x1="461.233333" y1="425.2" x2="460.7" y2="425.2" />
<line x1="461.233333" y1="425.2" x2="461.233333" y2="425.2" />
<line x1="461.233333" y1="409.6" x2="431.733333" y2="409.6" />
<line stroke-width="2.133333"
 x1="431.733333" y1="445.6" x2="431.733333" y2="373.6" />
<line x1="431.733333" y1="383.2" x2="400.233333" y2="383.2" />
<polyline stroke-width="0" fill="rgb(99,128,237)"
 points="391.233333,383.2
391.233333,387.7
400.233333,387.7
400.233333,378.7
391.233333,378.7
391.233333,383.2" />
<polyline points="391.233333,383.2 391.233333,387.7
400.233333,387.7
400.233333,378.7
391.233333,378.7
391.233333,383.2" />
<line x1="391.233333" y1="383.2" x2="359.733333" y2="383.2" />
<line x1="359.733333" y1="383.2" x2="295.733333" y2="383.2" />
<line x1="431.733333" y1="436" x2="400.233333" y2="436" />
<polyline stroke-width="0" fill="rgb(99,128,237)"
 points="391.233333,436
391.233333,440.5
400.233333,440.5
400.233333,431.5
391.233333,431.5
391.233333,436" />
<polyline points="391.233333,436 391.233333,440.5
400.233333,440.5
400.233333,431.5
391.233333,431.5
391.233333,436" />
<line x1="391.233333" y1="436" x2="359.733333" y2="436" />
<line x1="359.733333" y1="436" x2="359.733333" y2="455.5" />
<polyline stroke-width="0" fill="rgb(99,128,237)"
 points="359.733333,464.5
364.233333,464.5
364.233333,455.5
355.233333,455.5
355.233333,464.5
359.733333,464.5" />
<polyline points="359.733333,464.5 364.233333,464.5
364.233333,455.5
355.233333,455.5
355.233333,464.5
359.733333,464.5" />
<line x1="359.733333" y1="464.5" x2="359.733333" y2="484" />
<line stroke-width="2.133333"
 x1="383.733333" y1="484" x2="335.733333" y2="484" />
<line x1="359.733333" y1="484" x2="359.733333" y2="501.5" />
<line x1="375.333333" y1="501.5" x2="375.333333" y2="501.5" />
<line x1="375.333333" y1="501.5" x2="375.333333" y2="500.966667" />
<path d="M 375.333333,501.5
 A 3.9 3.9 0 0 1 367.533333,501.5" />
<line x1="367.533333" y1="501.5" x2="367.533333" y2="500.966667" />
<path d="M 367.533333,501.5
 A 3.9 3.9 0 1 1 359.733333,501.5" />
<line x1="359.733333" y1="501.5" x2="359.733333" y2="500.966667" />
<path d="M 359.733333,501.5
 A 3.9 3.9 0 0 1 351.933333,501.5" />
<line x1="351.933333" y1="501.5" x2="351.933333" y2="500.966667" />
<path d="M 351.933333,501.5
 A 3.9 3.9 0 1 1 344.133333,501.5" />
<line x1="344.133333" y1="501.5" x2="344.133333" y2="500.966667" />
<line x1="344.133333" y1="501.5" x2="344.133333" y2="501.5" />
<line x1="344.133333" y1="514.5" x2="344.133333" y2="514.5" />
<line x1="344.133333" y1="514.5" x2="344.133333" y2="515.033333" />
<path d="M 344.133333,514.5
 A 3.9 3.9 0 0 1 351.933333,514.5" />
<line x1="351.933333" y1="514.5" x2="351.933333" y2="515.033333" />
<path d="M 351.933333,514.5
 A 3.9 3.9 0 0 1 359.733333,514.5" />
<line x1="359.733333" y1="514.5" x2="359.733333" y2="515.033333" />
<path d="M 359.733333,514.5
 A 3.9 3.9 0 0 1 367.533333,514.5" />
<line x1="367.533333" y1="514.5" x2="367.533333" y2="515.033333" />
<path d="M 367.533333,514.5
 A 3.9 3.9 0 0 1 375.333333,514.5" />
<line x1="375.333333" y1="514.5" x2="375.333333" y2="515.033333" />
<line x1="375.333333" y1="514.5" x2="375.333333" y2="514.5" />
<line x1="359.733333" y1="514.5" x2="359.733333" y2="532" />
<line x1="359.733333" y1="532" x2="359.733333" y2="523" />
<line x1="359.733333" y1="523" x2="359.733333" y2="523" />
<polyline stroke-width="0" fill="rgb(99,128,237)"
 points="359.733333,532
364.233333,532
364.233333,523
355.233333,523
355.233333,532
359.733333,532" />
<polyline points="359.733333,532 364.233333,532
364.233333,523
355.233333,523
355.233333,532
359.733333,532" />
<line x1="359.733333" y1="532" x2="359.733333" y2="532" />
<circle fill="rgb(99,128,237)" cx="359.733333" cy="572" r="16" />
<text font-size="10pt" stroke-width="0.2pt" fill="black" x="359.733333" y="576.733333">SM</text>
<line x1="359.733333" y1="556" x2="359.733333" y2="532" />
<line x1="328.4" y1="577.547005" x2="328.4" y2="568.309401" />
<polyline points="320.4,563.690599 328.4,568.309401
336.4,563.690599" />
<line x1="328.4" y1="568.309401" x2="316.4" y2="568.309401" />
<line x1="316.933333" y1="568.309401" x2="315.866667" y2="568.309401" />
<line x1="316.4" y1="568.309401" x2="316.4" y2="576.309401" />
<line x1="321.733333" y1="576.309401" x2="311.066667" y2="576.309401" />
<line x1="319.955556" y1="578.309401" x2="312.844444" y2="578.309401" />
<line x1="318.685714" y1="580.309401" x2="314.114286" y2="580.309401" />
<text font-size="10pt" stroke-width="0.266667"
 fill="black"
 x="159.733333" y="370.933333">Bus 1</text>
<text font-size="10pt" stroke-width="0.266667"
 fill="black"
 x="431.733333" y="370.933333">Bus 2</text>
<text font-size="10pt" stroke-width="0.266667"
 fill="black"
 x="207.733333" y="481.333333">Bus 3</text>
<text font-size="10pt" stroke-width="0.266667"
 fill="black"
 x="383.733333" y="481.333333">Bus 4</text>
<text font-size="10pt" stroke-width="0.266667"
 fill="black"
 x="295.733333" y="380.533333"
>TL<tspan font-size="70%"
dy="0.66ex" dx="">1</tspan><tspan
font-size="70%" dy="-0.66ex"
dx="-0.5ex"> </tspan> 50 km 69 kV</text>
<text font-size="10pt" stroke-width="0.266667"
 fill="black"
 text-anchor="start"
 x="210.4" y="418.066667"
>TL<tspan font-size="70%"
dy="0.66ex" dx="">2</tspan><tspan
font-size="70%" dy="-0.66ex"
dx="-0.5ex"> </tspan> 30 km</text>
<text font-size="10pt" stroke-width="0.266667"
 fill="black"
 text-anchor="start"
 x="210.4" y="431.4">69 kV</text>
<text font-size="10pt" stroke-width="0.266667"
 fill="black"
 text-anchor="start"
 x="338.4" y="418.066667"
>TL<tspan font-size="70%"
dy="0.66ex" dx="">2</tspan><tspan
font-size="70%" dy="-0.66ex"
dx="-0.5ex"> </tspan> 20 km</text>
<text font-size="10pt" stroke-width="0.266667"
 fill="black"
 text-anchor="start"
 x="338.4" y="431.4">69 kV</text>
<text font-size="10pt" stroke-width="0.266667"
 fill="black"
 text-anchor="start"
 x="1.066667" y="450.333333"
>G<tspan font-size="70%"
dy="0.66ex" dx="">1</tspan><tspan
font-size="70%" dy="-0.66ex"
dx="-0.5ex"> </tspan> 50 MVA</text>
<text font-size="10pt" stroke-width="0.266667"
 fill="black"
 text-anchor="start"
 x="1.066667" y="463.666667">13.8 kV</text>
<text font-size="10pt" stroke-width="0.266667"
 fill="black"
 text-anchor="start"
 x="543.733333" y="445"
>G<tspan font-size="70%"
dy="0.66ex" dx="">2</tspan><tspan
font-size="70%" dy="-0.66ex"
dx="-0.5ex"> </tspan> 30 MVA</text>
<text font-size="10pt" stroke-width="0.266667"
 fill="black"
 text-anchor="start"
 x="543.733333" y="458.333333">13.8 kV</text>
<text font-size="10pt" stroke-width="0.266667"
 fill="black"
 x="121.066667" y="456.6"
>T<tspan font-size="70%"
dy="0.66ex" dx="">1</tspan><tspan
font-size="70%" dy="-0.66ex"
dx="-0.5ex"> </tspan> 50 MVA</text>
<text font-size="10pt" stroke-width="0.266667"
 fill="black"
 x="121.066667" y="469.933333">13.8/69 kV &#916;/Y</text>
<text font-size="10pt" stroke-width="0.266667"
 fill="black"
 x="470.4" y="459.266667"
>T<tspan font-size="70%"
dy="0.66ex" dx="">2</tspan><tspan
font-size="70%" dy="-0.66ex"
dx="-0.5ex"> </tspan> 30 MVA</text>
<text font-size="10pt" stroke-width="0.266667"
 fill="black"
 x="470.4" y="472.6">69/13.8 kV Y/&#916; </text>
<text font-size="10pt" stroke-width="0.266667"
 fill="black"
 text-anchor="end"
 x="208.133333" y="506.066667"
>T<tspan font-size="70%"
dy="0.66ex" dx="">3</tspan><tspan
font-size="70%" dy="-0.66ex"
dx="-0.5ex"> </tspan> 50 MVA</text>
<text font-size="10pt" stroke-width="0.266667"
 fill="black"
 text-anchor="end"
 x="208.133333" y="519.4">13.8/69 kV Y/&#916; </text>
<text font-size="10pt" stroke-width="0.266667"
 fill="black"
 text-anchor="start"
 x="383.333333" y="506.066667"
>T<tspan font-size="70%"
dy="0.66ex" dx="">4</tspan><tspan
font-size="70%" dy="-0.66ex"
dx="-0.5ex"> </tspan> 20 MVA</text>
<text font-size="10pt" stroke-width="0.266667"
 fill="black"
 text-anchor="start"
 x="383.333333" y="519.4">69/6.9 kV Y/&#916; </text>
<text font-size="10pt" stroke-width="0.266667"
 fill="black"
 text-anchor="end"
 x="207.733333" y="570.066667"
>SM<tspan font-size="70%"
dy="0.66ex" dx="">1</tspan><tspan
font-size="70%" dy="-0.66ex"
dx="-0.5ex"> </tspan> 30 MVA</text>
<text font-size="10pt" stroke-width="0.266667"
 fill="black"
 text-anchor="end"
 x="207.733333" y="583.4">13.8 kV</text>
<text font-size="10pt" stroke-width="0.266667"
 fill="black"
 text-anchor="start"
 x="383.733333" y="570.066667"
>SM<tspan font-size="70%"
dy="0.66ex" dx="">2</tspan><tspan
font-size="70%" dy="-0.66ex"
dx="-0.5ex"> </tspan> 20 MVA</text>
<text font-size="10pt" stroke-width="0.266667"
 fill="black"
 text-anchor="start"
 x="383.733333" y="583.4">6.9 kV</text>
</g>
</g></svg>
