<?xml version="1.0" encoding="UTF-8" standalone="no"?>
<!DOCTYPE svg PUBLIC "-//W3C//DTD SVG 1.1//EN"
"http://www.w3.org/Graphics/SVG/1.1/DTD/svg11.dtd">
<!-- Creator: dpic version 2022.12.01 option -v for SVG 1.1 -->
<!-- width="656" height="152" -->
<svg
 xmlns="http://www.w3.org/2000/svg" xmlns:xlink="http://www.w3.org/1999/xlink"
 xml:space="preserve"
 style="shape-rendering:geometricPrecision; text-rendering:geometricPrecision;
 image-rendering:optimizeQuality; fill-rule:evenodd; clip-rule:evenodd"
 width="654.776185px" height="151.04px"
 viewBox="0 0 654.776185 151.04"
 font-size="11pt" text-anchor="middle"
 stroke="black" stroke-miterlimit="10" stroke-width="1.066667" fill="none">
<g>
<g style="font-family:sans-serif"
>
<circle fill="black"
 cx="61.066667" cy="2.453333" r="1.92" />
<line x1="61.066667" y1="2.453333" x2="61.066667" y2="14.453333" />
<polyline points="61.066667,38.453333 65.866667,38.453333
65.866667,14.453333
56.266667,14.453333
56.266667,38.453333
61.066667,38.453333" />
<line x1="61.066667" y1="38.453333" x2="61.066667" y2="50.453333" />
<text font-size="10.5pt" stroke-width="0.266667"
 fill="black"
 text-anchor="start"
 x="68.533333" y="31.423333"
><tspan font-style="normal">1 M&#937;</tspan></text>
<polygon stroke-width="0" fill="black"
 points="66.157835,17.968052 74.643117,12.876883
69.551948,21.362165" />
<line x1="47.490216" y1="40.029784" x2="73.088196" y2="14.431804" />
<line x1="61.066667" y1="50.453333" x2="61.066667" y2="62.453333" />
<polyline points="61.066667,86.453333 65.866667,86.453333
65.866667,62.453333
56.266667,62.453333
56.266667,86.453333
61.066667,86.453333" />
<line x1="61.066667" y1="86.453333" x2="61.066667" y2="98.453333" />
<text font-size="10.5pt" stroke-width="0.266667"
 fill="black"
 text-anchor="start"
 x="68.533333" y="79.423333"
><tspan font-style="normal">100 k&#937;</tspan></text>
<line x1="61.066667" y1="98.453333" x2="61.066667" y2="117.653333" />
<polyline stroke-width="0.533333"
 points="61.066667,120.653333 65.866667,120.653333
65.866667,117.653333
56.266667,117.653333
56.266667,120.653333
61.066667,120.653333" />
<polyline stroke-width="0" fill="black"
 points="61.066667,124.253333
65.866667,124.253333
65.866667,127.253333
56.266667,127.253333
56.266667,124.253333
61.066667,124.253333" />
<polyline stroke-width="0.533333"
 points="61.066667,124.253333 65.866667,124.253333
65.866667,127.253333
56.266667,127.253333
56.266667,124.253333
61.066667,124.253333" />
<line x1="61.066667" y1="127.253333" x2="61.066667" y2="146.453333" />
<text font-size="10.5pt" stroke-width="0.266667"
 fill="black"
 text-anchor="start"
 x="63.733333" y="114.986667"
><tspan font-style="normal">220 &#956;F</tspan></text>
<circle fill="black"
 cx="61.066667" cy="146.453333" r="1.92" />
<circle fill="black"
 cx="125.066667" cy="2.453333" r="1.92" />
<line x1="125.066667" y1="2.453333" x2="125.066667" y2="14.453333" />
<polyline points="125.066667,38.453333 129.866667,38.453333
129.866667,14.453333
120.266667,14.453333
120.266667,38.453333
125.066667,38.453333" />
<line x1="125.066667" y1="38.453333" x2="125.066667" y2="50.453333" />
<text font-size="10.5pt" stroke-width="0.266667"
 fill="black"
 text-anchor="start"
 x="132.533333" y="31.423333"
><tspan font-style="normal">33 k&#937;</tspan></text>
<line x1="125.066667" y1="50.453333" x2="125.066667" y2="98.453333" />
<line x1="125.066667" y1="98.453333" x2="125.066667" y2="120.053333" />
<line x1="117.066667" y1="120.053333" x2="133.066667" y2="120.053333" />
<line x1="117.066667" y1="124.853333" x2="133.066667" y2="124.853333" />
<line x1="125.066667" y1="124.853333" x2="125.066667" y2="146.453333" />
<text font-size="10.5pt" stroke-width="0.266667"
 fill="black"
 text-anchor="start"
 x="127.733333" y="117.386667"
><tspan font-style="normal">0.1 &#956;F</tspan></text>
<circle fill="black"
 cx="125.066667" cy="146.453333" r="1.92" />
<rect x="170.4" y="38.453333" width="72" height="72" />
<text font-size="10.5pt" stroke-width="0.2pt" fill="black" x="206.4" y="79.423333">555</text>
<text font-size="10.5pt" stroke-width="0.266667"
 fill="black"
 text-anchor="start"
 x="173.066667" y="103.423333">7</text>
<text font-size="10.5pt" stroke-width="0.266667"
 fill="black"
 text-anchor="start"
 x="173.066667" y="79.423333">6</text>
<text font-size="10.5pt" stroke-width="0.266667"
 fill="black"
 text-anchor="start"
 x="173.066667" y="55.423333">2</text>
<text font-size="10.5pt" stroke-width="0.266667"
 fill="black"
 x="194.4" y="51.06">4</text>
<text font-size="10.5pt" stroke-width="0.266667"
 fill="black"
 x="218.4" y="51.06">8</text>
<text font-size="10.5pt" stroke-width="0.266667"
 fill="black"
 text-anchor="end"
 x="239.733333" y="79.423333">3</text>
<text font-size="10.5pt" stroke-width="0.266667"
 fill="black"
 x="206.4" y="107.786667">1</text>
<line x1="194.4" y1="46.09" x2="194.4" y2="2.453333" />
<circle fill="black"
 cx="194.4" cy="2.453333" r="1.92" />
<line x1="218.4" y1="46.09" x2="218.4" y2="2.453333" />
<circle fill="black"
 cx="218.4" cy="2.453333" r="1.92" />
<line x1="206.4" y1="102.816667" x2="206.4" y2="146.453333" />
<circle fill="black"
 cx="206.4" cy="146.453333" r="1.92" />
<line x1="173.066667" y1="50.453333" x2="125.066667" y2="50.453333" />
<circle fill="black"
 cx="125.066667" cy="50.453333" r="1.92" />
<line x1="173.066667" y1="98.453333" x2="128.533333" y2="98.453333" />
<path d="M 129.066667,98.453333
 A 4 4 0 0 0 121.066667,98.453333" />
<line x1="121.6" y1="98.453333" x2="61.066667" y2="98.453333" />
<circle fill="black"
 cx="61.066667" cy="98.453333" r="1.92" />
<polyline points="173.066667,74.453333 149.066667,74.453333
149.066667,98.453333" />
<circle fill="black"
 cx="149.066667" cy="98.453333" r="1.92" />
<line x1="239.733333" y1="74.453333" x2="271.733333" y2="74.453333" />
<circle fill="black"
 cx="271.733333" cy="74.453333" r="1.92" />
<line x1="271.733333" y1="74.453333" x2="287.733333" y2="74.453333" />
<line x1="302.818278" y1="85.12" x2="302.818278" y2="53.12" />
<path d="M 302.818278,53.12
 A 16 16 0 0 0 302.818278,85.12" />
<line x1="287.733333" y1="63.786667" x2="271.733333" y2="63.786667" />
<line x1="271.733333" y1="2.453333" x2="271.733333" y2="29.655898" />
<polygon stroke-width="0" fill="black"
 points="284.89058,12.806313 291.624931,9.843199
288.661817,16.57755" />
<line x1="276.012013" y1="25.456117" x2="290.584435" y2="10.883695" />
<polygon stroke-width="0" fill="black"
 points="289.133221,17.048954 295.867571,14.08584
292.904457,20.82019" />
<line x1="280.254654" y1="29.698758" x2="294.827076" y2="15.126335" />
<polyline stroke-width="0" fill="black"
 points="271.733333,29.655898
275.733333,29.655898
271.733333,36.052761
267.733333,29.655898
271.733333,29.655898" />
<polyline points="271.733333,29.655898 275.733333,29.655898
271.733333,36.052761
267.733333,29.655898
271.733333,29.655898" />
<line x1="267.344365" y1="36.584102" x2="276.122302" y2="36.584102" />
<line x1="271.733333" y1="36.584102" x2="271.733333" y2="63.786667" />
<text font-size="10.5pt" stroke-width="0.266667"
 fill="black"
 x="295.733333" y="38.09">red</text>
<line x1="271.733333" y1="74.453333" x2="271.733333" y2="86.453333" />
<polyline points="271.733333,110.453333 276.533333,110.453333
276.533333,86.453333
266.933333,86.453333
266.933333,110.453333
271.733333,110.453333" />
<line x1="271.733333" y1="110.453333" x2="271.733333" y2="122.453333" />
<text font-size="10.5pt" stroke-width="0.266667"
 fill="black"
 text-anchor="start"
 x="279.2" y="103.423333"
><tspan font-style="normal">470 &#937;</tspan></text>
<line x1="271.733333" y1="122.453333" x2="271.733333" y2="130.989232" />
<polygon stroke-width="0" fill="black"
 points="284.89058,114.139647 291.624931,111.176533
288.661817,117.910883" />
<line x1="276.012013" y1="126.78945" x2="290.584435" y2="112.217028" />
<polygon stroke-width="0" fill="black"
 points="289.133221,118.382287 295.867571,115.419173
292.904457,122.153524" />
<line x1="280.254654" y1="131.032091" x2="294.827076" y2="116.459669" />
<polyline stroke-width="0" fill="black"
 points="271.733333,130.989232
275.733333,130.989232
271.733333,137.386094
267.733333,130.989232
271.733333,130.989232" />
<polyline points="271.733333,130.989232 275.733333,130.989232
271.733333,137.386094
267.733333,130.989232
271.733333,130.989232" />
<line x1="267.344365" y1="137.917435" x2="276.122302" y2="137.917435" />
<line x1="271.733333" y1="137.917435" x2="271.733333" y2="146.453333" />
<text font-size="10.5pt" stroke-width="0.266667"
 fill="black"
 x="303.733333" y="139.423333">green</text>
<line x1="271.733333" y1="146.453333" x2="13.066667" y2="146.453333" />
<line x1="13.066667" y1="146.453333" x2="13.066667" y2="98.453333" />
<line x1="13.066667" y1="98.453333" x2="13.066667" y2="84.453333" />
<line x1="7.066667" y1="84.453333" x2="19.066667" y2="84.453333" />
<line x1="1.066667" y1="80.453333" x2="25.066667" y2="80.453333" />
<line x1="13.066667" y1="80.453333" x2="13.066667" y2="66.453333" />
<text font-size="10.5pt" stroke-width="0.266667"
 fill="black"
 text-anchor="start"
 x="15.733333" y="77.786667"><tspan font-style="normal">9 V</tspan></text>
<line x1="13.066667" y1="66.453333" x2="13.066667" y2="42.453333" />
<line x1="13.066667" y1="42.453333" x2="1.066667" y2="30.453333" />
<line x1="13.066667" y1="26.453333" x2="13.066667" y2="2.453333" />
<circle fill="white"
 cx="13.066667" cy="42.453333" r="1.92" />
<circle fill="white"
 cx="13.066667" cy="26.453333" r="1.92" />
<line x1="13.066667" y1="2.453333" x2="271.733333" y2="2.453333" />
<line x1="409.333333" y1="148.373333" x2="409.333333" y2="112.373333" />
<circle cx="409.333333" cy="94.373333" r="18" />
<text font-size="10.5pt" stroke-width="0.266667"
 fill="black"
 x="409.333333" y="107.349333">-</text>
<text font-size="10.5pt" stroke-width="0.266667"
 fill="black"
 x="409.333333" y="89.349333"><tspan font-size="66%">+</tspan></text>
<line x1="409.333333" y1="76.373333" x2="409.333333" y2="40.373333" />
<text font-size="10.5pt" stroke-width="0.266667"
 fill="black"
 text-anchor="end"
 x="388.666667" y="99.343333"
>v<tspan font-size="70%"
dy="0.66ex" dx="">s</tspan><tspan
font-size="70%" dy="-0.66ex"
dx="-0.5ex"> </tspan></text>
<line x1="409.333333" y1="40.373333" x2="433.333333" y2="40.373333" />
<line x1="433.333333" y1="40.373333" x2="451.333333" y2="22.373333" />
<path stroke-width="0" fill="black"
 d="M 449.470811,37.717006
 L 447.129207,38.399081
 A 34.089485 34.089485 0 0 1 450.719998,45.032076
 A 34.089485 34.089485 0 0 0 451.812415,37.034932
 L 449.470811,37.717006" />
<path d="M 450.333622,41.684181
 A 34.089485 34.089485 0 0 0 442.333333,24.784876" />
<line x1="457.333333" y1="40.373333" x2="481.333333" y2="40.373333" />
<text font-size="10.5pt" stroke-width="0.266667"
 fill="black"
 x="445.333333" y="56.105667">t = <tspan font-style="normal">0</tspan></text>
<polyline points="481.333333,40.373333 499.333333,40.373333
502.333333,34.373333
508.333333,46.373333
514.333333,34.373333
520.333333,46.373333
526.333333,34.373333
532.333333,46.373333
535.333333,40.373333
553.333333,40.373333" />
<text font-size="10.5pt" stroke-width="0.266667"
 fill="black"
 x="517.333333" y="31.706667"
><tspan font-style="normal">47 ohm</tspan></text>
<polygon stroke-width="0" fill="black"
 points="486.933333,37.973333 496.533333,40.373333
486.933333,42.773333" />
<line x1="494.334344" y1="40.373333" x2="486.933333" y2="40.373333" />
<text font-size="10.5pt" stroke-width="0.266667"
 fill="black"
 text-anchor="end"
 x="484.266667" y="33.706667"
><tspan font-style="italic">i<tspan font-size="70%"
dy="0.66ex" dx="">R</tspan><tspan
font-size="70%" dy="-0.66ex"
dx="-0.5ex"> </tspan></tspan></text>
<polyline points="553.333333,40.373333 589.333333,40.373333
589.333333,58.373333" />
<line x1="625.333333" y1="58.373333" x2="625.333333" y2="73.963705" />
<circle stroke-width="0.533333"
 cx="625.333333" cy="73.963705" r="0.26567" />
<path d="M 625.333333,73.963705
 A 7.2 7.2 0 1 1 622.860665,85.117192" />
<circle stroke-width="0.533333"
 cx="622.860665" cy="85.117192" r="0.26567" />
<path d="M 622.860665,85.117192
 A 7.2 7.2 0 1 1 622.860665,94.373333" />
<circle stroke-width="0.533333"
 cx="622.860665" cy="94.373333" r="0.26567" />
<path d="M 622.860665,94.373333
 A 7.2 7.2 0 1 1 622.860665,103.629475" />
<circle stroke-width="0.533333"
 cx="622.860665" cy="103.629475" r="0.26567" />
<path d="M 622.860665,103.629475
 A 7.2 7.2 0 1 1 625.333333,114.782962" />
<circle stroke-width="0.533333"
 cx="625.333333" cy="114.782962" r="0.26567" />
<line x1="625.333333" y1="114.782962" x2="625.333333" y2="130.373333" />
<text font-size="10.5pt" stroke-width="0.266667"
 fill="black"
 text-anchor="start"
 x="638.242851" y="99.343333">L</text>
<polygon stroke-width="0" fill="black"
 points="627.733333,61.917192 625.333333,71.517192
622.933333,61.917192" />
<line x1="625.333333" y1="69.318202" x2="625.333333" y2="61.917192" />
<line x1="553.333333" y1="58.373333" x2="553.333333" y2="90.773333" />
<line x1="544.333333" y1="90.773333" x2="562.333333" y2="90.773333" />
<path d="M 544.333333,97.973333
 A 18 18 0 0 1 562.333333,97.973333" />
<line x1="553.333333" y1="95.561791" x2="553.333333" y2="130.373333" />
<text font-size="10.5pt" stroke-width="0.266667"
 fill="black"
 text-anchor="end"
 x="550.666667" y="88.106667">+</text>
<text font-size="10.5pt" stroke-width="0.266667"
 fill="black"
 text-anchor="end"
 x="541.666667" y="99.343333"
>v<tspan font-size="70%"
dy="0.66ex" dx="">C</tspan><tspan
font-size="70%" dy="-0.66ex"
dx="-0.5ex"> </tspan></text>
<text font-size="10.5pt" stroke-width="0.266667"
 fill="black"
 text-anchor="end"
 x="550.666667" y="110.58">-</text>
<text font-size="10.5pt" stroke-width="0.266667"
 fill="black"
 text-anchor="start"
 x="556" y="110.58">C</text>
<line x1="625.866667" y1="58.373333" x2="552.8" y2="58.373333" />
<line x1="625.866667" y1="130.373333" x2="552.8" y2="130.373333" />
<line x1="625.333333" y1="58.373333" x2="625.333333" y2="58.373333" />
<line x1="625.333333" y1="130.373333" x2="625.333333" y2="130.373333" />
<line x1="553.333333" y1="58.373333" x2="553.333333" y2="58.373333" />
<line x1="553.333333" y1="130.373333" x2="553.333333" y2="130.373333" />
<text font-size="10.5pt" stroke-width="0.266667"
 fill="black"
 text-anchor="start"
 x="630.666667" y="70.98"
><tspan font-style="italic">i<tspan font-size="70%"
dy="0.66ex" dx="">L</tspan><tspan
font-size="70%" dy="-0.66ex"
dx="-0.5ex"> </tspan></tspan></text>
<polyline points="589.333333,130.373333 589.333333,148.373333
409.333333,148.373333" />
<path stroke-width="0" fill="black"
 d="M 599.872248,78.914248
 L 598.753349,80.767553
 A 18 18 0 0 1 606.127562,85.373333
 A 18 18 0 0 0 600.991148,77.060943
 L 599.872248,78.914248" />
<path d="M 606.127562,103.373333
 A 18 18 0 1 1 603.502794,81.885629" />
<text font-size="10.5pt" stroke-width="0.2pt" fill="black" x="590.539105" y="99.343333"
><tspan font-style="italic">i<tspan font-size="70%"
dy="0.66ex" dx="">2</tspan><tspan
font-size="70%" dy="-0.66ex"
dx="-0.5ex"> </tspan></tspan></text>
<path stroke-width="0" fill="black"
 d="M 509.303623,68.971919
 L 507.672194,70.593306
 A 36 36 0 0 1 514.921791,76.373333
 A 36 36 0 0 0 510.935053,67.350532
 L 509.303623,68.971919" />
<path d="M 514.921791,112.373333
 A 36 36 0 1 1 512.508946,72.72551" />
<text font-size="10.5pt" stroke-width="0.2pt" fill="black" x="483.744876" y="99.343333"
><tspan font-style="italic">i<tspan font-size="70%"
dy="0.66ex" dx="">1</tspan><tspan
font-size="70%" dy="-0.66ex"
dx="-0.5ex"> </tspan></tspan></text>
</g>
</g></svg>
