<?xml version="1.0" encoding="UTF-8" standalone="no"?>
<!DOCTYPE svg PUBLIC "-//W3C//DTD SVG 1.1//EN"
"http://www.w3.org/Graphics/SVG/1.1/DTD/svg11.dtd">
<!-- Creator: dpic version 2022.12.01 option -v for SVG 1.1 -->
<!-- width="640" height="750" -->
<svg
 xmlns="http://www.w3.org/2000/svg" xmlns:xlink="http://www.w3.org/1999/xlink"
 xml:space="preserve"
 style="shape-rendering:geometricPrecision; text-rendering:geometricPrecision;
 image-rendering:optimizeQuality; fill-rule:evenodd; clip-rule:evenodd"
 width="639.333333px" height="748.546667px"
 viewBox="0 0 639.333333 748.546667"
 font-size="11pt" text-anchor="middle"
 stroke="black" stroke-miterlimit="10" stroke-width="1.066667" fill="none">
<g>
<g style="font-family:sans-serif"
>
<rect fill="rgb(230,204,179)" stroke-width="1.333333"
 x="10.933333" y="0.666667" width="96" height="36" />
<text font-size="11pt" stroke-width="0.2pt" fill="black" x="58.933333" y="23.873333"
><tspan font-family="Courier">Fbox</tspan></text>
<polyline stroke-width="0" fill="rgb(230,204,179)"
 points="68.533333,73.266667
87.733333,85.866667
49.333333,111.066667
10.933333,85.866667
49.333333,60.666667
68.533333,73.266667" />
<polyline stroke-width="1.333333"
 points="68.533333,73.266667 87.733333,85.866667
49.333333,111.066667
10.933333,85.866667
49.333333,60.666667
68.533333,73.266667" />
<text font-size="11pt" stroke-width="0.266667"
 fill="black"
 x="49.333333" y="91.073333"
><tspan font-family="Courier">Ftest</tspan></text>
<polyline stroke-width="0" fill="rgb(230,204,179)"
 points="64.933333,135.066667
118.933333,135.066667
106.933333,171.066667
10.933333,171.066667
22.933333,135.066667
64.933333,135.066667" />
<polyline stroke-width="1.333333"
 points="64.933333,135.066667 118.933333,135.066667
106.933333,171.066667
10.933333,171.066667
22.933333,135.066667
64.933333,135.066667" />
<text font-size="11pt" stroke-width="0.266667"
 fill="black"
 x="64.933333" y="158.273333"
><tspan font-family="Courier">Fdata</tspan></text>
<polyline stroke-width="0" fill="rgb(230,230,230)"
 points="58.933333,195.066667
97.933333,195.066667
106.933333,213.066667
97.933333,231.066667
19.933333,231.066667
10.933333,213.066667
19.933333,195.066667
58.933333,195.066667" />
<polyline stroke-width="1.333333"
 points="58.933333,195.066667 97.933333,195.066667
106.933333,213.066667
97.933333,231.066667
19.933333,231.066667
10.933333,213.066667
19.933333,195.066667
58.933333,195.066667" />
<text font-size="11pt" stroke-width="0.266667"
 fill="black"
 x="58.933333" y="218.273333"
><tspan font-family="Courier">Fprep</tspan></text>
<path stroke-width="1.333333"
 d="M 103.430524,291.398755
 A 48 48 0 0 0 103.430524,255.398755" />
<circle stroke-width="0.666667"
 cx="103.430524" cy="255.398755" r="0.332088" />
<line stroke-width="1.333333"
 x1="103.430524" y1="255.398755" x2="14.436142" y2="255.398755" />
<circle stroke-width="0.666667"
 cx="14.436142" cy="255.398755" r="0.332088" />
<path stroke-width="1.333333"
 d="M 14.436142,255.398755
 A 48 48 0 0 0 14.436142,291.398755" />
<circle stroke-width="0.666667"
 cx="14.436142" cy="291.398755" r="0.332088" />
<line stroke-width="1.333333"
 x1="14.436142" y1="291.398755" x2="103.430524" y2="291.398755" />
<circle stroke-width="0.666667"
 cx="103.430524" cy="291.398755" r="0.332088" />
<text font-size="11pt" stroke-width="0.266667"
 fill="black"
 x="58.933333" y="278.605421"
><tspan font-family="Courier">Fkeying</tspan></text>
<polyline stroke-width="0" fill="rgb(230,230,230)"
 points="58.933333,321.730843
106.933333,315.730843
106.933333,357.730843
10.933333,357.730843
10.933333,327.730843
58.933333,321.730843" />
<polyline stroke-width="1.333333"
 points="58.933333,321.730843 106.933333,315.730843
106.933333,357.730843
10.933333,357.730843
10.933333,327.730843
58.933333,321.730843" />
<text font-size="11pt" stroke-width="0.266667"
 fill="black"
 x="58.933333" y="344.937509"
><tspan font-family="Courier">Fkeyboard</tspan></text>
<polyline stroke-width="0" fill="rgb(230,204,179)"
 points="106.933333,426.730843
106.933333,381.730843
10.933333,381.730843
10.933333,426.730843" />
<polyline stroke-width="1.333333"
 points="106.933333,426.730843 106.933333,381.730843
10.933333,381.730843
10.933333,426.730843" />
<path stroke-width="0" fill="rgb(230,204,179)"
 d="M 10.933333,426.730843
 A 43.266615 43.266615 0 0 0 58.933333,426.730843" />
<path stroke-width="1.333333"
 d="M 10.933333,426.730843
 A 43.266615 43.266615 0 0 0 58.933333,426.730843" />
<path stroke-width="0" fill="rgb(255,255,255)"
 d="M 58.933333,426.730843
 A 43.266615 43.266615 0 0 1 106.933333,426.730843" />
<path stroke-width="1.333333"
 d="M 58.933333,426.730843
 A 43.266615 43.266615 0 0 1 106.933333,426.730843" />
<text font-size="11pt" stroke-width="0.266667"
 fill="black"
 x="58.933333" y="404.937509"
><tspan font-family="Courier">Fdocument</tspan></text>
<path stroke-width="0" fill="rgb(189,212,230)"
 d="M 88.933333,493.997458
 A 18 18 0 0 0 88.933333,457.997458" />
<path stroke-width="1.333333"
 d="M 88.933333,493.997458
 A 18 18 0 0 0 88.933333,457.997458" />
<polyline stroke-width="0" fill="rgb(189,212,230)"
 points="88.933333,457.997458
10.933333,457.997458
10.933333,493.997458
88.933333,493.997458" />
<polyline stroke-width="1.333333"
 points="88.933333,457.997458 10.933333,457.997458
10.933333,493.997458
88.933333,493.997458" />
<text font-size="11pt" stroke-width="0.266667"
 fill="black"
 x="58.933333" y="481.204125"
><tspan font-family="Courier">Fdelay</tspan></text>
<rect fill="rgb(171,224,176)" stroke-width="1.333333"
 stroke="none"
 x="28.933333" y="517.997458" width="69" height="36" />
<polyline stroke-width="0" fill="rgb(171,224,176)"
 points="10.933333,535.997458
28.933333,517.997458
28.933333,553.997458
10.933333,535.997458" />
<path stroke-width="0" fill="rgb(171,224,176)"
 d="M 97.933333,553.997458
 A 23.430749 23.430749 0 0 0 97.933333,517.997458" />
<path stroke-width="1.333333"
 d="M 97.933333,553.997458
 A 23.430749 23.430749 0 0 0 97.933333,517.997458" />
<polyline stroke-width="0" fill="rgb(171,224,176)"
 points="97.933333,517.997458
28.933333,517.997458" />
<line stroke-width="1.333333"
 x1="97.933333" y1="517.997458" x2="28.933333" y2="517.997458" />
<path stroke-width="0" fill="rgb(171,224,176)"
 d="M 28.933333,517.997458
 A 28.460499 28.460499 0 0 0 10.933333,535.997458" />
<path stroke-width="1.333333"
 d="M 28.933333,517.997458
 A 28.460499 28.460499 0 0 0 10.933333,535.997458" />
<path stroke-width="0" fill="rgb(171,224,176)"
 d="M 10.933333,535.997458
 A 28.460499 28.460499 0 0 0 28.933333,553.997458" />
<path stroke-width="1.333333"
 d="M 10.933333,535.997458
 A 28.460499 28.460499 0 0 0 28.933333,553.997458" />
<polyline stroke-width="0" fill="rgb(171,224,176)"
 points="28.933333,553.997458
97.933333,553.997458" />
<line stroke-width="1.333333"
 x1="28.933333" y1="553.997458" x2="97.933333" y2="553.997458" />
<text font-size="11pt" stroke-width="0.266667"
 fill="black"
 x="58.933333" y="541.204125"
><tspan font-family="Courier">Fdisplay</tspan></text>
<rect fill="rgb(217,191,217)" stroke-width="1.333333"
 stroke="none"
 x="16.582801" y="578.329546" width="90.350532" height="36" />
<path stroke-width="0" fill="rgb(217,191,217)"
 d="M 16.582801,578.329546
 A 31.5 31.5 0 0 0 16.582801,614.329546" />
<path stroke-width="1.333333"
 d="M 16.582801,578.329546
 A 31.5 31.5 0 0 0 16.582801,614.329546" />
<circle stroke-width="0.666667"
 cx="16.582801" cy="614.329546" r="0.332088" />
<line stroke-width="1.333333"
 x1="16.582801" y1="614.329546" x2="106.933333" y2="614.329546" />
<circle stroke-width="0.666667"
 cx="106.933333" cy="614.329546" r="0.332088" />
<path stroke-width="0" fill="white"
 d="M 106.933333,614.329546
 A 31.5 31.5 0 0 1 106.933333,578.329546" />
<path stroke-width="1.333333"
 d="M 106.933333,614.329546
 A 31.5 31.5 0 0 1 106.933333,578.329546" />
<circle stroke-width="0.666667"
 cx="106.933333" cy="578.329546" r="0.332088" />
<polyline stroke-width="0" fill="rgb(217,191,217)"
 points="106.933333,578.329546
16.582801,578.329546" />
<line stroke-width="1.333333"
 x1="106.933333" y1="578.329546" x2="16.582801" y2="578.329546" />
<circle stroke-width="0.666667"
 cx="16.582801" cy="578.329546" r="0.332088" />
<text font-size="11pt" stroke-width="0.266667"
 fill="black"
 x="58.933333" y="601.536213"
><tspan font-family="Courier">Fstored</tspan></text>
<polyline stroke-width="0" fill="rgb(217,191,217)"
 points="19.933333,638.661634
10.933333,638.661634
10.933333,674.661634
28.933333,674.661634
46.933333,656.661634
28.933333,638.661634
19.933333,638.661634" />
<polyline stroke-width="1.333333"
 points="19.933333,638.661634 10.933333,638.661634
10.933333,674.661634
28.933333,674.661634
46.933333,656.661634
28.933333,638.661634
19.933333,638.661634" />
<polyline stroke-width="0" fill="rgb(217,191,217)"
 points="59.297294,643.933712
52.933333,650.297673
78.389177,675.753517
91.1171,663.025595
91.1171,637.569751
65.661255,637.569751
59.297294,643.933712" />
<polyline stroke-width="1.333333"
 points="59.297294,643.933712 52.933333,650.297673
78.389177,675.753517
91.1171,663.025595
91.1171,637.569751
65.661255,637.569751
59.297294,643.933712" />
<text font-size="11pt" stroke-width="0.266667"
 fill="black"
 x="75.207197" y="658.68632">45</text>
<text font-size="11pt" stroke-width="0.266667"
 fill="black"
 x="52.933333" y="634.776418"
><tspan font-family="Courier">Fconnect</tspan></text>
<polyline stroke-width="0" fill="rgb(230,230,230)"
 points="202.133333,27.013333
221.333333,39.613333
182.933333,64.813333
144.533333,39.613333
182.933333,14.413333
202.133333,27.013333" />
<polyline stroke-width="1.333333"
 points="202.133333,27.013333 221.333333,39.613333
182.933333,64.813333
144.533333,39.613333
182.933333,14.413333
202.133333,27.013333" />
<text font-size="11pt" stroke-width="0.266667"
 fill="black"
 x="182.933333" y="44.82">Test 1</text>
<rect fill="rgb(217,191,217)" stroke-width="1.333333"
 x="245.333333" y="21.613333" width="96" height="36" />
<text font-size="11pt" stroke-width="0.2pt" fill="black" x="293.333333" y="44.82">Task 1</text>
<polygon stroke-width="0" fill="black"
 points="295.733333,64.013333 293.333333,73.613333
290.933333,64.013333" />
<line stroke-width="1.333333"
 x1="293.333333" y1="57.613333" x2="293.333333" y2="70.864596" />
<rect fill="rgb(217,191,217)" stroke-width="1.333333"
 x="245.333333" y="73.613333" width="96" height="36" />
<text font-size="11pt" stroke-width="0.2pt" fill="black" x="293.333333" y="96.82">Task 1.5</text>
<polygon stroke-width="0" fill="black"
 points="235.733333,37.213333 245.333333,39.613333
235.733333,42.013333" />
<polyline stroke-width="1.333333"
 points="221.333333,39.613333 233.333333,39.613333
233.333333,39.613333
242.584596,39.613333" />
<polygon stroke-width="0" fill="black"
 points="185.333333,116.013333 182.933333,125.613333
180.533333,116.013333" />
<line stroke-width="1.333333"
 x1="182.933333" y1="64.813333" x2="182.933333" y2="122.864596" />
<polyline stroke-width="0" fill="rgb(230,230,230)"
 points="202.133333,138.213333
221.333333,150.813333
182.933333,176.013333
144.533333,150.813333
182.933333,125.613333
202.133333,138.213333" />
<polyline stroke-width="1.333333"
 points="202.133333,138.213333 221.333333,150.813333
182.933333,176.013333
144.533333,150.813333
182.933333,125.613333
202.133333,138.213333" />
<text font-size="11pt" stroke-width="0.266667"
 fill="black"
 x="182.933333" y="156.02">Test 2</text>
<rect fill="rgb(33,179,171)" stroke-width="1.333333"
 x="245.333333" y="132.813333" width="115.2" height="54" />
<text font-size="11pt" stroke-width="0.2pt" fill="black" x="302.933333" y="157.686667">Task 2</text>
<text font-size="11pt" stroke-width="0.2pt" fill="black" x="302.933333" y="172.353333">is bigger</text>
<polygon stroke-width="0" fill="black"
 points="235.733333,157.413333 245.333333,159.813333
235.733333,162.213333" />
<polyline stroke-width="1.333333"
 points="221.333333,150.813333 233.333333,150.813333
233.333333,159.813333
242.584596,159.813333" />
<polygon stroke-width="0" fill="black"
 points="185.333333,193.213333 182.933333,202.813333
180.533333,193.213333" />
<line stroke-width="1.333333"
 x1="182.933333" y1="176.013333" x2="182.933333" y2="200.064596" />
<polyline stroke-width="0" fill="rgb(230,230,230)"
 points="202.133333,215.413333
221.333333,228.013333
182.933333,253.213333
144.533333,228.013333
182.933333,202.813333
202.133333,215.413333" />
<polyline stroke-width="1.333333"
 points="202.133333,215.413333 221.333333,228.013333
182.933333,253.213333
144.533333,228.013333
182.933333,202.813333
202.133333,215.413333" />
<text font-size="11pt" stroke-width="0.266667"
 fill="black"
 x="182.933333" y="233.22">Test 3</text>
<rect fill="rgb(207,0,89)" stroke-width="1.333333"
 x="245.333333" y="210.013333" width="96" height="36" />
<text font-size="11pt" stroke-width="0.2pt" fill="black" x="293.333333" y="233.22">Task 3</text>
<polygon stroke-width="0" fill="black"
 points="235.733333,225.613333 245.333333,228.013333
235.733333,230.413333" />
<polyline stroke-width="1.333333"
 points="221.333333,228.013333 233.333333,228.013333
233.333333,228.013333
242.584596,228.013333" />
<line stroke-width="1.333333"
 x1="182.933333" y1="253.213333" x2="182.933333" y2="269.213333" />
<polygon stroke-width="0" fill="black"
 points="374.933333,89.213333 384.533333,91.613333
374.933333,94.013333" />
<line stroke-width="1.333333"
 x1="341.333333" y1="91.613333" x2="381.784596" y2="91.613333" />
<polygon stroke-width="0" fill="black"
 points="374.933333,157.413333 384.533333,159.813333
374.933333,162.213333" />
<line stroke-width="1.333333"
 x1="360.533333" y1="159.813333" x2="381.784596" y2="159.813333" />
<polygon stroke-width="0" fill="black"
 points="374.933333,225.613333 384.533333,228.013333
374.933333,230.413333" />
<line stroke-width="1.333333"
 x1="341.333333" y1="228.013333" x2="381.784596" y2="228.013333" />
<polygon stroke-width="0" fill="black"
 points="192.533333,271.613333 182.933333,269.213333
192.533333,266.813333" />
<polyline stroke-width="1.333333"
 points="384.533333,91.613333 384.533333,269.213333
185.68207,269.213333" />
<text font-size="11pt" stroke-width="0.266667"
 fill="black"
 text-anchor="end"
 x="179.6" y="11.08"><tspan font-style="italic">.N</tspan></text>
<text font-size="11pt" stroke-width="0.266667"
 fill="black"
 text-anchor="end"
 x="179.6" y="282.96"><tspan font-style="italic">.S</tspan></text>
<text font-size="11pt" stroke-width="0.266667"
 fill="black"
 text-anchor="start"
 x="387.866667" y="96.82"><tspan font-style="italic">.E</tspan></text>
<text font-size="11pt" stroke-width="0.266667"
 fill="black"
 text-anchor="end"
 x="141.2" y="44.82"><tspan font-style="italic">.W</tspan></text>
<text font-size="11pt" stroke-width="0.266667"
 fill="black"
 x="265.733333" y="285.36"
><tspan font-family="Courier">Fcase</tspan></text>
<polyline stroke-width="0" fill="rgb(230,230,230)"
 points="468.533333,43.813333
487.733333,56.413333
449.333333,81.613333
410.933333,56.413333
449.333333,31.213333
468.533333,43.813333" />
<polyline stroke-width="1.333333"
 points="468.533333,43.813333 487.733333,56.413333
449.333333,81.613333
410.933333,56.413333
449.333333,31.213333
468.533333,43.813333" />
<text font-size="11pt" stroke-width="0.266667"
 fill="black"
 x="449.333333" y="61.62"
><tspan font-style="italic">i &#60; n</tspan></text>
<polygon stroke-width="0" fill="black"
 points="502.133333,54.013333 511.733333,56.413333
502.133333,58.813333" />
<line stroke-width="1.333333"
 x1="487.733333" y1="56.413333" x2="508.984596" y2="56.413333" />
<rect fill="rgb(230,230,230)"
 stroke-width="1.333333"
 x="511.733333" y="38.413333" width="96" height="36" />
<text font-size="11pt" stroke-width="0.2pt" fill="black" x="559.733333" y="61.62">Task</text>
<polygon stroke-width="0" fill="black"
 points="458.933333,19.213333 449.333333,16.813333
458.933333,14.413333" />
<polyline stroke-width="1.333333"
 points="559.733333,38.413333 559.733333,16.813333
452.08207,16.813333" />
<polygon stroke-width="0" fill="black"
 points="451.733333,21.613333 449.333333,31.213333
446.933333,21.613333" />
<line stroke-width="1.333333"
 x1="449.333333" y1="16.813333" x2="449.333333" y2="28.464596" />
<text font-size="11pt" stroke-width="0.266667"
 fill="black"
 text-anchor="start"
 x="491.066667" y="53.08">T</text>
<text font-size="11pt" stroke-width="0.266667"
 fill="black"
 text-anchor="end"
 x="446" y="22.02"><tspan font-style="italic">.N</tspan></text>
<text font-size="11pt" stroke-width="0.266667"
 fill="black"
 text-anchor="end"
 x="446" y="95.36"><tspan font-style="italic">.S</tspan></text>
<text font-size="11pt" stroke-width="0.266667"
 fill="black"
 text-anchor="start"
 x="611.066667" y="61.62"><tspan font-style="italic">.E</tspan></text>
<text font-size="11pt" stroke-width="0.266667"
 fill="black"
 text-anchor="end"
 x="407.6" y="61.62"><tspan font-style="italic">.W</tspan></text>
<text font-size="11pt" stroke-width="0.266667"
 fill="black"
 x="509.333333" y="95.36"
><tspan font-family="Courier">Fwhiledo</tspan></text>
<rect fill="rgb(230,230,230)"
 stroke-width="1.333333"
 x="434.933333" y="129.613333" width="96" height="36" />
<text font-size="11pt" stroke-width="0.2pt" fill="black" x="482.933333" y="152.82">Task</text>
<polygon stroke-width="0" fill="black"
 points="485.333333,172.013333 482.933333,181.613333
480.533333,172.013333" />
<line stroke-width="1.333333"
 x1="482.933333" y1="165.613333" x2="482.933333" y2="178.864596" />
<polyline stroke-width="0" fill="rgb(230,230,230)"
 points="502.133333,194.213333
521.333333,206.813333
482.933333,232.013333
444.533333,206.813333
482.933333,181.613333
502.133333,194.213333" />
<polyline stroke-width="1.333333"
 points="502.133333,194.213333 521.333333,206.813333
482.933333,232.013333
444.533333,206.813333
482.933333,181.613333
502.133333,194.213333" />
<text font-size="11pt" stroke-width="0.266667"
 fill="black"
 x="482.933333" y="212.02"
><tspan font-style="italic">n &#62; 5</tspan></text>
<polygon stroke-width="0" fill="black"
 points="540.533333,150.013333 530.933333,147.613333
540.533333,145.213333" />
<polyline stroke-width="1.333333"
 points="521.333333,206.813333 554.933333,206.813333
554.933333,147.613333
533.68207,147.613333" />
<text font-size="11pt" stroke-width="0.266667"
 fill="black"
 text-anchor="start"
 x="524.666667" y="203.48">T</text>
<text font-size="11pt" stroke-width="0.266667"
 fill="black"
 text-anchor="end"
 x="479.6" y="126.28"><tspan font-style="italic">.N</tspan></text>
<text font-size="11pt" stroke-width="0.266667"
 fill="black"
 text-anchor="end"
 x="479.6" y="245.76"><tspan font-style="italic">.S</tspan></text>
<text font-size="11pt" stroke-width="0.266667"
 fill="black"
 text-anchor="start"
 x="558.266667" y="152.82"><tspan font-style="italic">.E</tspan></text>
<text font-size="11pt" stroke-width="0.266667"
 fill="black"
 text-anchor="end"
 x="431.6" y="152.82"><tspan font-style="italic">.W</tspan></text>
<text font-size="11pt" stroke-width="0.266667"
 fill="black"
 x="557.333333" y="236.16"
><tspan font-family="Courier">Frepeatuntil</tspan></text>
<polyline stroke-width="0" fill="rgb(230,230,230)"
 points="521.333333,273.413333
540.533333,286.013333
502.133333,311.213333
463.733333,286.013333
502.133333,260.813333
521.333333,273.413333" />
<polyline stroke-width="1.333333"
 points="521.333333,273.413333 540.533333,286.013333
502.133333,311.213333
463.733333,286.013333
502.133333,260.813333
521.333333,273.413333" />
<text font-size="11pt" stroke-width="0.266667"
 fill="black"
 x="502.133333" y="291.22"
><tspan font-style="italic">A &#60; B</tspan></text>
<rect fill="rgb(230,230,230)"
 stroke-width="1.333333"
 x="386.933333" y="311.213333" width="96" height="36" />
<text font-size="11pt" stroke-width="0.2pt" fill="black" x="434.933333" y="334.42">False</text>
<polygon stroke-width="0" fill="black"
 points="437.333333,301.613333 434.933333,311.213333
432.533333,301.613333" />
<polyline stroke-width="1.333333"
 points="463.733333,286.013333 434.933333,286.013333
434.933333,308.464596" />
<rect fill="rgb(230,230,230)"
 stroke-width="1.333333"
 x="521.333333" y="311.213333" width="96" height="43.2" />
<text font-size="11pt" stroke-width="0.2pt" fill="black" x="569.333333" y="338.02">True</text>
<polygon stroke-width="0" fill="black"
 points="571.733333,301.613333 569.333333,311.213333
566.933333,301.613333" />
<polyline stroke-width="1.333333"
 points="540.533333,286.013333 569.333333,286.013333
569.333333,308.464596" />
<polygon stroke-width="0" fill="black"
 points="437.333333,360.813333 434.933333,370.413333
432.533333,360.813333" />
<line stroke-width="1.333333"
 x1="434.933333" y1="347.213333" x2="434.933333" y2="367.664596" />
<polygon stroke-width="0" fill="black"
 points="571.733333,360.813333 569.333333,370.413333
566.933333,360.813333" />
<line stroke-width="1.333333"
 x1="569.333333" y1="354.413333" x2="569.333333" y2="367.664596" />
<line stroke-width="1.333333"
 x1="569.333333" y1="370.413333" x2="434.933333" y2="370.413333" />
<text font-size="11pt" stroke-width="0.266667"
 fill="black"
 text-anchor="end"
 x="498.8" y="257.48"><tspan font-style="italic">.N</tspan></text>
<text font-size="11pt" stroke-width="0.266667"
 fill="black"
 text-anchor="end"
 x="498.8" y="384.16"><tspan font-style="italic">.S</tspan></text>
<text font-size="11pt" stroke-width="0.266667"
 fill="black"
 text-anchor="start"
 x="620.666667" y="338.02"><tspan font-style="italic">.E</tspan></text>
<text font-size="11pt" stroke-width="0.266667"
 fill="black"
 text-anchor="end"
 x="383.6" y="334.42"><tspan font-style="italic">.W</tspan></text>
<text font-size="11pt" stroke-width="0.266667"
 fill="black"
 x="502.133333" y="398.56"
><tspan font-family="Courier">Fifthenelse</tspan></text>
<ellipse fill="rgb(173,255,46)" stroke-width="1.333333"
 cx="164.533333" cy="324.413333" rx="36" ry="24" />
<text font-size="11pt" stroke-width="0.2pt" fill="black" x="164.533333" y="329.62">Start</text>
<polygon stroke-width="0" fill="black"
 points="214.933333,322.013333 224.533333,324.413333
214.933333,326.813333" />
<line stroke-width="1.333333"
 x1="200.533333" y1="324.413333" x2="221.784596" y2="324.413333" />
<rect fill="rgb(230,230,230)"
 stroke-width="1.333333"
 x="224.533333" y="306.413333" width="96" height="36" />
<text font-size="11pt" stroke-width="0.2pt" fill="black" x="272.533333" y="329.62">First task</text>
<polygon stroke-width="0" fill="black"
 points="274.933333,356.813333 272.533333,366.413333
270.133333,356.813333" />
<line stroke-width="1.333333"
 x1="272.533333" y1="342.413333" x2="272.533333" y2="363.664596" />
<polyline stroke-width="0" fill="rgb(230,230,230)"
 points="291.733333,379.013333
310.933333,391.613333
272.533333,416.813333
234.133333,391.613333
272.533333,366.413333
291.733333,379.013333" />
<polyline stroke-width="1.333333"
 points="291.733333,379.013333 310.933333,391.613333
272.533333,416.813333
234.133333,391.613333
272.533333,366.413333
291.733333,379.013333" />
<text font-size="11pt" stroke-width="0.266667"
 fill="black"
 x="272.533333" y="396.82">Test 1</text>
<rect fill="rgb(230,230,230)"
 stroke-width="1.333333"
 x="130.933333" y="416.813333" width="96" height="36" />
<text font-size="11pt" stroke-width="0.2pt" fill="black" x="178.933333" y="440.02">Task</text>
<polygon stroke-width="0" fill="black"
 points="181.333333,459.213333 178.933333,468.813333
176.533333,459.213333" />
<line stroke-width="1.333333"
 x1="178.933333" y1="452.813333" x2="178.933333" y2="466.064596" />
<polyline stroke-width="0" fill="rgb(217,166,33)"
 points="198.133333,481.413333
217.333333,494.013333
178.933333,519.213333
140.533333,494.013333
178.933333,468.813333
198.133333,481.413333" />
<polyline stroke-width="1.333333"
 points="198.133333,481.413333 217.333333,494.013333
178.933333,519.213333
140.533333,494.013333
178.933333,468.813333
198.133333,481.413333" />
<text font-size="11pt" stroke-width="0.266667"
 fill="black"
 x="178.933333" y="499.22"
><tspan font-style="italic">i &#8805; 5</tspan></text>
<polygon stroke-width="0" fill="black"
 points="236.533333,437.213333 226.933333,434.813333
236.533333,432.413333" />
<polyline stroke-width="1.333333"
 points="217.333333,494.013333 250.933333,494.013333
250.933333,434.813333
229.68207,434.813333" />
<polygon stroke-width="0" fill="black"
 points="181.333333,407.213333 178.933333,416.813333
176.533333,407.213333" />
<polyline stroke-width="1.333333"
 points="234.133333,391.613333 178.933333,391.613333
178.933333,414.064596" />
<polyline stroke-width="0" fill="rgb(217,166,33)"
 points="426.133333,429.413333
445.333333,442.013333
406.933333,467.213333
368.533333,442.013333
406.933333,416.813333
426.133333,429.413333" />
<polyline stroke-width="1.333333"
 points="426.133333,429.413333 445.333333,442.013333
406.933333,467.213333
368.533333,442.013333
406.933333,416.813333
426.133333,429.413333" />
<text font-size="11pt" stroke-width="0.266667"
 fill="black"
 x="406.933333" y="447.22"
><tspan font-style="italic">A &#60; B</tspan></text>
<rect fill="rgb(230,230,230)"
 stroke-width="1.333333"
 x="291.733333" y="467.213333" width="96" height="36" />
<text font-size="11pt" stroke-width="0.2pt" fill="black" x="339.733333" y="490.42">Left</text>
<polygon stroke-width="0" fill="black"
 points="342.133333,457.613333 339.733333,467.213333
337.333333,457.613333" />
<polyline stroke-width="1.333333"
 points="368.533333,442.013333 339.733333,442.013333
339.733333,464.464596" />
<rect fill="rgb(230,230,230)"
 stroke-width="1.333333"
 x="426.133333" y="467.213333" width="96" height="36" />
<text font-size="11pt" stroke-width="0.2pt" fill="black" x="474.133333" y="490.42">Right</text>
<polygon stroke-width="0" fill="black"
 points="476.533333,457.613333 474.133333,467.213333
471.733333,457.613333" />
<polyline stroke-width="1.333333"
 points="445.333333,442.013333 474.133333,442.013333
474.133333,464.464596" />
<polygon stroke-width="0" fill="black"
 points="342.133333,509.613333 339.733333,519.213333
337.333333,509.613333" />
<line stroke-width="1.333333"
 x1="339.733333" y1="503.213333" x2="339.733333" y2="516.464596" />
<polygon stroke-width="0" fill="black"
 points="476.533333,509.613333 474.133333,519.213333
471.733333,509.613333" />
<line stroke-width="1.333333"
 x1="474.133333" y1="503.213333" x2="474.133333" y2="516.464596" />
<line stroke-width="1.333333"
 x1="474.133333" y1="519.213333" x2="339.733333" y2="519.213333" />
<text font-size="11pt" stroke-width="0.266667"
 fill="black"
 text-anchor="start"
 x="448.666667" y="438.68">T</text>
<polygon stroke-width="0" fill="black"
 points="409.333333,407.213333 406.933333,416.813333
404.533333,407.213333" />
<polyline stroke-width="1.333333"
 points="310.933333,391.613333 406.933333,391.613333
406.933333,414.064596" />
<polygon stroke-width="0" fill="black"
 points="181.333333,525.613333 178.933333,535.213333
176.533333,525.613333" />
<line stroke-width="1.333333"
 x1="178.933333" y1="519.213333" x2="178.933333" y2="532.464596" />
<polygon stroke-width="0" fill="black"
 points="409.333333,525.613333 406.933333,535.213333
404.533333,525.613333" />
<line stroke-width="1.333333"
 x1="406.933333" y1="519.213333" x2="406.933333" y2="532.464596" />
<line stroke-width="1.333333"
 x1="406.933333" y1="535.213333" x2="178.933333" y2="535.213333" />
<text font-size="11pt" stroke-width="0.266667"
 fill="black"
 text-anchor="start"
 x="314.266667" y="388.28">T</text>
<polygon stroke-width="0" fill="black"
 points="274.933333,549.613333 272.533333,559.213333
270.133333,549.613333" />
<line stroke-width="1.333333"
 x1="272.533333" y1="535.213333" x2="272.533333" y2="556.464596" />
<text font-size="11pt" stroke-width="0.266667"
 fill="black"
 text-anchor="start"
 x="285.466667" y="555.88"
><tspan font-style="italic">Compound statements</tspan></text>
<ellipse fill="green" stroke-width="1.333333"
 cx="146.533333" cy="655.213333" rx="18" ry="12" />
<polygon stroke-width="0" fill="black"
 points="178.933333,652.813333 188.533333,655.213333
178.933333,657.613333" />
<line stroke-width="1.333333"
 x1="164.533333" y1="655.213333" x2="185.784596" y2="655.213333" />
<rect fill="rgb(230,230,230)"
 stroke-width="1.333333"
 x="188.533333" y="637.213333" width="96" height="36" />
<text font-size="11pt" stroke-width="0.2pt" fill="black" x="236.533333" y="660.42">Planejamento</text>
<rect fill="rgb(230,230,230)"
 stroke-width="1.333333"
 x="356.533333" y="637.213333" width="96" height="36" />
<text font-size="11pt" stroke-width="0.2pt" fill="black" x="404.533333" y="660.42">Execu&#231;&#227;o</text>
<rect fill="rgb(230,230,230)"
 stroke-width="1.333333"
 x="524.533333" y="637.213333" width="96" height="36" />
<text font-size="11pt" stroke-width="0.2pt" fill="black" x="572.533333" y="660.42">Sele&#231;&#227;o</text>
<polyline stroke-width="0" fill="rgb(173,255,46)"
 points="356.533333,583.213333
392.533333,601.213333
320.533333,637.213333
248.533333,601.213333
320.533333,565.213333
356.533333,583.213333" />
<polyline stroke-width="1.333333"
 points="356.533333,583.213333 392.533333,601.213333
320.533333,637.213333
248.533333,601.213333
320.533333,565.213333
356.533333,583.213333" />
<text font-size="11pt" stroke-width="0.266667"
 fill="black"
 x="320.533333" y="599.086667">Avalia&#231;&#227;o do</text>
<text font-size="11pt" stroke-width="0.266667"
 fill="black"
 x="320.533333" y="613.753333">Planejamento</text>
<text font-size="11pt" stroke-width="0.266667"
 fill="black"
 text-anchor="start"
 x="395.866667" y="597.88">Correto</text>
<text font-size="11pt" stroke-width="0.266667"
 fill="black"
 text-anchor="end"
 x="245.2" y="597.88">Incompleto</text>
<polygon stroke-width="0" fill="black"
 points="318.133333,646.813333 320.533333,637.213333
322.933333,646.813333" />
<polyline stroke-width="1.333333"
 points="284.533333,655.213333 320.533333,655.213333
320.533333,639.96207" />
<polygon stroke-width="0" fill="black"
 points="238.933333,627.613333 236.533333,637.213333
234.133333,627.613333" />
<polyline stroke-width="1.333333"
 points="248.533333,601.213333 236.533333,601.213333
236.533333,634.464596" />
<polygon stroke-width="0" fill="black"
 points="406.933333,627.613333 404.533333,637.213333
402.133333,627.613333" />
<polyline stroke-width="1.333333"
 points="392.533333,601.213333 404.533333,601.213333
404.533333,634.464596" />
<polyline stroke-width="0" fill="rgb(173,255,46)"
 points="524.533333,691.213333
560.533333,709.213333
488.533333,745.213333
416.533333,709.213333
488.533333,673.213333
524.533333,691.213333" />
<polyline stroke-width="1.333333"
 points="524.533333,691.213333 560.533333,709.213333
488.533333,745.213333
416.533333,709.213333
488.533333,673.213333
524.533333,691.213333" />
<text font-size="11pt" stroke-width="0.266667"
 fill="black"
 x="488.533333" y="707.086667">Avalia&#231;&#227;o da</text>
<text font-size="11pt" stroke-width="0.266667"
 fill="black"
 x="488.533333" y="721.753333">Execu&#231;&#227;o</text>
<text font-size="11pt" stroke-width="0.266667"
 fill="black"
 text-anchor="start"
 x="563.866667" y="722.96">Correto</text>
<text font-size="11pt" stroke-width="0.266667"
 fill="black"
 text-anchor="end"
 x="413.2" y="722.96">Incompleto</text>
<polygon stroke-width="0" fill="black"
 points="490.933333,663.613333 488.533333,673.213333
486.133333,663.613333" />
<polyline stroke-width="1.333333"
 points="452.533333,655.213333 488.533333,655.213333
488.533333,670.464596" />
<polygon stroke-width="0" fill="black"
 points="402.133333,682.813333 404.533333,673.213333
406.933333,682.813333" />
<polyline stroke-width="1.333333"
 points="416.533333,709.213333 404.533333,709.213333
404.533333,675.96207" />
<polygon stroke-width="0" fill="black"
 points="570.133333,682.813333 572.533333,673.213333
574.933333,682.813333" />
<polyline stroke-width="1.333333"
 points="560.533333,709.213333 572.533333,709.213333
572.533333,675.96207" />
<rect fill="rgb(230,230,230)"
 stroke-width="1.333333"
 x="524.533333" y="577.213333" width="96" height="36" />
<text font-size="11pt" stroke-width="0.2pt" fill="black" x="572.533333" y="600.42">Extra&#231;&#227;o</text>
<polygon stroke-width="0" fill="black"
 points="570.133333,622.813333 572.533333,613.213333
574.933333,622.813333" />
<line stroke-width="1.333333"
 x1="572.533333" y1="637.213333" x2="572.533333" y2="615.96207" />
<polygon stroke-width="0" fill="black"
 points="570.133333,562.813333 572.533333,553.213333
574.933333,562.813333" />
<line stroke-width="1.333333"
 x1="572.533333" y1="577.213333" x2="572.533333" y2="555.96207" />
<rect fill="rgb(230,230,230)"
 stroke-width="1.333333"
 x="524.533333" y="517.213333" width="96" height="36" />
<text font-size="11pt" stroke-width="0.2pt" fill="black" x="572.533333" y="540.42">Conclus&#227;o</text>
<polygon stroke-width="0" fill="black"
 points="570.133333,502.813333 572.533333,493.213333
574.933333,502.813333" />
<line stroke-width="1.333333"
 x1="572.533333" y1="517.213333" x2="572.533333" y2="495.96207" />
<ellipse fill="red" stroke-width="1.333333"
 cx="572.533333" cy="481.213333" rx="18" ry="12" />
</g>
</g></svg>
