<?xml version="1.0" encoding="UTF-8" standalone="no"?>
<!DOCTYPE svg PUBLIC "-//W3C//DTD SVG 1.1//EN"
"http://www.w3.org/Graphics/SVG/1.1/DTD/svg11.dtd">
<!-- Creator: dpic version 2022.12.01 option -v for SVG 1.1 -->
<!-- width="852" height="607" -->
<svg
 xmlns="http://www.w3.org/2000/svg" xmlns:xlink="http://www.w3.org/1999/xlink"
 xml:space="preserve"
 style="shape-rendering:geometricPrecision; text-rendering:geometricPrecision;
 image-rendering:optimizeQuality; fill-rule:evenodd; clip-rule:evenodd"
 width="851.2px" height="605.991072px"
 viewBox="0 0 851.2 605.991072"
 font-size="11pt" text-anchor="middle"
 stroke="black" stroke-miterlimit="10" stroke-width="1.066667" fill="none">
<g>
<g style="font-family:Helvetica"
>
<line stroke-width="0.533333"
 stroke="lightgray"
 x1="17.066667" y1="594.055829" x2="17.066667" y2="18.055829" />
<line stroke-width="0.533333"
 stroke="lightgray"
 x1="25.066667" y1="594.055829" x2="25.066667" y2="18.055829" />
<line stroke-width="0.533333"
 stroke="lightgray"
 x1="33.066667" y1="594.055829" x2="33.066667" y2="18.055829" />
<line stroke-width="0.533333"
 stroke="lightgray"
 x1="41.066667" y1="594.055829" x2="41.066667" y2="18.055829" />
<line stroke-width="0.533333"
 stroke="lightgray"
 x1="49.066667" y1="594.055829" x2="49.066667" y2="18.055829" />
<line stroke-width="0.533333"
 stroke="lightgray"
 x1="57.066667" y1="594.055829" x2="57.066667" y2="18.055829" />
<line stroke-width="0.533333"
 stroke="lightgray"
 x1="65.066667" y1="594.055829" x2="65.066667" y2="18.055829" />
<line stroke-width="0.533333"
 stroke="lightgray"
 x1="73.066667" y1="594.055829" x2="73.066667" y2="18.055829" />
<line stroke-width="0.533333"
 stroke="lightgray"
 x1="81.066667" y1="594.055829" x2="81.066667" y2="18.055829" />
<line stroke-width="0.533333"
 stroke="lightgray"
 x1="89.066667" y1="594.055829" x2="89.066667" y2="18.055829" />
<line stroke-width="0.533333"
 stroke="lightgray"
 x1="97.066667" y1="594.055829" x2="97.066667" y2="18.055829" />
<line stroke-width="0.533333"
 stroke="lightgray"
 x1="105.066667" y1="594.055829" x2="105.066667" y2="18.055829" />
<line stroke-width="0.533333"
 stroke="lightgray"
 x1="113.066667" y1="594.055829" x2="113.066667" y2="18.055829" />
<line stroke-width="0.533333"
 stroke="lightgray"
 x1="121.066667" y1="594.055829" x2="121.066667" y2="18.055829" />
<line stroke-width="0.533333"
 stroke="lightgray"
 x1="129.066667" y1="594.055829" x2="129.066667" y2="18.055829" />
<line stroke-width="0.533333"
 stroke="lightgray"
 x1="137.066667" y1="594.055829" x2="137.066667" y2="18.055829" />
<line stroke-width="0.533333"
 stroke="lightgray"
 x1="145.066667" y1="594.055829" x2="145.066667" y2="18.055829" />
<line stroke-width="0.533333"
 stroke="lightgray"
 x1="153.066667" y1="594.055829" x2="153.066667" y2="18.055829" />
<line stroke-width="0.533333"
 stroke="lightgray"
 x1="161.066667" y1="594.055829" x2="161.066667" y2="18.055829" />
<line stroke-width="0.533333"
 stroke="lightgray"
 x1="169.066667" y1="594.055829" x2="169.066667" y2="18.055829" />
<line stroke-width="0.533333"
 stroke="lightgray"
 x1="177.066667" y1="594.055829" x2="177.066667" y2="18.055829" />
<line stroke-width="0.533333"
 stroke="lightgray"
 x1="185.066667" y1="594.055829" x2="185.066667" y2="18.055829" />
<line stroke-width="0.533333"
 stroke="lightgray"
 x1="193.066667" y1="594.055829" x2="193.066667" y2="18.055829" />
<line stroke-width="0.533333"
 stroke="lightgray"
 x1="201.066667" y1="594.055829" x2="201.066667" y2="18.055829" />
<line stroke-width="0.533333"
 stroke="lightgray"
 x1="209.066667" y1="594.055829" x2="209.066667" y2="18.055829" />
<line stroke-width="0.533333"
 stroke="lightgray"
 x1="217.066667" y1="594.055829" x2="217.066667" y2="18.055829" />
<line stroke-width="0.533333"
 stroke="lightgray"
 x1="225.066667" y1="594.055829" x2="225.066667" y2="18.055829" />
<line stroke-width="0.533333"
 stroke="lightgray"
 x1="233.066667" y1="594.055829" x2="233.066667" y2="18.055829" />
<line stroke-width="0.533333"
 stroke="lightgray"
 x1="241.066667" y1="594.055829" x2="241.066667" y2="18.055829" />
<line stroke-width="0.533333"
 stroke="lightgray"
 x1="249.066667" y1="594.055829" x2="249.066667" y2="18.055829" />
<line stroke-width="0.533333"
 stroke="lightgray"
 x1="257.066667" y1="594.055829" x2="257.066667" y2="18.055829" />
<line stroke-width="0.533333"
 stroke="lightgray"
 x1="265.066667" y1="594.055829" x2="265.066667" y2="18.055829" />
<line stroke-width="0.533333"
 stroke="lightgray"
 x1="273.066667" y1="594.055829" x2="273.066667" y2="18.055829" />
<line stroke-width="0.533333"
 stroke="lightgray"
 x1="281.066667" y1="594.055829" x2="281.066667" y2="18.055829" />
<line stroke-width="0.533333"
 stroke="lightgray"
 x1="289.066667" y1="594.055829" x2="289.066667" y2="18.055829" />
<line stroke-width="0.533333"
 stroke="lightgray"
 x1="297.066667" y1="594.055829" x2="297.066667" y2="18.055829" />
<line stroke-width="0.533333"
 stroke="lightgray"
 x1="305.066667" y1="594.055829" x2="305.066667" y2="18.055829" />
<line stroke-width="0.533333"
 stroke="lightgray"
 x1="313.066667" y1="594.055829" x2="313.066667" y2="18.055829" />
<line stroke-width="0.533333"
 stroke="lightgray"
 x1="321.066667" y1="594.055829" x2="321.066667" y2="18.055829" />
<line stroke-width="0.533333"
 stroke="lightgray"
 x1="329.066667" y1="594.055829" x2="329.066667" y2="18.055829" />
<line stroke-width="0.533333"
 stroke="lightgray"
 x1="337.066667" y1="594.055829" x2="337.066667" y2="18.055829" />
<line stroke-width="0.533333"
 stroke="lightgray"
 x1="345.066667" y1="594.055829" x2="345.066667" y2="18.055829" />
<line stroke-width="0.533333"
 stroke="lightgray"
 x1="353.066667" y1="594.055829" x2="353.066667" y2="18.055829" />
<line stroke-width="0.533333"
 stroke="lightgray"
 x1="361.066667" y1="594.055829" x2="361.066667" y2="18.055829" />
<line stroke-width="0.533333"
 stroke="lightgray"
 x1="369.066667" y1="594.055829" x2="369.066667" y2="18.055829" />
<line stroke-width="0.533333"
 stroke="lightgray"
 x1="377.066667" y1="594.055829" x2="377.066667" y2="18.055829" />
<line stroke-width="0.533333"
 stroke="lightgray"
 x1="385.066667" y1="594.055829" x2="385.066667" y2="18.055829" />
<line stroke-width="0.533333"
 stroke="lightgray"
 x1="393.066667" y1="594.055829" x2="393.066667" y2="18.055829" />
<line stroke-width="0.533333"
 stroke="lightgray"
 x1="401.066667" y1="594.055829" x2="401.066667" y2="18.055829" />
<line stroke-width="0.533333"
 stroke="lightgray"
 x1="409.066667" y1="594.055829" x2="409.066667" y2="18.055829" />
<line stroke-width="0.533333"
 stroke="lightgray"
 x1="417.066667" y1="594.055829" x2="417.066667" y2="18.055829" />
<line stroke-width="0.533333"
 stroke="lightgray"
 x1="425.066667" y1="594.055829" x2="425.066667" y2="18.055829" />
<line stroke-width="0.533333"
 stroke="lightgray"
 x1="433.066667" y1="594.055829" x2="433.066667" y2="18.055829" />
<line stroke-width="0.533333"
 stroke="lightgray"
 x1="441.066667" y1="594.055829" x2="441.066667" y2="18.055829" />
<line stroke-width="0.533333"
 stroke="lightgray"
 x1="449.066667" y1="594.055829" x2="449.066667" y2="18.055829" />
<line stroke-width="0.533333"
 stroke="lightgray"
 x1="457.066667" y1="594.055829" x2="457.066667" y2="18.055829" />
<line stroke-width="0.533333"
 stroke="lightgray"
 x1="465.066667" y1="594.055829" x2="465.066667" y2="18.055829" />
<line stroke-width="0.533333"
 stroke="lightgray"
 x1="473.066667" y1="594.055829" x2="473.066667" y2="18.055829" />
<line stroke-width="0.533333"
 stroke="lightgray"
 x1="481.066667" y1="594.055829" x2="481.066667" y2="18.055829" />
<line stroke-width="0.533333"
 stroke="lightgray"
 x1="489.066667" y1="594.055829" x2="489.066667" y2="18.055829" />
<line stroke-width="0.533333"
 stroke="lightgray"
 x1="497.066667" y1="594.055829" x2="497.066667" y2="18.055829" />
<line stroke-width="0.533333"
 stroke="lightgray"
 x1="505.066667" y1="594.055829" x2="505.066667" y2="18.055829" />
<line stroke-width="0.533333"
 stroke="lightgray"
 x1="513.066667" y1="594.055829" x2="513.066667" y2="18.055829" />
<line stroke-width="0.533333"
 stroke="lightgray"
 x1="521.066667" y1="594.055829" x2="521.066667" y2="18.055829" />
<line stroke-width="0.533333"
 stroke="lightgray"
 x1="529.066667" y1="594.055829" x2="529.066667" y2="18.055829" />
<line stroke-width="0.533333"
 stroke="lightgray"
 x1="537.066667" y1="594.055829" x2="537.066667" y2="18.055829" />
<line stroke-width="0.533333"
 stroke="lightgray"
 x1="545.066667" y1="594.055829" x2="545.066667" y2="18.055829" />
<line stroke-width="0.533333"
 stroke="lightgray"
 x1="553.066667" y1="594.055829" x2="553.066667" y2="18.055829" />
<line stroke-width="0.533333"
 stroke="lightgray"
 x1="561.066667" y1="594.055829" x2="561.066667" y2="18.055829" />
<line stroke-width="0.533333"
 stroke="lightgray"
 x1="569.066667" y1="594.055829" x2="569.066667" y2="18.055829" />
<line stroke-width="0.533333"
 stroke="lightgray"
 x1="577.066667" y1="594.055829" x2="577.066667" y2="18.055829" />
<line stroke-width="0.533333"
 stroke="lightgray"
 x1="585.066667" y1="594.055829" x2="585.066667" y2="18.055829" />
<line stroke-width="0.533333"
 stroke="lightgray"
 x1="593.066667" y1="594.055829" x2="593.066667" y2="18.055829" />
<line stroke-width="0.533333"
 stroke="lightgray"
 x1="601.066667" y1="594.055829" x2="601.066667" y2="18.055829" />
<line stroke-width="0.533333"
 stroke="lightgray"
 x1="609.066667" y1="594.055829" x2="609.066667" y2="18.055829" />
<line stroke-width="0.533333"
 stroke="lightgray"
 x1="617.066667" y1="594.055829" x2="617.066667" y2="18.055829" />
<line stroke-width="0.533333"
 stroke="lightgray"
 x1="625.066667" y1="594.055829" x2="625.066667" y2="18.055829" />
<line stroke-width="0.533333"
 stroke="lightgray"
 x1="633.066667" y1="594.055829" x2="633.066667" y2="18.055829" />
<line stroke-width="0.533333"
 stroke="lightgray"
 x1="641.066667" y1="594.055829" x2="641.066667" y2="18.055829" />
<line stroke-width="0.533333"
 stroke="lightgray"
 x1="649.066667" y1="594.055829" x2="649.066667" y2="18.055829" />
<line stroke-width="0.533333"
 stroke="lightgray"
 x1="657.066667" y1="594.055829" x2="657.066667" y2="18.055829" />
<line stroke-width="0.533333"
 stroke="lightgray"
 x1="665.066667" y1="594.055829" x2="665.066667" y2="18.055829" />
<line stroke-width="0.533333"
 stroke="lightgray"
 x1="673.066667" y1="594.055829" x2="673.066667" y2="18.055829" />
<line stroke-width="0.533333"
 stroke="lightgray"
 x1="681.066667" y1="594.055829" x2="681.066667" y2="18.055829" />
<line stroke-width="0.533333"
 stroke="lightgray"
 x1="689.066667" y1="594.055829" x2="689.066667" y2="18.055829" />
<line stroke-width="0.533333"
 stroke="lightgray"
 x1="697.066667" y1="594.055829" x2="697.066667" y2="18.055829" />
<line stroke-width="0.533333"
 stroke="lightgray"
 x1="705.066667" y1="594.055829" x2="705.066667" y2="18.055829" />
<line stroke-width="0.533333"
 stroke="lightgray"
 x1="713.066667" y1="594.055829" x2="713.066667" y2="18.055829" />
<line stroke-width="0.533333"
 stroke="lightgray"
 x1="721.066667" y1="594.055829" x2="721.066667" y2="18.055829" />
<line stroke-width="0.533333"
 stroke="lightgray"
 x1="729.066667" y1="594.055829" x2="729.066667" y2="18.055829" />
<line stroke-width="0.533333"
 stroke="lightgray"
 x1="737.066667" y1="594.055829" x2="737.066667" y2="18.055829" />
<line stroke-width="0.533333"
 stroke="lightgray"
 x1="745.066667" y1="594.055829" x2="745.066667" y2="18.055829" />
<line stroke-width="0.533333"
 stroke="lightgray"
 x1="753.066667" y1="594.055829" x2="753.066667" y2="18.055829" />
<line stroke-width="0.533333"
 stroke="lightgray"
 x1="761.066667" y1="594.055829" x2="761.066667" y2="18.055829" />
<line stroke-width="0.533333"
 stroke="lightgray"
 x1="769.066667" y1="594.055829" x2="769.066667" y2="18.055829" />
<line stroke-width="0.533333"
 stroke="lightgray"
 x1="777.066667" y1="594.055829" x2="777.066667" y2="18.055829" />
<line stroke-width="0.533333"
 stroke="lightgray"
 x1="785.066667" y1="594.055829" x2="785.066667" y2="18.055829" />
<line stroke-width="0.533333"
 stroke="lightgray"
 x1="793.066667" y1="594.055829" x2="793.066667" y2="18.055829" />
<line stroke-width="0.533333"
 stroke="lightgray"
 x1="801.066667" y1="594.055829" x2="801.066667" y2="18.055829" />
<line stroke-width="0.533333"
 stroke="lightgray"
 x1="809.066667" y1="594.055829" x2="809.066667" y2="18.055829" />
<line stroke-width="0.533333"
 stroke="lightgray"
 x1="817.066667" y1="594.055829" x2="817.066667" y2="18.055829" />
<line stroke-width="0.533333"
 stroke="lightgray"
 x1="825.066667" y1="594.055829" x2="825.066667" y2="18.055829" />
<line stroke-width="0.533333"
 stroke="lightgray"
 x1="833.066667" y1="594.055829" x2="833.066667" y2="18.055829" />
<text font-size="6.973848pt" stroke-width="0.266667"
 fill="black"
 x="17.066667" y="603.324405">0</text>
<text font-size="6.973848pt" stroke-width="0.266667"
 fill="black"
 x="97.066667" y="603.324405">10</text>
<text font-size="6.973848pt" stroke-width="0.266667"
 fill="black"
 x="177.066667" y="603.324405">20</text>
<text font-size="6.973848pt" stroke-width="0.266667"
 fill="black"
 x="257.066667" y="603.324405">30</text>
<text font-size="6.973848pt" stroke-width="0.266667"
 fill="black"
 x="337.066667" y="603.324405">40</text>
<text font-size="6.973848pt" stroke-width="0.266667"
 fill="black"
 x="417.066667" y="603.324405">50</text>
<text font-size="6.973848pt" stroke-width="0.266667"
 fill="black"
 x="497.066667" y="603.324405">60</text>
<text font-size="6.973848pt" stroke-width="0.266667"
 fill="black"
 x="577.066667" y="603.324405">70</text>
<text font-size="6.973848pt" stroke-width="0.266667"
 fill="black"
 x="657.066667" y="603.324405">80</text>
<text font-size="6.973848pt" stroke-width="0.266667"
 fill="black"
 x="737.066667" y="603.324405">90</text>
<text font-size="6.973848pt" stroke-width="0.266667"
 fill="black"
 x="817.066667" y="603.324405">100</text>
<line stroke-width="0.533333"
 stroke="lightgray"
 x1="17.066667" y1="594.055829" x2="833.066667" y2="594.055829" />
<line stroke-width="0.533333"
 stroke="lightgray"
 x1="17.066667" y1="586.055829" x2="833.066667" y2="586.055829" />
<line stroke-width="0.533333"
 stroke="lightgray"
 x1="17.066667" y1="578.055829" x2="833.066667" y2="578.055829" />
<line stroke-width="0.533333"
 stroke="lightgray"
 x1="17.066667" y1="570.055829" x2="833.066667" y2="570.055829" />
<line stroke-width="0.533333"
 stroke="lightgray"
 x1="17.066667" y1="562.055829" x2="833.066667" y2="562.055829" />
<line stroke-width="0.533333"
 stroke="lightgray"
 x1="17.066667" y1="554.055829" x2="833.066667" y2="554.055829" />
<line stroke-width="0.533333"
 stroke="lightgray"
 x1="17.066667" y1="546.055829" x2="833.066667" y2="546.055829" />
<line stroke-width="0.533333"
 stroke="lightgray"
 x1="17.066667" y1="538.055829" x2="833.066667" y2="538.055829" />
<line stroke-width="0.533333"
 stroke="lightgray"
 x1="17.066667" y1="530.055829" x2="833.066667" y2="530.055829" />
<line stroke-width="0.533333"
 stroke="lightgray"
 x1="17.066667" y1="522.055829" x2="833.066667" y2="522.055829" />
<line stroke-width="0.533333"
 stroke="lightgray"
 x1="17.066667" y1="514.055829" x2="833.066667" y2="514.055829" />
<line stroke-width="0.533333"
 stroke="lightgray"
 x1="17.066667" y1="506.055829" x2="833.066667" y2="506.055829" />
<line stroke-width="0.533333"
 stroke="lightgray"
 x1="17.066667" y1="498.055829" x2="833.066667" y2="498.055829" />
<line stroke-width="0.533333"
 stroke="lightgray"
 x1="17.066667" y1="490.055829" x2="833.066667" y2="490.055829" />
<line stroke-width="0.533333"
 stroke="lightgray"
 x1="17.066667" y1="482.055829" x2="833.066667" y2="482.055829" />
<line stroke-width="0.533333"
 stroke="lightgray"
 x1="17.066667" y1="474.055829" x2="833.066667" y2="474.055829" />
<line stroke-width="0.533333"
 stroke="lightgray"
 x1="17.066667" y1="466.055829" x2="833.066667" y2="466.055829" />
<line stroke-width="0.533333"
 stroke="lightgray"
 x1="17.066667" y1="458.055829" x2="833.066667" y2="458.055829" />
<line stroke-width="0.533333"
 stroke="lightgray"
 x1="17.066667" y1="450.055829" x2="833.066667" y2="450.055829" />
<line stroke-width="0.533333"
 stroke="lightgray"
 x1="17.066667" y1="442.055829" x2="833.066667" y2="442.055829" />
<line stroke-width="0.533333"
 stroke="lightgray"
 x1="17.066667" y1="434.055829" x2="833.066667" y2="434.055829" />
<line stroke-width="0.533333"
 stroke="lightgray"
 x1="17.066667" y1="426.055829" x2="833.066667" y2="426.055829" />
<line stroke-width="0.533333"
 stroke="lightgray"
 x1="17.066667" y1="418.055829" x2="833.066667" y2="418.055829" />
<line stroke-width="0.533333"
 stroke="lightgray"
 x1="17.066667" y1="410.055829" x2="833.066667" y2="410.055829" />
<line stroke-width="0.533333"
 stroke="lightgray"
 x1="17.066667" y1="402.055829" x2="833.066667" y2="402.055829" />
<line stroke-width="0.533333"
 stroke="lightgray"
 x1="17.066667" y1="394.055829" x2="833.066667" y2="394.055829" />
<line stroke-width="0.533333"
 stroke="lightgray"
 x1="17.066667" y1="386.055829" x2="833.066667" y2="386.055829" />
<line stroke-width="0.533333"
 stroke="lightgray"
 x1="17.066667" y1="378.055829" x2="833.066667" y2="378.055829" />
<line stroke-width="0.533333"
 stroke="lightgray"
 x1="17.066667" y1="370.055829" x2="833.066667" y2="370.055829" />
<line stroke-width="0.533333"
 stroke="lightgray"
 x1="17.066667" y1="362.055829" x2="833.066667" y2="362.055829" />
<line stroke-width="0.533333"
 stroke="lightgray"
 x1="17.066667" y1="354.055829" x2="833.066667" y2="354.055829" />
<line stroke-width="0.533333"
 stroke="lightgray"
 x1="17.066667" y1="346.055829" x2="833.066667" y2="346.055829" />
<line stroke-width="0.533333"
 stroke="lightgray"
 x1="17.066667" y1="338.055829" x2="833.066667" y2="338.055829" />
<line stroke-width="0.533333"
 stroke="lightgray"
 x1="17.066667" y1="330.055829" x2="833.066667" y2="330.055829" />
<line stroke-width="0.533333"
 stroke="lightgray"
 x1="17.066667" y1="322.055829" x2="833.066667" y2="322.055829" />
<line stroke-width="0.533333"
 stroke="lightgray"
 x1="17.066667" y1="314.055829" x2="833.066667" y2="314.055829" />
<line stroke-width="0.533333"
 stroke="lightgray"
 x1="17.066667" y1="306.055829" x2="833.066667" y2="306.055829" />
<line stroke-width="0.533333"
 stroke="lightgray"
 x1="17.066667" y1="298.055829" x2="833.066667" y2="298.055829" />
<line stroke-width="0.533333"
 stroke="lightgray"
 x1="17.066667" y1="290.055829" x2="833.066667" y2="290.055829" />
<line stroke-width="0.533333"
 stroke="lightgray"
 x1="17.066667" y1="282.055829" x2="833.066667" y2="282.055829" />
<line stroke-width="0.533333"
 stroke="lightgray"
 x1="17.066667" y1="274.055829" x2="833.066667" y2="274.055829" />
<line stroke-width="0.533333"
 stroke="lightgray"
 x1="17.066667" y1="266.055829" x2="833.066667" y2="266.055829" />
<line stroke-width="0.533333"
 stroke="lightgray"
 x1="17.066667" y1="258.055829" x2="833.066667" y2="258.055829" />
<line stroke-width="0.533333"
 stroke="lightgray"
 x1="17.066667" y1="250.055829" x2="833.066667" y2="250.055829" />
<line stroke-width="0.533333"
 stroke="lightgray"
 x1="17.066667" y1="242.055829" x2="833.066667" y2="242.055829" />
<line stroke-width="0.533333"
 stroke="lightgray"
 x1="17.066667" y1="234.055829" x2="833.066667" y2="234.055829" />
<line stroke-width="0.533333"
 stroke="lightgray"
 x1="17.066667" y1="226.055829" x2="833.066667" y2="226.055829" />
<line stroke-width="0.533333"
 stroke="lightgray"
 x1="17.066667" y1="218.055829" x2="833.066667" y2="218.055829" />
<line stroke-width="0.533333"
 stroke="lightgray"
 x1="17.066667" y1="210.055829" x2="833.066667" y2="210.055829" />
<line stroke-width="0.533333"
 stroke="lightgray"
 x1="17.066667" y1="202.055829" x2="833.066667" y2="202.055829" />
<line stroke-width="0.533333"
 stroke="lightgray"
 x1="17.066667" y1="194.055829" x2="833.066667" y2="194.055829" />
<line stroke-width="0.533333"
 stroke="lightgray"
 x1="17.066667" y1="186.055829" x2="833.066667" y2="186.055829" />
<line stroke-width="0.533333"
 stroke="lightgray"
 x1="17.066667" y1="178.055829" x2="833.066667" y2="178.055829" />
<line stroke-width="0.533333"
 stroke="lightgray"
 x1="17.066667" y1="170.055829" x2="833.066667" y2="170.055829" />
<line stroke-width="0.533333"
 stroke="lightgray"
 x1="17.066667" y1="162.055829" x2="833.066667" y2="162.055829" />
<line stroke-width="0.533333"
 stroke="lightgray"
 x1="17.066667" y1="154.055829" x2="833.066667" y2="154.055829" />
<line stroke-width="0.533333"
 stroke="lightgray"
 x1="17.066667" y1="146.055829" x2="833.066667" y2="146.055829" />
<line stroke-width="0.533333"
 stroke="lightgray"
 x1="17.066667" y1="138.055829" x2="833.066667" y2="138.055829" />
<line stroke-width="0.533333"
 stroke="lightgray"
 x1="17.066667" y1="130.055829" x2="833.066667" y2="130.055829" />
<line stroke-width="0.533333"
 stroke="lightgray"
 x1="17.066667" y1="122.055829" x2="833.066667" y2="122.055829" />
<line stroke-width="0.533333"
 stroke="lightgray"
 x1="17.066667" y1="114.055829" x2="833.066667" y2="114.055829" />
<line stroke-width="0.533333"
 stroke="lightgray"
 x1="17.066667" y1="106.055829" x2="833.066667" y2="106.055829" />
<line stroke-width="0.533333"
 stroke="lightgray"
 x1="17.066667" y1="98.055829" x2="833.066667" y2="98.055829" />
<line stroke-width="0.533333"
 stroke="lightgray"
 x1="17.066667" y1="90.055829" x2="833.066667" y2="90.055829" />
<line stroke-width="0.533333"
 stroke="lightgray"
 x1="17.066667" y1="82.055829" x2="833.066667" y2="82.055829" />
<line stroke-width="0.533333"
 stroke="lightgray"
 x1="17.066667" y1="74.055829" x2="833.066667" y2="74.055829" />
<line stroke-width="0.533333"
 stroke="lightgray"
 x1="17.066667" y1="66.055829" x2="833.066667" y2="66.055829" />
<line stroke-width="0.533333"
 stroke="lightgray"
 x1="17.066667" y1="58.055829" x2="833.066667" y2="58.055829" />
<line stroke-width="0.533333"
 stroke="lightgray"
 x1="17.066667" y1="50.055829" x2="833.066667" y2="50.055829" />
<line stroke-width="0.533333"
 stroke="lightgray"
 x1="17.066667" y1="42.055829" x2="833.066667" y2="42.055829" />
<line stroke-width="0.533333"
 stroke="lightgray"
 x1="17.066667" y1="34.055829" x2="833.066667" y2="34.055829" />
<line stroke-width="0.533333"
 stroke="lightgray"
 x1="17.066667" y1="26.055829" x2="833.066667" y2="26.055829" />
<line stroke-width="0.533333"
 stroke="lightgray"
 x1="17.066667" y1="18.055829" x2="833.066667" y2="18.055829" />
<text font-size="6.973848pt" stroke-width="0.266667"
 fill="black"
 text-anchor="end"
 x="14.4" y="597.356784">0</text>
<text font-size="6.973848pt" stroke-width="0.266667"
 fill="black"
 text-anchor="end"
 x="14.4" y="517.356784">10</text>
<text font-size="6.973848pt" stroke-width="0.266667"
 fill="black"
 text-anchor="end"
 x="14.4" y="437.356784">20</text>
<text font-size="6.973848pt" stroke-width="0.266667"
 fill="black"
 text-anchor="end"
 x="14.4" y="357.356784">30</text>
<text font-size="6.973848pt" stroke-width="0.266667"
 fill="black"
 text-anchor="end"
 x="14.4" y="277.356784">40</text>
<text font-size="6.973848pt" stroke-width="0.266667"
 fill="black"
 text-anchor="end"
 x="14.4" y="197.356784">50</text>
<text font-size="6.973848pt" stroke-width="0.266667"
 fill="black"
 text-anchor="end"
 x="14.4" y="117.356784">60</text>
<text font-size="6.973848pt" stroke-width="0.266667"
 fill="black"
 text-anchor="end"
 x="14.4" y="37.356784">70</text>
<path stroke-width="0" stroke="white"
 fill="white"
 d="M 17.066667,10.055829
 C 17.066667,11.389162 17.066667,12.722496 17.066667,14.055829 17.066667,16.722496
17.066667,37.255829 17.066667,75.655829 17.066667,114.055829
44.266667,133.255829 98.666667,133.255829 153.066667,133.255829
180.266667,152.455829 180.266667,190.855829 180.266667,229.255829
207.466667,248.455829 261.866667,248.455829 316.266667,248.455829
343.466667,267.655829 343.466667,306.055829 343.466667,344.455829
370.666667,363.655829 425.066667,363.655829 479.466667,363.655829
506.666667,382.855829 506.666667,421.255829 506.666667,459.655829
533.866667,478.855829 588.266667,478.855829 642.666667,478.855829
669.866667,498.055829 669.866667,536.455829 669.866667,574.855829
697.066667,594.055829 751.466667,594.055829 805.866667,594.055829
835.733333,594.055829 841.066667,594.055829 846.4,594.055829
849.066667,591.389162 849.066667,586.055829 849.066667,580.722496
849.066667,484.722496 849.066667,298.055829 849.066667,111.389162
849.066667,16.722496 849.066667,14.055829 849.066667,11.389162
847.733333,10.055829 845.066667,10.055829 843.733333,10.055829 842.4,10.055829
841.066667,10.055829" />
<path stroke="white"
 d="M 17.066667,10.055829
 C 17.066667,11.389162 17.066667,12.722496 17.066667,14.055829 17.066667,16.722496
17.066667,37.255829 17.066667,75.655829 17.066667,114.055829
44.266667,133.255829 98.666667,133.255829 153.066667,133.255829
180.266667,152.455829 180.266667,190.855829 180.266667,229.255829
207.466667,248.455829 261.866667,248.455829 316.266667,248.455829
343.466667,267.655829 343.466667,306.055829 343.466667,344.455829
370.666667,363.655829 425.066667,363.655829 479.466667,363.655829
506.666667,382.855829 506.666667,421.255829 506.666667,459.655829
533.866667,478.855829 588.266667,478.855829 642.666667,478.855829
669.866667,498.055829 669.866667,536.455829 669.866667,574.855829
697.066667,594.055829 751.466667,594.055829 805.866667,594.055829
835.733333,594.055829 841.066667,594.055829 846.4,594.055829
849.066667,591.389162 849.066667,586.055829 849.066667,580.722496
849.066667,484.722496 849.066667,298.055829 849.066667,111.389162
849.066667,16.722496 849.066667,14.055829 849.066667,11.389162
847.733333,10.055829 845.066667,10.055829 843.733333,10.055829 842.4,10.055829
841.066667,10.055829" />
<line x1="657.066667" y1="418.055829" x2="657.066667" y2="418.055829" />
<line x1="657.066667" y1="418.055829" x2="656.533333" y2="418.055829" />
<path d="M 657.066667,418.055829
 A 4 4 0 0 1 657.066667,426.055829" />
<line x1="657.066667" y1="426.055829" x2="656.533333" y2="426.055829" />
<path d="M 657.066667,426.055829
 A 4 4 0 1 1 657.066667,434.055829" />
<line x1="657.066667" y1="434.055829" x2="656.533333" y2="434.055829" />
<path d="M 657.066667,434.055829
 A 4 4 0 0 1 657.066667,442.055829" />
<line x1="657.066667" y1="442.055829" x2="656.533333" y2="442.055829" />
<path d="M 657.066667,442.055829
 A 4 4 0 0 1 657.066667,450.055829" />
<line x1="657.066667" y1="450.055829" x2="656.533333" y2="450.055829" />
<path d="M 657.066667,450.055829
 A 4 4 0 0 1 657.066667,458.055829" />
<line x1="657.066667" y1="458.055829" x2="656.533333" y2="458.055829" />
<path d="M 657.066667,458.055829
 A 4 4 0 0 1 657.066667,466.055829" />
<line x1="657.066667" y1="466.055829" x2="656.533333" y2="466.055829" />
<path d="M 657.066667,466.055829
 A 4 4 0 0 1 657.066667,474.055829" />
<line x1="657.066667" y1="474.055829" x2="656.533333" y2="474.055829" />
<path d="M 657.066667,474.055829
 A 4 4 0 1 1 657.066667,482.055829" />
<line x1="657.066667" y1="482.055829" x2="656.533333" y2="482.055829" />
<path d="M 657.066667,482.055829
 A 4 4 0 1 1 657.066667,490.055829" />
<line x1="657.066667" y1="490.055829" x2="656.533333" y2="490.055829" />
<path d="M 657.066667,490.055829
 A 4 4 0 1 1 657.066667,498.055829" />
<line x1="657.066667" y1="498.055829" x2="656.533333" y2="498.055829" />
<path d="M 657.066667,498.055829
 A 4 4 0 1 1 657.066667,506.055829" />
<line x1="657.066667" y1="506.055829" x2="656.533333" y2="506.055829" />
<path d="M 657.066667,506.055829
 A 4 4 0 1 1 657.066667,514.055829" />
<line x1="657.066667" y1="514.055829" x2="656.533333" y2="514.055829" />
<path d="M 657.066667,514.055829
 A 4 4 0 0 1 657.066667,522.055829" />
<line x1="657.066667" y1="522.055829" x2="656.533333" y2="522.055829" />
<line x1="657.066667" y1="522.055829" x2="657.066667" y2="522.055829" />
<line x1="657.066667" y1="250.055829" x2="657.066667" y2="250.055829" />
<line x1="657.066667" y1="250.055829" x2="656.533333" y2="250.055829" />
<path d="M 657.066667,250.055829
 A 4 4 0 0 1 657.066667,258.055829" />
<line x1="657.066667" y1="258.055829" x2="656.533333" y2="258.055829" />
<path d="M 657.066667,258.055829
 A 4 4 0 1 1 657.066667,266.055829" />
<line x1="657.066667" y1="266.055829" x2="656.533333" y2="266.055829" />
<path d="M 657.066667,266.055829
 A 4 4 0 0 1 657.066667,274.055829" />
<line x1="657.066667" y1="274.055829" x2="656.533333" y2="274.055829" />
<path d="M 657.066667,274.055829
 A 4 4 0 0 1 657.066667,282.055829" />
<line x1="657.066667" y1="282.055829" x2="656.533333" y2="282.055829" />
<path d="M 657.066667,282.055829
 A 4 4 0 0 1 657.066667,290.055829" />
<line x1="657.066667" y1="290.055829" x2="656.533333" y2="290.055829" />
<path d="M 657.066667,290.055829
 A 4 4 0 0 1 657.066667,298.055829" />
<line x1="657.066667" y1="298.055829" x2="656.533333" y2="298.055829" />
<path d="M 657.066667,298.055829
 A 4 4 0 0 1 657.066667,306.055829" />
<line x1="657.066667" y1="306.055829" x2="656.533333" y2="306.055829" />
<path d="M 657.066667,306.055829
 A 4 4 0 1 1 657.066667,314.055829" />
<line x1="657.066667" y1="314.055829" x2="656.533333" y2="314.055829" />
<path d="M 657.066667,314.055829
 A 4 4 0 1 1 657.066667,322.055829" />
<line x1="657.066667" y1="322.055829" x2="656.533333" y2="322.055829" />
<path d="M 657.066667,322.055829
 A 4 4 0 1 1 657.066667,330.055829" />
<line x1="657.066667" y1="330.055829" x2="656.533333" y2="330.055829" />
<line x1="657.066667" y1="330.055829" x2="657.066667" y2="330.055829" />
<line x1="657.066667" y1="154.055829" x2="657.066667" y2="154.055829" />
<line x1="657.066667" y1="154.055829" x2="656.533333" y2="154.055829" />
<path d="M 657.066667,154.055829
 A 4 4 0 0 1 657.066667,162.055829" />
<line x1="657.066667" y1="162.055829" x2="656.533333" y2="162.055829" />
<path d="M 657.066667,162.055829
 A 4 4 0 1 1 657.066667,170.055829" />
<line x1="657.066667" y1="170.055829" x2="656.533333" y2="170.055829" />
<path d="M 657.066667,170.055829
 A 4 4 0 0 1 657.066667,178.055829" />
<line x1="657.066667" y1="178.055829" x2="656.533333" y2="178.055829" />
<path d="M 657.066667,178.055829
 A 4 4 0 0 1 657.066667,186.055829" />
<line x1="657.066667" y1="186.055829" x2="656.533333" y2="186.055829" />
<path d="M 657.066667,186.055829
 A 4 4 0 0 1 657.066667,194.055829" />
<line x1="657.066667" y1="194.055829" x2="656.533333" y2="194.055829" />
<path d="M 657.066667,194.055829
 A 4 4 0 0 1 657.066667,202.055829" />
<line x1="657.066667" y1="202.055829" x2="656.533333" y2="202.055829" />
<path d="M 657.066667,202.055829
 A 4 4 0 0 1 657.066667,210.055829" />
<line x1="657.066667" y1="210.055829" x2="656.533333" y2="210.055829" />
<path d="M 657.066667,210.055829
 A 4 4 0 1 1 657.066667,218.055829" />
<line x1="657.066667" y1="218.055829" x2="656.533333" y2="218.055829" />
<path d="M 657.066667,218.055829
 A 4 4 0 1 1 657.066667,226.055829" />
<line x1="657.066667" y1="226.055829" x2="656.533333" y2="226.055829" />
<path d="M 657.066667,226.055829
 A 4 4 0 1 1 657.066667,234.055829" />
<line x1="657.066667" y1="234.055829" x2="656.533333" y2="234.055829" />
<line x1="663.2" y1="154.055829" x2="663.2" y2="234.055829" />
<line x1="666.4" y1="154.055829" x2="666.4" y2="234.055829" />
<line x1="657.066667" y1="234.055829" x2="657.066667" y2="234.055829" />
<line x1="663.2" y1="234.055829" x2="663.2" y2="522.055829" />
<line x1="666.4" y1="234.055829" x2="666.4" y2="522.055829" />
<line stroke-dasharray="5.6,4"
 x1="669.6" y1="154.055829" x2="669.6" y2="522.055829" />
<line x1="669.6" y1="522.055829" x2="669.6" y2="534.855829" />
<line x1="678.133333" y1="534.855829" x2="661.066667" y2="534.855829" />
<line x1="675.288889" y1="538.055829" x2="663.911111" y2="538.055829" />
<line x1="673.257143" y1="541.255829" x2="665.942857" y2="541.255829" />
<line x1="675.733333" y1="266.055829" x2="675.733333" y2="266.055829" />
<line x1="675.733333" y1="266.055829" x2="676.266667" y2="266.055829" />
<path d="M 675.733333,266.055829
 A 4 4 0 0 1 675.733333,258.055829" />
<line x1="675.733333" y1="258.055829" x2="676.266667" y2="258.055829" />
<path d="M 675.733333,258.055829
 A 4 4 0 0 1 675.733333,250.055829" />
<line x1="675.733333" y1="250.055829" x2="676.266667" y2="250.055829" />
<path d="M 675.733333,250.055829
 A 4 4 0 0 1 675.733333,242.055829" />
<line x1="675.733333" y1="242.055829" x2="676.266667" y2="242.055829" />
<path d="M 675.733333,242.055829
 A 4 4 0 0 1 675.733333,234.055829" />
<line x1="675.733333" y1="234.055829" x2="676.266667" y2="234.055829" />
<path d="M 675.733333,234.055829
 A 4 4 0 0 1 675.733333,226.055829" />
<line x1="675.733333" y1="226.055829" x2="676.266667" y2="226.055829" />
<line x1="675.733333" y1="226.055829" x2="675.733333" y2="226.055829" />
<line x1="675.733333" y1="322.055829" x2="675.733333" y2="322.055829" />
<line x1="675.733333" y1="322.055829" x2="676.266667" y2="322.055829" />
<path d="M 675.733333,322.055829
 A 4 4 0 0 1 675.733333,314.055829" />
<line x1="675.733333" y1="314.055829" x2="676.266667" y2="314.055829" />
<path d="M 675.733333,314.055829
 A 4 4 0 0 1 675.733333,306.055829" />
<line x1="675.733333" y1="306.055829" x2="676.266667" y2="306.055829" />
<path d="M 675.733333,306.055829
 A 4 4 0 0 1 675.733333,298.055829" />
<line x1="675.733333" y1="298.055829" x2="676.266667" y2="298.055829" />
<path d="M 675.733333,298.055829
 A 4 4 0 0 1 675.733333,290.055829" />
<line x1="675.733333" y1="290.055829" x2="676.266667" y2="290.055829" />
<path d="M 675.733333,290.055829
 A 4 4 0 0 1 675.733333,282.055829" />
<line x1="675.733333" y1="282.055829" x2="676.266667" y2="282.055829" />
<line x1="675.733333" y1="282.055829" x2="675.733333" y2="282.055829" />
<rect stroke-width="2.666667"
 stroke-dasharray="5.6,4"
 x="137.066667" y="98.055829" width="464" height="440" />
<text font-size="6.973848pt" stroke-width="0.2pt" fill="black" x="345.066667" y="520.707552">POWER SUPPLY</text>
<text font-size="6.973848pt" stroke-width="0.2pt" fill="black" x="345.066667" y="530.006016">CIRCUIT BOARD</text>
<line stroke-width="2.666667"
 stroke-dasharray="5.6,4"
 x1="297.066667" y1="538.055829" x2="297.066667" y2="506.055829" />
<line stroke-width="2.666667"
 stroke-dasharray="5.6,4"
 x1="297.066667" y1="506.055829" x2="393.066667" y2="506.055829" />
<line stroke-width="2.666667"
 stroke-dasharray="5.6,4"
 x1="393.066667" y1="506.055829" x2="393.066667" y2="538.055829" />
<rect fill="white"
 x="593.066667" y="514.055829" width="16" height="16" />
<text font-size="6.973848pt" stroke-width="0.2pt" fill="black" x="601.066667" y="525.356784">1</text>
<line x1="609.066667" y1="522.055829" x2="657.066667" y2="522.055829" />
<text font-size="6.973848pt" stroke-width="0.2pt" fill="black" x="633.066667" y="519.389162">RED</text>
<rect fill="white"
 x="593.066667" y="410.055829" width="16" height="16" />
<text font-size="6.973848pt" stroke-width="0.2pt" fill="black" x="601.066667" y="421.356784">2</text>
<line x1="609.066667" y1="418.055829" x2="657.066667" y2="418.055829" />
<text font-size="6.973848pt" stroke-width="0.2pt" fill="black" x="633.066667" y="415.389162">RED</text>
<rect fill="white"
 x="593.066667" y="322.055829" width="16" height="16" />
<text font-size="6.973848pt" stroke-width="0.2pt" fill="black" x="601.066667" y="333.356784">3</text>
<line x1="657.066667" y1="250.055829" x2="625.066667" y2="250.055829" />
<text font-size="6.973848pt" stroke-width="0.2pt" fill="black" x="641.066667" y="247.389162">GRN</text>
<line x1="625.066667" y1="250.055829" x2="625.066667" y2="262.855829" />
<line x1="633.6" y1="262.855829" x2="616.533333" y2="262.855829" />
<line x1="630.755556" y1="266.055829" x2="619.377778" y2="266.055829" />
<line x1="628.72381" y1="269.255829" x2="621.409524" y2="269.255829" />
<line x1="609.066667" y1="330.055829" x2="657.066667" y2="330.055829" />
<text font-size="6.973848pt" stroke-width="0.2pt" fill="black" x="633.066667" y="327.389162">GRN</text>
<polygon stroke-width="0" fill="black"
 points="653.302775,321.112933 649.066667,330.055829
648.595988,320.171576" />
<polygon stroke-width="0" fill="black"
 points="644.830558,258.998725 649.066667,250.055829
649.537345,259.940082" />
<path d="M 649.497924,327.899542
 C 650.092714,324.92559 650.687505,321.951638 651.282295,318.977686 652.471876,313.029781
651.733333,303.389162 649.066667,290.055829 646.4,276.722496
645.661457,267.081877 646.851038,261.133972 647.445828,258.16002 648.040619,255.186068
648.635409,252.212116" />
<rect fill="white"
 stroke="none"
 x="629.066667" y="286.055829" width="24" height="8" />
<text font-size="6.973848pt" stroke-width="0.2pt" fill="black" x="641.066667" y="293.356784">6 VAC</text>
<rect fill="white"
 x="593.066667" y="346.055829" width="16" height="16" />
<text font-size="6.973848pt" stroke-width="0.2pt" fill="black" x="601.066667" y="357.356784">4</text>
<line x1="609.066667" y1="354.055829" x2="633.066667" y2="354.055829" />
<text font-size="6.973848pt" stroke-width="0.2pt" fill="black" x="621.066667" y="351.389162">BRN</text>
<polygon stroke-width="0" fill="black"
 points="635.466667,363.655829 633.066667,370.055829
630.666667,363.655829" />
<line x1="633.066667" y1="354.055829" x2="633.066667" y2="368.536895" />
<text font-size="6.973848pt" stroke-width="0.266667"
 fill="black"
 x="633.066667" y="376.707552">TO DIAL</text>
<text font-size="6.973848pt" stroke-width="0.266667"
 fill="black"
 x="633.066667" y="386.006016">LAMPS</text>
<rect fill="white"
 x="593.066667" y="226.055829" width="16" height="16" />
<text font-size="6.973848pt" stroke-width="0.2pt" fill="black" x="601.066667" y="237.356784">5</text>
<line x1="609.066667" y1="234.055829" x2="657.066667" y2="234.055829" />
<text font-size="6.973848pt" stroke-width="0.2pt" fill="black" x="633.066667" y="231.389162">BLU</text>
<rect fill="white"
 x="593.066667" y="146.055829" width="16" height="16" />
<text font-size="6.973848pt" stroke-width="0.2pt" fill="black" x="601.066667" y="157.356784">7</text>
<line x1="609.066667" y1="154.055829" x2="657.066667" y2="154.055829" />
<text font-size="6.973848pt" stroke-width="0.2pt" fill="black" x="633.066667" y="151.389162">BLU</text>
<rect fill="white"
 x="593.066667" y="186.055829" width="16" height="16" />
<text font-size="6.973848pt" stroke-width="0.2pt" fill="black" x="601.066667" y="197.356784">6</text>
<line x1="609.066667" y1="194.055829" x2="657.066667" y2="194.055829" />
<text font-size="6.973848pt" stroke-width="0.2pt" fill="black" x="633.066667" y="191.389162">BLU-YEL</text>
<line x1="675.733333" y1="226.055829" x2="737.066667" y2="226.055829" />
<text font-size="6.973848pt" stroke-width="0.2pt" fill="black" x="706.4" y="235.324405">BLK</text>
<circle fill="black"
 cx="737.066667" cy="226.055829" r="2.048" />
<line x1="675.733333" y1="266.055829" x2="737.066667" y2="266.055829" />
<text font-size="6.973848pt" stroke-width="0.2pt" fill="black" x="706.4" y="263.389162">BLK-YEL</text>
<circle fill="black"
 cx="737.066667" cy="266.055829" r="2.048" />
<line x1="675.733333" y1="282.055829" x2="737.066667" y2="282.055829" />
<text font-size="6.973848pt" stroke-width="0.2pt" fill="black" x="706.4" y="291.324405">BLK-GRN</text>
<circle fill="black"
 cx="737.066667" cy="282.055829" r="2.048" />
<line x1="675.733333" y1="322.055829" x2="737.066667" y2="322.055829" />
<text font-size="6.973848pt" stroke-width="0.2pt" fill="black" x="706.4" y="319.389162">BLK-RED</text>
<circle fill="black"
 cx="737.066667" cy="322.055829" r="2.048" />
<line x1="737.066667" y1="322.055829" x2="745.066667" y2="322.055829" />
<circle fill="black"
 cx="745.066667" cy="322.055829" r="2.048" />
<polyline points="737.066667,266.055829 745.066667,266.055829
745.066667,330.055829" />
<line x1="745.066667" y1="330.055829" x2="745.066667" y2="331.815829" />
<path d="M 745.066667,331.815829
 A 5.12 5.12 0 0 1 745.066667,342.055829" />
<circle fill="white"
 cx="745.066667" cy="331.815829" r="2.048" />
<path d="M 745.066667,342.055829
 A 5.12 5.12 0 0 0 745.066667,352.295829" />
<line x1="745.066667" y1="352.295829" x2="745.066667" y2="354.055829" />
<circle fill="white"
 cx="745.066667" cy="352.295829" r="2.048" />
<text font-size="6.973848pt" stroke-width="0.266667"
 fill="black"
 x="705.066667" y="340.707552">3 A FUSE</text>
<text font-size="6.973848pt" stroke-width="0.266667"
 fill="black"
 x="705.066667" y="350.006016">SLOW BLOW</text>
<line x1="745.066667" y1="354.055829" x2="745.066667" y2="362.055829" />
<circle fill="black"
 cx="745.066667" cy="362.055829" r="2.048" />
<rect x="768" y="352.455829" width="34.133333" height="19.2" />
<rect x="774.933333" y="355.655829" width="3.2" height="12.8" />
<rect x="792" y="355.655829" width="3.2" height="12.8" />
<line x1="768" y1="362.055829" x2="774.933333" y2="362.055829" />
<line x1="802.133333" y1="362.055829" x2="795.2" y2="362.055829" />
<line x1="768" y1="362.055829" x2="745.066667" y2="362.055829" />
<circle fill="black"
 cx="745.066667" cy="362.055829" r="2.048" />
<text font-size="6.973848pt" stroke-width="0.266667"
 fill="black"
 text-anchor="end"
 x="742.4" y="365.356784">A</text>
<line x1="802.133333" y1="362.055829" x2="825.066667" y2="362.055829" />
<circle fill="black"
 cx="825.066667" cy="362.055829" r="2.048" />
<text font-size="6.973848pt" stroke-width="0.266667"
 fill="black"
 text-anchor="start"
 x="827.733333" y="365.356784">B</text>
<rect x="768" y="464.455829" width="34.133333" height="19.2" />
<rect x="774.933333" y="467.655829" width="3.2" height="12.8" />
<rect x="792" y="467.655829" width="3.2" height="12.8" />
<line x1="768" y1="474.055829" x2="774.933333" y2="474.055829" />
<line x1="802.133333" y1="474.055829" x2="795.2" y2="474.055829" />
<line x1="768" y1="474.055829" x2="745.066667" y2="474.055829" />
<circle fill="black"
 cx="745.066667" cy="474.055829" r="2.048" />
<line x1="802.133333" y1="474.055829" x2="825.066667" y2="474.055829" />
<circle fill="black"
 cx="825.066667" cy="474.055829" r="2.048" />
<rect x="768" y="496.455829" width="34.133333" height="19.2" />
<rect x="774.933333" y="499.655829" width="3.2" height="12.8" />
<rect x="792" y="499.655829" width="3.2" height="12.8" />
<line x1="768" y1="506.055829" x2="774.933333" y2="506.055829" />
<line x1="802.133333" y1="506.055829" x2="795.2" y2="506.055829" />
<line x1="768" y1="506.055829" x2="745.066667" y2="506.055829" />
<circle fill="black"
 cx="745.066667" cy="506.055829" r="2.048" />
<line x1="802.133333" y1="506.055829" x2="825.066667" y2="506.055829" />
<circle fill="black"
 cx="825.066667" cy="506.055829" r="2.048" />
<line x1="768" y1="570.055829" x2="802.133333" y2="570.055829" />
<path d="M 768,570.055829
 A 17.066667 17.066667 0 0 1 802.133333,570.055829" />
<line x1="776.533333" y1="548.989162" x2="776.533333" y2="586.055829" />
<line x1="793.6" y1="548.989162" x2="793.6" y2="586.055829" />
<text font-size="6.973848pt" stroke-width="0.266667"
 fill="black"
 text-anchor="start"
 x="804.8" y="566.174218">120 VAC</text>
<text font-size="6.973848pt" stroke-width="0.266667"
 fill="black"
 text-anchor="start"
 x="804.8" y="575.472683">50/60 Hz</text>
<circle cx="764.066667" cy="394.055829" r="7" />
<text font-size="6.973848pt" stroke-width="0.2pt" fill="black" x="764.066667" y="397.356784">1</text>
<circle cx="778.066667" cy="394.055829" r="7" />
<text font-size="6.973848pt" stroke-width="0.2pt" fill="black" x="778.066667" y="397.356784">4</text>
<circle cx="764.066667" cy="415.055829" r="7" />
<text font-size="6.973848pt" stroke-width="0.2pt" fill="black" x="764.066667" y="418.356784">2</text>
<circle cx="778.066667" cy="415.055829" r="7" />
<text font-size="6.973848pt" stroke-width="0.2pt" fill="black" x="778.066667" y="418.356784">5</text>
<circle cx="764.066667" cy="436.055829" r="7" />
<text font-size="6.973848pt" stroke-width="0.2pt" fill="black" x="764.066667" y="439.356784">3</text>
<circle cx="778.066667" cy="436.055829" r="7" />
<text font-size="6.973848pt" stroke-width="0.2pt" fill="black" x="778.066667" y="439.356784">6</text>
<line stroke-width="0.533333"
 x1="785.066667" y1="414.844054" x2="791.854892" y2="408.055829" />
<line stroke-width="0.533333"
 x1="785.066667" y1="421.632279" x2="793.066667" y2="413.632279" />
<line stroke-width="0.533333"
 x1="785.066667" y1="428.420504" x2="793.066667" y2="420.420504" />
<line stroke-width="0.533333"
 x1="785.066667" y1="435.208729" x2="793.066667" y2="427.208729" />
<line stroke-width="0.533333"
 x1="785.066667" y1="441.996955" x2="793.066667" y2="433.996955" />
<line stroke-width="0.533333"
 x1="790.796017" y1="443.055829" x2="793.066667" y2="440.78518" />
<line stroke-width="0.533333"
 x1="785.066667" y1="408.055829" x2="785.066667" y2="408.055829" />
<rect x="785.066667" y="408.055829" width="8" height="35" />
<text font-size="6.973848pt" stroke-width="0.266667"
 fill="black"
 text-anchor="end"
 x="738.4" y="418.356784">POWER</text>
<polygon stroke-width="0" fill="black"
 points="802.666667,410.655829 805.066667,401.055829
807.466667,410.655829" />
<line x1="805.066667" y1="429.055829" x2="805.066667" y2="403.254819" />
<text font-size="6.973848pt" stroke-width="0.266667"
 fill="black"
 x="805.066667" y="398.389162">ON</text>
<text font-size="6.973848pt" stroke-width="0.266667"
 fill="black"
 x="805.066667" y="438.324405">OFF</text>
<polyline points="757.066667,394.055829 745.066667,394.055829
745.066667,362.055829" />
<polyline points="757.066667,415.055829 745.066667,415.055829
745.066667,548.989162
776.533333,548.989162" />
<polyline points="793.6,548.989162 825.066667,548.989162
825.066667,226.055829
675.733333,226.055829" />
<line x1="737.066667" y1="282.055829" x2="825.066667" y2="282.055829" />
<circle fill="black"
 cx="825.066667" cy="282.055829" r="2.048" />
<rect fill="white"
 x="569.066667" y="530.055829" width="16" height="16" />
<text font-size="6.973848pt" stroke-width="0.2pt" fill="black" x="577.066667" y="541.356784">25</text>
<polyline points="577.066667,546.055829 577.066667,557.255829
581.333333,559.389162
572.8,563.655829
581.333333,567.922496
572.8,572.189162
581.333333,576.455829
572.8,580.722496
577.066667,582.855829
577.066667,594.055829" />
<text font-size="6.973848pt" stroke-width="0.266667"
 fill="black"
 x="561.066667" y="568.707552">R516</text>
<text font-size="6.973848pt" stroke-width="0.266667"
 fill="black"
 x="561.066667" y="578.006016">22</text>
<line x1="585.6" y1="594.055829" x2="568.533333" y2="594.055829" />
<line x1="582.755556" y1="597.255829" x2="571.377778" y2="597.255829" />
<line x1="580.72381" y1="600.455829" x2="573.409524" y2="600.455829" />
<circle fill="black"
 cx="577.066667" cy="554.055829" r="2.048" />
<line x1="577.066667" y1="554.055829" x2="617.066667" y2="554.055829" />
<line x1="617.066667" y1="586.055829" x2="617.066667" y2="582.855829" />
<circle cx="617.066667" cy="570.055829" r="12.8" />
<line x1="617.066667" y1="582.855829" x2="617.066667" y2="578.589162" />
<circle stroke-width="0.533333"
 cx="617.066667" cy="578.589162" r="0.26567" />
<path d="M 617.066667,578.589162
 A 6.4 6.4 0 0 0 617.066667,565.789162" />
<path d="M 617.066667,565.789162
 A 4.266667 4.266667 0 0 0 617.066667,574.322496" />
<path d="M 617.066667,574.322496
 A 6.4 6.4 0 0 0 617.066667,561.522496" />
<circle stroke-width="0.533333"
 cx="617.066667" cy="561.522496" r="0.26567" />
<line x1="617.066667" y1="561.522496" x2="617.066667" y2="557.255829" />
<line x1="617.066667" y1="557.255829" x2="617.066667" y2="554.055829" />
<text font-size="6.973848pt" stroke-width="0.266667"
 fill="black"
 text-anchor="start"
 x="635.733333" y="564.05832">#49</text>
<text font-size="6.973848pt" stroke-width="0.266667"
 fill="black"
 text-anchor="start"
 x="635.733333" y="573.356784">HI</text>
<text font-size="6.973848pt" stroke-width="0.266667"
 fill="black"
 text-anchor="start"
 x="635.733333" y="582.655248">TEMP</text>
<line x1="617.066667" y1="586.055829" x2="577.066667" y2="586.055829" />
<circle fill="black"
 cx="577.066667" cy="586.055829" r="2.048" />
<polygon stroke-width="0" fill="black"
 points="581.978442,550.651196 577.066667,550.055829
581.680759,548.269729" />
<line stroke-width="0.533333"
 x1="578.157671" y1="549.919454" x2="593.066667" y2="548.055829" />
<text font-size="6.973848pt" stroke-width="0.266667"
 fill="black"
 text-anchor="start"
 x="595.733333" y="551.356784">BRN</text>
<rect fill="white"
 x="537.066667" y="530.055829" width="16" height="16" />
<text font-size="6.973848pt" stroke-width="0.2pt" fill="black" x="545.066667" y="541.356784">24</text>
<line x1="545.066667" y1="546.055829" x2="545.066667" y2="594.055829" />
<line x1="553.6" y1="594.055829" x2="536.533333" y2="594.055829" />
<line x1="550.755556" y1="597.255829" x2="539.377778" y2="597.255829" />
<line x1="548.72381" y1="600.455829" x2="541.409524" y2="600.455829" />
<rect fill="white"
 x="225.066667" y="530.055829" width="16" height="16" />
<text font-size="6.973848pt" stroke-width="0.2pt" fill="black" x="233.066667" y="541.356784">23</text>
<line x1="233.066667" y1="546.055829" x2="233.066667" y2="594.055829" />
<line x1="241.6" y1="594.055829" x2="224.533333" y2="594.055829" />
<line x1="238.755556" y1="597.255829" x2="227.377778" y2="597.255829" />
<line x1="236.72381" y1="600.455829" x2="229.409524" y2="600.455829" />
<rect fill="white"
 x="129.066667" y="506.055829" width="16" height="16" />
<text font-size="6.973848pt" stroke-width="0.2pt" fill="black" x="137.066667" y="517.356784">22</text>
<polyline points="145.066667,514.055829 164.266667,514.055829
166.4,509.789162
170.666667,518.322496
174.933333,509.789162
179.2,518.322496
183.466667,509.789162
187.733333,518.322496
189.866667,514.055829
209.066667,514.055829" />
<text font-size="6.973848pt" stroke-width="0.266667"
 fill="black"
 x="177.066667" y="507.122496">R514</text>
<text font-size="6.973848pt" stroke-width="0.266667"
 fill="black"
 x="177.066667" y="527.591072">680 K</text>
<circle fill="black"
 cx="209.066667" cy="514.055829" r="2.048" />
<line x1="209.066667" y1="514.055829" x2="209.066667" y2="526.855829" />
<line x1="217.6" y1="526.855829" x2="200.533333" y2="526.855829" />
<line x1="214.755556" y1="530.055829" x2="203.377778" y2="530.055829" />
<line x1="212.72381" y1="533.255829" x2="205.409524" y2="533.255829" />
<polyline points="209.066667,514.055829 233.066667,514.055829
233.066667,530.055829" />
<circle fill="black"
 cx="545.066667" cy="470.055829" r="2.048" />
<line x1="545.066667" y1="470.055829" x2="521.679456" y2="446.668618" />
<polyline stroke-width="0" fill="black"
 points="521.679456,446.668618
518.662467,449.685607
516.829592,441.818755
524.696445,443.651629
521.679456,446.668618" />
<polyline points="521.679456,446.668618 518.662467,449.685607
516.829592,441.818755
524.696445,443.651629
521.679456,446.668618" />
<line x1="519.745909" y1="438.151009" x2="513.161846" y2="444.735071" />
<line x1="516.453878" y1="441.44304" x2="493.066667" y2="418.055829" />
<text font-size="6.973848pt" stroke-width="0.266667"
 fill="black"
 text-anchor="start"
 x="521.733333" y="437.16278">D508</text>
<circle fill="black"
 cx="493.066667" cy="418.055829" r="2.048" />
<line x1="493.066667" y1="418.055829" x2="469.679456" y2="441.44304" />
<polyline stroke-width="0" fill="black"
 points="469.679456,441.44304
472.696445,444.460029
464.829592,446.292903
466.662467,438.426051
469.679456,441.44304" />
<polyline points="469.679456,441.44304 472.696445,444.460029
464.829592,446.292903
466.662467,438.426051
469.679456,441.44304" />
<line x1="461.161846" y1="443.376587" x2="467.745909" y2="449.960649" />
<line x1="464.453878" y1="446.668618" x2="441.066667" y2="470.055829" />
<text font-size="6.973848pt" stroke-width="0.266667"
 fill="black"
 text-anchor="end"
 x="464.4" y="437.16278">D506</text>
<circle fill="black"
 cx="441.066667" cy="470.055829" r="2.048" />
<line x1="545.066667" y1="470.055829" x2="521.679456" y2="493.44304" />
<polyline stroke-width="0" fill="black"
 points="521.679456,493.44304
524.696445,496.460029
516.829592,498.292903
518.662467,490.426051
521.679456,493.44304" />
<polyline points="521.679456,493.44304 524.696445,496.460029
516.829592,498.292903
518.662467,490.426051
521.679456,493.44304" />
<line x1="513.161846" y1="495.376587" x2="519.745909" y2="501.960649" />
<line x1="516.453878" y1="498.668618" x2="493.066667" y2="522.055829" />
<text font-size="6.973848pt" stroke-width="0.266667"
 fill="black"
 text-anchor="start"
 x="521.733333" y="509.550788">D509</text>
<circle fill="black"
 cx="493.066667" cy="522.055829" r="2.048" />
<line x1="493.066667" y1="522.055829" x2="469.679456" y2="498.668618" />
<polyline stroke-width="0" fill="black"
 points="469.679456,498.668618
466.662467,501.685607
464.829592,493.818755
472.696445,495.651629
469.679456,498.668618" />
<polyline points="469.679456,498.668618 466.662467,501.685607
464.829592,493.818755
472.696445,495.651629
469.679456,498.668618" />
<line x1="467.745909" y1="490.151009" x2="461.161846" y2="496.735071" />
<line x1="464.453878" y1="493.44304" x2="441.066667" y2="470.055829" />
<text font-size="6.973848pt" stroke-width="0.266667"
 fill="black"
 text-anchor="end"
 x="464.4" y="509.550788">D507</text>
<line x1="493.066667" y1="418.055829" x2="493.066667" y2="467.495829" />
<line x1="486.666667" y1="467.495829" x2="499.466667" y2="467.495829" />
<path d="M 486.666667,472.615829
 A 12.8 12.8 0 0 1 499.466667,472.615829" />
<line x1="493.066667" y1="470.900954" x2="493.066667" y2="522.055829" />
<text font-size="6.973848pt" stroke-width="0.266667"
 fill="black"
 text-anchor="start"
 x="495.733333" y="464.829162">C507</text>
<text font-size="6.973848pt" stroke-width="0.266667"
 fill="black"
 text-anchor="start"
 x="495.733333" y="481.884405">.22</text>
<line x1="545.066667" y1="470.055829" x2="545.066667" y2="530.055829" />
<line x1="493.066667" y1="418.055829" x2="593.066667" y2="418.055829" />
<line x1="493.066667" y1="522.055829" x2="593.066667" y2="522.055829" />
<polygon stroke-width="0" fill="black"
 points="564.898508,512.932398 561.066667,522.055829
560.154324,512.202524" />
<polygon stroke-width="0" fill="black"
 points="557.234826,427.17926 561.066667,418.055829
561.97901,427.909135" />
<path d="M 561.401039,519.88241
 C 562.011977,515.911313 562.622915,511.940216 563.233853,507.96912 564.455729,500.026926
563.733333,487.389162 561.066667,470.055829 558.4,452.722496
557.677605,440.084732 558.899481,432.142539 559.510419,428.171442 560.121357,424.200345
560.732294,420.229248" />
<rect fill="white"
 stroke="none"
 x="553.066667" y="462.055829" width="16" height="16" />
<text font-size="6.973848pt" stroke-width="0.2pt" fill="black" x="561.066667" y="468.707552">57</text>
<text font-size="6.973848pt" stroke-width="0.2pt" fill="black" x="561.066667" y="478.006016">VAC</text>
<rect fill="white"
 x="129.066667" y="462.055829" width="16" height="16" />
<text font-size="6.973848pt" stroke-width="0.2pt" fill="black" x="137.066667" y="473.356784">21</text>
<line x1="145.066667" y1="470.055829" x2="441.066667" y2="470.055829" />
<rect fill="white"
 x="129.066667" y="486.055829" width="16" height="16" />
<text font-size="6.973848pt" stroke-width="0.2pt" fill="black" x="137.066667" y="497.356784">19</text>
<rect fill="white"
 x="129.066667" y="438.055829" width="16" height="16" />
<text font-size="6.973848pt" stroke-width="0.2pt" fill="black" x="137.066667" y="449.356784">20</text>
<line x1="593.066667" y1="194.055829" x2="577.066667" y2="194.055829" />
<line x1="577.066667" y1="194.055829" x2="577.066667" y2="206.855829" />
<line x1="585.6" y1="206.855829" x2="568.533333" y2="206.855829" />
<line x1="582.755556" y1="210.055829" x2="571.377778" y2="210.055829" />
<line x1="580.72381" y1="213.255829" x2="573.409524" y2="213.255829" />
<line x1="593.066667" y1="234.055829" x2="561.066667" y2="234.055829" />
<circle fill="black"
 cx="561.066667" cy="234.055829" r="2.048" />
<line x1="561.066667" y1="234.055829" x2="561.066667" y2="247.495829" />
<line x1="554.666667" y1="247.495829" x2="567.466667" y2="247.495829" />
<path d="M 554.666667,252.615829
 A 12.8 12.8 0 0 1 567.466667,252.615829" />
<line x1="561.066667" y1="250.900954" x2="561.066667" y2="266.055829" />
<text font-size="6.973848pt" stroke-width="0.266667"
 fill="black"
 text-anchor="start"
 x="563.733333" y="244.829162">C504</text>
<text font-size="6.973848pt" stroke-width="0.266667"
 fill="black"
 text-anchor="start"
 x="563.733333" y="261.884405">.22</text>
<line x1="569.6" y1="266.055829" x2="552.533333" y2="266.055829" />
<line x1="566.755556" y1="269.255829" x2="555.377778" y2="269.255829" />
<line x1="564.72381" y1="272.455829" x2="557.409524" y2="272.455829" />
<line x1="561.066667" y1="234.055829" x2="544.761708" y2="234.055829" />
<polyline stroke-width="0" fill="black"
 points="544.761708,234.055829
544.761708,238.322496
537.902966,234.055829
544.761708,229.789162
544.761708,234.055829" />
<polyline points="544.761708,234.055829 544.761708,238.322496
537.902966,234.055829
544.761708,229.789162
544.761708,234.055829" />
<line x1="537.371625" y1="229.400194" x2="537.371625" y2="238.711464" />
<line x1="537.371625" y1="234.055829" x2="521.066667" y2="234.055829" />
<text font-size="6.973848pt" stroke-width="0.266667"
 fill="black"
 x="541.066667" y="226.202186">D504</text>
<circle fill="black"
 cx="521.066667" cy="234.055829" r="2.048" />
<line x1="521.066667" y1="234.055829" x2="521.066667" y2="247.495829" />
<line x1="514.666667" y1="247.495829" x2="527.466667" y2="247.495829" />
<path d="M 514.666667,252.615829
 A 12.8 12.8 0 0 1 527.466667,252.615829" />
<line x1="521.066667" y1="250.900954" x2="521.066667" y2="266.055829" />
<line stroke-width="0.666667"
 x1="525.333333" y1="245.362496" x2="525.333333" y2="241.095829" />
<line stroke-width="0.666667"
 x1="527.466667" y1="243.229162" x2="523.2" y2="243.229162" />
<text font-size="6.973848pt" stroke-width="0.266667"
 fill="black"
 text-anchor="end"
 x="518.4" y="244.829162">C505</text>
<text font-size="6.973848pt" stroke-width="0.266667"
 fill="black"
 text-anchor="end"
 x="512" y="253.356784">100</text>
<text font-size="6.973848pt" stroke-width="0.266667"
 fill="black"
 text-anchor="end"
 x="518.4" y="261.884405">75 V</text>
<line x1="529.6" y1="266.055829" x2="512.533333" y2="266.055829" />
<line x1="526.755556" y1="269.255829" x2="515.377778" y2="269.255829" />
<line x1="524.72381" y1="272.455829" x2="517.409524" y2="272.455829" />
<line x1="521.066667" y1="234.055829" x2="521.066667" y2="154.055829" />
<circle fill="black"
 cx="521.066667" cy="154.055829" r="2.048" />
<line x1="561.066667" y1="154.055829" x2="544.761708" y2="154.055829" />
<polyline stroke-width="0" fill="black"
 points="544.761708,154.055829
544.761708,158.322496
537.902966,154.055829
544.761708,149.789162
544.761708,154.055829" />
<polyline points="544.761708,154.055829 544.761708,158.322496
537.902966,154.055829
544.761708,149.789162
544.761708,154.055829" />
<line x1="537.371625" y1="149.400194" x2="537.371625" y2="158.711464" />
<line x1="537.371625" y1="154.055829" x2="521.066667" y2="154.055829" />
<text font-size="6.973848pt" stroke-width="0.266667"
 fill="black"
 x="541.066667" y="146.202186">D503</text>
<line x1="561.066667" y1="154.055829" x2="593.066667" y2="154.055829" />
<polygon stroke-width="0" fill="black"
 points="568.409992,224.742281 565.066667,234.055829
563.633813,224.264663" />
<polygon stroke-width="0" fill="black"
 points="561.723342,163.369377 565.066667,154.055829
566.49952,163.846995" />
<path d="M 565.285474,231.867753
 C 565.58234,228.899099 565.879205,225.930445 566.17607,222.961791 566.769801,217.024483
566.4,207.389162 565.066667,194.055829 563.733333,180.722496
563.363532,171.087175 563.957263,165.149867 564.254128,162.181213 564.550994,159.21256
564.847859,156.243906" />
<rect fill="white"
 stroke="none"
 x="541.066667" y="190.055829" width="32" height="8" />
<text font-size="6.973848pt" stroke-width="0.2pt" fill="black" x="557.066667" y="197.356784">100 VAC</text>
<line x1="498.297436" y1="338.671214" x2="498.297436" y2="358.363521" />
<line x1="485.989744" y1="348.517368" x2="498.297436" y2="348.517368" />
<line x1="517.989744" y1="333.748137" x2="498.297436" y2="342.609675" />
<polygon stroke-width="0" fill="black"
 points="511.825311,339.52134 503.220513,340.394291
509.580581,334.533052" />
<line x1="513.066667" y1="335.963521" x2="504.758512" y2="339.702191" />
<line x1="517.989744" y1="363.286598" x2="498.297436" y2="354.42506" />
<path d="M 485.989744,348.517368
 A 19.692308 19.692308 0 1 0 525.374359,348.517368" />
<line x1="525.374359" y1="348.517368" x2="525.374359" y2="348.517368" />
<path d="M 525.374359,348.517368
 A 19.692308 19.692308 0 0 0 485.989744,348.517368" />
<line x1="485.989744" y1="348.517368" x2="485.989744" y2="348.517368" />
<circle cx="521.066667" cy="330.055829" r="4.923077" />
<text font-size="6.973848pt" stroke-width="0.2pt" fill="black" x="521.066667" y="333.356784">E</text>
<circle cx="481.066667" cy="348.517368" r="4.923077" />
<text font-size="6.973848pt" stroke-width="0.2pt" fill="black" x="481.066667" y="351.818322">B</text>
<circle cx="521.066667" cy="366.978906" r="4.923077" />
<text font-size="6.973848pt" stroke-width="0.2pt" fill="black" x="521.066667" y="370.279861">C</text>
<polyline points="525.989744,366.978906 577.066667,366.978906
577.066667,530.055829" />
<line x1="481.066667" y1="353.440444" x2="481.066667" y2="362.055829" />
<polyline points="481.066667,362.055829 481.066667,369.255829
485.333333,371.389162
476.8,375.655829
485.333333,379.922496
476.8,384.189162
485.333333,388.455829
476.8,392.722496
481.066667,394.855829
481.066667,402.055829" />
<text font-size="6.973848pt" stroke-width="0.266667"
 fill="black"
 text-anchor="start"
 x="488" y="380.707552">R513</text>
<text font-size="6.973848pt" stroke-width="0.266667"
 fill="black"
 text-anchor="start"
 x="488" y="390.006016">1500</text>
<line x1="489.6" y1="402.055829" x2="472.533333" y2="402.055829" />
<line x1="486.755556" y1="405.255829" x2="475.377778" y2="405.255829" />
<line x1="484.72381" y1="408.455829" x2="477.409524" y2="408.455829" />
<polyline points="145.066667,494.055829 425.066667,494.055829
425.066667,314.055829" />
<polyline points="425.066667,314.055829 432.266667,314.055829
434.4,309.789162
438.666667,318.322496
442.933333,309.789162
447.2,318.322496
451.466667,309.789162
455.733333,318.322496
457.866667,314.055829
465.066667,314.055829" />
<text font-size="6.973848pt" stroke-width="0.266667"
 fill="black"
 x="445.066667" y="307.122496">R511</text>
<text font-size="6.973848pt" stroke-width="0.266667"
 fill="black"
 x="445.066667" y="327.591072">470</text>
<polyline points="465.066667,314.055829 521.066667,314.055829
521.066667,325.132752" />
<polyline points="145.066667,446.055829 441.066667,446.055829
441.066667,402.055829" />
<polyline points="441.066667,402.055829 441.066667,394.855829
436.8,392.722496
445.333333,388.455829
436.8,384.189162
445.333333,379.922496
436.8,375.655829
445.333333,371.389162
441.066667,369.255829
441.066667,362.055829" />
<text font-size="6.973848pt" stroke-width="0.266667"
 fill="black"
 text-anchor="start"
 x="448" y="376.05832">R512</text>
<text font-size="6.973848pt" stroke-width="0.266667"
 fill="black"
 text-anchor="start"
 x="448" y="385.356784">5600</text>
<text font-size="6.973848pt" stroke-width="0.266667"
 fill="black"
 text-anchor="start"
 x="448" y="394.655248">1 W</text>
<polyline points="441.066667,362.055829 441.066667,348.517368
476.14359,348.517368" />
<text font-size="6.973848pt" stroke-width="0.266667"
 fill="black"
 x="533.066667" y="292.05832">Q503</text>
<text font-size="6.973848pt" stroke-width="0.266667"
 fill="black"
 x="533.066667" y="301.356784">S2091 HI TEMP</text>
<text font-size="6.973848pt" stroke-width="0.266667"
 fill="black"
 x="533.066667" y="310.655248">CONTROL</text>
<line x1="561.066667" y1="330.055829" x2="547.223247" y2="330.055829" />
<polyline stroke-width="0" fill="black"
 points="547.223247,330.055829
547.223247,334.322496
540.364504,330.055829
547.223247,325.789162
547.223247,330.055829" />
<polyline points="547.223247,330.055829 547.223247,334.322496
540.364504,330.055829
547.223247,325.789162
547.223247,330.055829" />
<line x1="539.833163" y1="325.400194" x2="539.833163" y2="334.711464" />
<line x1="539.833163" y1="330.055829" x2="525.989744" y2="330.055829" />
<text font-size="6.973848pt" stroke-width="0.266667"
 fill="black"
 x="543.528205" y="322.202186">D505</text>
<line x1="561.066667" y1="330.055829" x2="593.066667" y2="330.055829" />
<polyline points="593.066667,354.055829 577.066667,354.055829
577.066667,330.055829" />
<circle fill="black"
 cx="577.066667" cy="330.055829" r="2.048" />
<line x1="561.066667" y1="154.055829" x2="481.066667" y2="154.055829" />
<circle fill="black"
 cx="481.066667" cy="154.055829" r="2.048" />
<rect fill="white"
 x="473.066667" y="90.055829" width="16" height="16" />
<text font-size="6.973848pt" stroke-width="0.2pt" fill="black" x="481.066667" y="101.356784">8</text>
<line x1="481.066667" y1="154.055829" x2="481.066667" y2="106.055829" />
<polyline points="481.066667,154.055829 481.066667,161.255829
485.333333,163.389162
476.8,167.655829
485.333333,171.922496
476.8,176.189162
485.333333,180.455829
476.8,184.722496
481.066667,186.855829
481.066667,194.055829" />
<text font-size="6.973848pt" stroke-width="0.266667"
 fill="black"
 text-anchor="start"
 x="488" y="172.707552">R505</text>
<text font-size="6.973848pt" stroke-width="0.266667"
 fill="black"
 text-anchor="start"
 x="488" y="182.006016">12 K</text>
<circle fill="black"
 cx="481.066667" cy="194.055829" r="2.048" />
<line x1="481.066667" y1="194.055829" x2="481.066667" y2="227.495829" />
<line x1="474.666667" y1="227.495829" x2="487.466667" y2="227.495829" />
<path d="M 474.666667,232.615829
 A 12.8 12.8 0 0 1 487.466667,232.615829" />
<line x1="481.066667" y1="230.900954" x2="481.066667" y2="266.055829" />
<line stroke-width="0.666667"
 x1="485.333333" y1="225.362496" x2="485.333333" y2="221.095829" />
<line stroke-width="0.666667"
 x1="487.466667" y1="223.229162" x2="483.2" y2="223.229162" />
<text font-size="6.973848pt" stroke-width="0.266667"
 fill="black"
 text-anchor="end"
 x="478.4" y="224.829162">C503</text>
<text font-size="6.973848pt" stroke-width="0.266667"
 fill="black"
 text-anchor="end"
 x="472" y="233.356784">100</text>
<text font-size="6.973848pt" stroke-width="0.266667"
 fill="black"
 text-anchor="end"
 x="478.4" y="241.884405">70 V</text>
<line x1="489.6" y1="266.055829" x2="472.533333" y2="266.055829" />
<line x1="486.755556" y1="269.255829" x2="475.377778" y2="269.255829" />
<line x1="484.72381" y1="272.455829" x2="477.409524" y2="272.455829" />
<line x1="415.220513" y1="176.82506" x2="434.912821" y2="176.82506" />
<line x1="425.066667" y1="189.132752" x2="425.066667" y2="176.82506" />
<line x1="410.297436" y1="157.132752" x2="419.158974" y2="176.82506" />
<polygon stroke-width="0" fill="black"
 points="413.385771,170.660627 412.512821,162.055829
418.37406,168.415897" />
<line x1="413.20492" y1="163.593829" x2="416.94359" y2="171.901983" />
<line x1="439.835897" y1="157.132752" x2="430.974359" y2="176.82506" />
<path d="M 425.066667,189.132752
 A 19.692308 19.692308 0 0 0 425.066667,149.748137" />
<line x1="425.066667" y1="149.748137" x2="425.066667" y2="149.748137" />
<path d="M 425.066667,149.748137
 A 19.692308 19.692308 0 0 0 425.066667,189.132752" />
<line x1="425.066667" y1="189.132752" x2="425.066667" y2="189.132752" />
<circle cx="406.605128" cy="154.055829" r="4.923077" />
<text font-size="6.973848pt" stroke-width="0.2pt" fill="black" x="406.605128" y="157.356784">E</text>
<circle cx="425.066667" cy="194.055829" r="4.923077" />
<text font-size="6.973848pt" stroke-width="0.2pt" fill="black" x="425.066667" y="197.356784">B</text>
<circle cx="443.528205" cy="154.055829" r="4.923077" />
<text font-size="6.973848pt" stroke-width="0.2pt" fill="black" x="443.528205" y="157.356784">C</text>
<line x1="448.451282" y1="154.055829" x2="481.066667" y2="154.055829" />
<line x1="429.989744" y1="194.055829" x2="481.066667" y2="194.055829" />
<polyline points="425.066667,198.978906 425.066667,219.717368
429.333333,221.850701
420.8,226.117368
429.333333,230.384034
420.8,234.650701
429.333333,238.917368
420.8,243.184034
425.066667,245.317368
425.066667,266.055829" />
<text font-size="6.973848pt" stroke-width="0.266667"
 fill="black"
 text-anchor="start"
 x="432" y="231.16909">R504</text>
<text font-size="6.973848pt" stroke-width="0.266667"
 fill="black"
 text-anchor="start"
 x="432" y="240.467554">51 K</text>
<line x1="433.6" y1="266.055829" x2="416.533333" y2="266.055829" />
<line x1="430.755556" y1="269.255829" x2="419.377778" y2="269.255829" />
<line x1="428.72381" y1="272.455829" x2="421.409524" y2="272.455829" />
<text font-size="6.973848pt" stroke-width="0.266667"
 fill="black"
 x="435.528205" y="119.409088">Q502</text>
<text font-size="6.973848pt" stroke-width="0.266667"
 fill="black"
 x="435.528205" y="128.707552">TA7311</text>
<text font-size="6.973848pt" stroke-width="0.266667"
 fill="black"
 x="435.528205" y="138.006016">REGULATOR</text>
<text font-size="6.973848pt" stroke-width="0.266667"
 fill="black"
 x="435.528205" y="147.30448">CONTROL</text>
<rect fill="white"
 x="398.605128" y="90.055829" width="16" height="16" />
<text font-size="6.973848pt" stroke-width="0.2pt" fill="black" x="406.605128" y="101.356784">9</text>
<line x1="406.605128" y1="149.132752" x2="406.605128" y2="106.055829" />
<rect fill="white"
 x="345.066667" y="90.055829" width="16" height="16" />
<text font-size="6.973848pt" stroke-width="0.2pt" fill="black" x="353.066667" y="101.356784">10</text>
<polyline points="401.682051,154.055829 390.174359,154.055829
388.041026,158.322496
383.774359,149.789162
379.507692,158.322496
375.241026,149.789162
370.974359,158.322496
366.707692,149.789162
364.574359,154.055829
353.066667,154.055829" />
<text font-size="6.973848pt" stroke-width="0.266667"
 fill="black"
 x="377.374359" y="147.122496">R502</text>
<text font-size="6.973848pt" stroke-width="0.266667"
 fill="black"
 x="377.374359" y="167.591072">150</text>
<circle fill="black"
 cx="353.066667" cy="154.055829" r="2.048" />
<rect fill="white"
 x="129.066667" y="146.055829" width="16" height="16" />
<text font-size="6.973848pt" stroke-width="0.2pt" fill="black" x="137.066667" y="157.356784">11</text>
<rect fill="white"
 x="129.066667" y="126.055829" width="16" height="16" />
<text font-size="6.973848pt" stroke-width="0.2pt" fill="black" x="137.066667" y="137.356784">14</text>
<rect fill="white"
 x="129.066667" y="166.055829" width="16" height="16" />
<text font-size="6.973848pt" stroke-width="0.2pt" fill="black" x="137.066667" y="177.356784">12</text>
<rect fill="white"
 x="129.066667" y="186.055829" width="16" height="16" />
<text font-size="6.973848pt" stroke-width="0.2pt" fill="black" x="137.066667" y="197.356784">13</text>
<polyline points="145.066667,194.055829 161.066667,194.055829
161.066667,154.055829" />
<circle fill="black"
 cx="161.066667" cy="154.055829" r="2.048" />
<line x1="145.066667" y1="174.055829" x2="161.066667" y2="174.055829" />
<circle fill="black"
 cx="161.066667" cy="174.055829" r="2.048" />
<rect fill="white"
 x="129.066667" y="210.055829" width="16" height="16" />
<text font-size="6.973848pt" stroke-width="0.2pt" fill="black" x="137.066667" y="221.356784">15</text>
<line x1="396.758974" y1="56.82506" x2="416.451282" y2="56.82506" />
<line x1="406.605128" y1="69.132752" x2="406.605128" y2="56.82506" />
<line x1="391.835897" y1="37.132752" x2="400.697436" y2="56.82506" />
<polygon stroke-width="0" fill="black"
 points="394.924233,50.660627 394.051282,42.055829
399.912521,48.415897" />
<line x1="394.743382" y1="43.593829" x2="398.482051" y2="51.901983" />
<line x1="421.374359" y1="37.132752" x2="412.512821" y2="56.82506" />
<path d="M 406.605128,69.132752
 A 19.692308 19.692308 0 0 0 406.605128,29.748137" />
<line x1="406.605128" y1="29.748137" x2="406.605128" y2="29.748137" />
<path d="M 406.605128,29.748137
 A 19.692308 19.692308 0 0 0 406.605128,69.132752" />
<line x1="406.605128" y1="69.132752" x2="406.605128" y2="69.132752" />
<circle cx="388.14359" cy="34.055829" r="4.923077" />
<text font-size="6.973848pt" stroke-width="0.2pt" fill="black" x="388.14359" y="37.356784">E</text>
<circle cx="406.605128" cy="74.055829" r="4.923077" />
<text font-size="6.973848pt" stroke-width="0.2pt" fill="black" x="406.605128" y="77.356784">B</text>
<circle cx="425.066667" cy="34.055829" r="4.923077" />
<text font-size="6.973848pt" stroke-width="0.2pt" fill="black" x="425.066667" y="37.356784">C</text>
<line x1="406.605128" y1="78.978906" x2="406.605128" y2="90.055829" />
<polyline points="429.989744,34.055829 481.066667,34.055829
481.066667,90.055829" />
<polyline points="383.220513,34.055829 353.066667,34.055829
353.066667,90.055829" />
<text font-size="6.973848pt" stroke-width="0.266667"
 fill="black"
 x="406.605128" y="7.135243">Q501</text>
<text font-size="6.973848pt" stroke-width="0.266667"
 fill="black"
 x="406.605128" y="16.433707">2N3055</text>
<text font-size="6.973848pt" stroke-width="0.266667"
 fill="black"
 x="406.605128" y="25.732171">REGULATOR</text>
<line x1="145.066667" y1="134.055829" x2="353.066667" y2="134.055829" />
<circle fill="black"
 cx="353.066667" cy="134.055829" r="2.048" />
<rect fill="white"
 x="129.066667" y="306.055829" width="16" height="16" />
<text font-size="6.973848pt" stroke-width="0.2pt" fill="black" x="137.066667" y="317.356784">17</text>
<rect fill="white"
 x="129.066667" y="282.055829" width="16" height="16" />
<text font-size="6.973848pt" stroke-width="0.2pt" fill="black" x="137.066667" y="293.356784">16</text>
<rect fill="white"
 x="129.066667" y="330.055829" width="16" height="16" />
<text font-size="6.973848pt" stroke-width="0.2pt" fill="black" x="137.066667" y="341.356784">18</text>
<polyline points="145.066667,338.055829 161.066667,338.055829
161.066667,314.055829" />
<circle fill="black"
 cx="161.066667" cy="314.055829" r="2.048" />
<line x1="324.758974" y1="336.82506" x2="344.451282" y2="336.82506" />
<line x1="334.605128" y1="349.132752" x2="334.605128" y2="336.82506" />
<line x1="319.835897" y1="317.132752" x2="328.697436" y2="336.82506" />
<polygon stroke-width="0" fill="black"
 points="322.924233,330.660627 322.051282,322.055829
327.912521,328.415897" />
<line x1="322.743382" y1="323.593829" x2="326.482051" y2="331.901983" />
<line x1="349.374359" y1="317.132752" x2="340.512821" y2="336.82506" />
<path d="M 334.605128,349.132752
 A 19.692308 19.692308 0 0 0 334.605128,309.748137" />
<line x1="334.605128" y1="309.748137" x2="334.605128" y2="309.748137" />
<path d="M 334.605128,309.748137
 A 19.692308 19.692308 0 0 0 334.605128,349.132752" />
<line x1="334.605128" y1="349.132752" x2="334.605128" y2="349.132752" />
<circle cx="316.14359" cy="314.055829" r="4.923077" />
<text font-size="6.973848pt" stroke-width="0.2pt" fill="black" x="316.14359" y="317.356784">E</text>
<circle cx="334.605128" cy="354.055829" r="4.923077" />
<text font-size="6.973848pt" stroke-width="0.2pt" fill="black" x="334.605128" y="357.356784">B</text>
<circle cx="353.066667" cy="314.055829" r="4.923077" />
<text font-size="6.973848pt" stroke-width="0.2pt" fill="black" x="353.066667" y="317.356784">C</text>
<line x1="145.066667" y1="314.055829" x2="311.220513" y2="314.055829" />
<line x1="334.605128" y1="358.978906" x2="334.605128" y2="362.055829" />
<polyline points="334.605128,362.055829 334.605128,369.255829
338.871795,371.389162
330.338462,375.655829
338.871795,379.922496
330.338462,384.189162
338.871795,388.455829
330.338462,392.722496
334.605128,394.855829
334.605128,402.055829" />
<text font-size="6.973848pt" stroke-width="0.266667"
 fill="black"
 text-anchor="start"
 x="341.538462" y="380.707552">R508</text>
<text font-size="6.973848pt" stroke-width="0.266667"
 fill="black"
 text-anchor="start"
 x="341.538462" y="390.006016">680</text>
<line x1="343.138462" y1="402.055829" x2="326.071795" y2="402.055829" />
<line x1="340.294017" y1="405.255829" x2="328.916239" y2="405.255829" />
<line x1="338.262271" y1="408.455829" x2="330.947985" y2="408.455829" />
<circle fill="black"
 cx="353.066667" cy="218.055829" r="2.048" />
<line x1="353.066667" y1="218.055829" x2="353.066667" y2="106.055829" />
<polyline points="353.066667,218.055829 353.066667,225.255829
357.333333,227.389162
348.8,231.655829
357.333333,235.922496
348.8,240.189162
357.333333,244.455829
348.8,248.722496
353.066667,250.855829
353.066667,258.055829" />
<text font-size="6.973848pt" stroke-width="0.266667"
 fill="black"
 text-anchor="start"
 x="360" y="232.05832">225</text>
<text font-size="6.973848pt" stroke-width="0.266667"
 fill="black"
 text-anchor="start"
 x="360" y="241.356784">10 W</text>
<text font-size="6.973848pt" stroke-width="0.266667"
 fill="black"
 text-anchor="start"
 x="360" y="250.655248">5 %</text>
<line x1="353.066667" y1="258.055829" x2="353.066667" y2="309.132752" />
<polyline points="353.066667,218.055829 325.866667,218.055829
323.733333,222.322496
319.466667,213.789162
315.2,222.322496
310.933333,213.789162
306.666667,222.322496
302.4,213.789162
300.266667,218.055829
273.066667,218.055829" />
<text font-size="6.973848pt" stroke-width="0.266667"
 fill="black"
 x="313.066667" y="211.122496">R503</text>
<text font-size="6.973848pt" stroke-width="0.266667"
 fill="black"
 x="313.066667" y="231.591072">290 10 W 5%</text>
<circle fill="black"
 cx="273.066667" cy="218.055829" r="2.048" />
<line x1="273.066667" y1="218.055829" x2="273.066667" y2="354.055829" />
<polyline points="273.066667,354.055829 288.574359,354.055829
290.707692,349.789162
294.974359,358.322496
299.241026,349.789162
303.507692,358.322496
307.774359,349.789162
312.041026,358.322496
314.174359,354.055829
329.682051,354.055829" />
<text font-size="6.973848pt" stroke-width="0.266667"
 fill="black"
 x="301.374359" y="347.122496">R507</text>
<text font-size="6.973848pt" stroke-width="0.266667"
 fill="black"
 x="301.374359" y="367.591072">100</text>
<line x1="145.066667" y1="218.055829" x2="273.066667" y2="218.055829" />
<text font-size="6.973848pt" stroke-width="0.266667"
 fill="black"
 x="381.066667" y="284.05832">Q504</text>
<text font-size="6.973848pt" stroke-width="0.266667"
 fill="black"
 x="381.066667" y="293.356784">40409</text>
<text font-size="6.973848pt" stroke-width="0.266667"
 fill="black"
 x="381.066667" y="302.655248">REGULATOR</text>
<polyline points="353.066667,154.055829 325.866667,154.055829
323.733333,158.322496
319.466667,149.789162
315.2,158.322496
310.933333,149.789162
306.666667,158.322496
302.4,149.789162
300.266667,154.055829
273.066667,154.055829" />
<text font-size="6.973848pt" stroke-width="0.266667"
 fill="black"
 x="313.066667" y="147.122496">R501</text>
<text font-size="6.973848pt" stroke-width="0.266667"
 fill="black"
 x="313.066667" y="167.591072">390 5W 5%</text>
<line x1="273.066667" y1="154.055829" x2="145.066667" y2="154.055829" />
<polyline points="145.066667,290.055829 164.266667,290.055829
166.4,285.789162
170.666667,294.322496
174.933333,285.789162
179.2,294.322496
183.466667,285.789162
187.733333,294.322496
189.866667,290.055829
209.066667,290.055829" />
<text font-size="6.973848pt" stroke-width="0.266667"
 fill="black"
 x="177.066667" y="283.122496">R506</text>
<text font-size="6.973848pt" stroke-width="0.266667"
 fill="black"
 x="177.066667" y="303.591072">82</text>
<line x1="209.066667" y1="290.055829" x2="209.066667" y2="314.055829" />
<circle fill="black"
 cx="209.066667" cy="314.055829" r="2.048" />
<circle fill="black"
 cx="209.066667" cy="154.055829" r="2.048" />
<line x1="209.066667" y1="154.055829" x2="209.066667" y2="175.495829" />
<line x1="202.666667" y1="175.495829" x2="215.466667" y2="175.495829" />
<path d="M 202.666667,180.615829
 A 12.8 12.8 0 0 1 215.466667,180.615829" />
<line x1="209.066667" y1="178.900954" x2="209.066667" y2="202.055829" />
<line stroke-width="0.666667"
 x1="204.8" y1="173.362496" x2="204.8" y2="169.095829" />
<line stroke-width="0.666667"
 x1="206.933333" y1="171.229162" x2="202.666667" y2="171.229162" />
<text font-size="6.973848pt" stroke-width="0.266667"
 fill="black"
 text-anchor="start"
 x="211.733333" y="172.829162">C501</text>
<text font-size="6.973848pt" stroke-width="0.266667"
 fill="black"
 text-anchor="start"
 x="211.733333" y="187.267552">100</text>
<text font-size="6.973848pt" stroke-width="0.266667"
 fill="black"
 text-anchor="start"
 x="211.733333" y="196.566016">30 V</text>
<line x1="217.6" y1="202.055829" x2="200.533333" y2="202.055829" />
<line x1="214.755556" y1="205.255829" x2="203.377778" y2="205.255829" />
<line x1="212.72381" y1="208.455829" x2="205.409524" y2="208.455829" />
<circle fill="black"
 cx="241.066667" cy="154.055829" r="2.048" />
<line x1="241.066667" y1="202.055829" x2="241.066667" y2="181.750871" />
<polyline stroke-width="0" fill="black"
 points="241.066667,181.750871
236.8,181.750871
241.066667,174.892128
245.333333,181.750871
241.066667,181.750871" />
<polyline points="241.066667,181.750871 236.8,181.750871
241.066667,174.892128
245.333333,181.750871
241.066667,181.750871" />
<polyline points="245.722302,176.494121 245.722302,174.360787
236.411032,174.360787
236.411032,172.227454" />
<line x1="241.066667" y1="174.360787" x2="241.066667" y2="154.055829" />
<text font-size="6.973848pt" stroke-width="0.266667"
 fill="black"
 text-anchor="start"
 x="243.733333" y="169.560787">ZD501</text>
<line x1="249.6" y1="202.055829" x2="232.533333" y2="202.055829" />
<line x1="246.755556" y1="205.255829" x2="235.377778" y2="205.255829" />
<line x1="244.72381" y1="208.455829" x2="237.409524" y2="208.455829" />
<circle fill="black"
 cx="209.066667" cy="218.055829" r="2.048" />
<line x1="209.066667" y1="218.055829" x2="209.066667" y2="239.495829" />
<line x1="202.666667" y1="239.495829" x2="215.466667" y2="239.495829" />
<path d="M 202.666667,244.615829
 A 12.8 12.8 0 0 1 215.466667,244.615829" />
<line x1="209.066667" y1="242.900954" x2="209.066667" y2="266.055829" />
<line stroke-width="0.666667"
 x1="204.8" y1="237.362496" x2="204.8" y2="233.095829" />
<line stroke-width="0.666667"
 x1="206.933333" y1="235.229162" x2="202.666667" y2="235.229162" />
<text font-size="6.973848pt" stroke-width="0.266667"
 fill="black"
 text-anchor="start"
 x="211.733333" y="236.829162">C502</text>
<text font-size="6.973848pt" stroke-width="0.266667"
 fill="black"
 text-anchor="start"
 x="211.733333" y="251.267552">100</text>
<text font-size="6.973848pt" stroke-width="0.266667"
 fill="black"
 text-anchor="start"
 x="211.733333" y="260.566016">30 V</text>
<line x1="217.6" y1="266.055829" x2="200.533333" y2="266.055829" />
<line x1="214.755556" y1="269.255829" x2="203.377778" y2="269.255829" />
<line x1="212.72381" y1="272.455829" x2="205.409524" y2="272.455829" />
<circle fill="black"
 cx="241.066667" cy="218.055829" r="2.048" />
<line x1="241.066667" y1="266.055829" x2="241.066667" y2="245.750871" />
<polyline stroke-width="0" fill="black"
 points="241.066667,245.750871
236.8,245.750871
241.066667,238.892128
245.333333,245.750871
241.066667,245.750871" />
<polyline points="241.066667,245.750871 236.8,245.750871
241.066667,238.892128
245.333333,245.750871
241.066667,245.750871" />
<polyline points="245.722302,240.494121 245.722302,238.360787
236.411032,238.360787
236.411032,236.227454" />
<line x1="241.066667" y1="238.360787" x2="241.066667" y2="218.055829" />
<text font-size="6.973848pt" stroke-width="0.266667"
 fill="black"
 text-anchor="start"
 x="243.733333" y="233.560787">ZD502</text>
<line x1="249.6" y1="266.055829" x2="232.533333" y2="266.055829" />
<line x1="246.755556" y1="269.255829" x2="235.377778" y2="269.255829" />
<line x1="244.72381" y1="272.455829" x2="237.409524" y2="272.455829" />
<line x1="209.066667" y1="314.055829" x2="209.066667" y2="354.055829" />
<line x1="209.066667" y1="354.055829" x2="209.066667" y2="375.495829" />
<line x1="202.666667" y1="375.495829" x2="215.466667" y2="375.495829" />
<path d="M 202.666667,380.615829
 A 12.8 12.8 0 0 1 215.466667,380.615829" />
<line x1="209.066667" y1="378.900954" x2="209.066667" y2="402.055829" />
<line stroke-width="0.666667"
 x1="204.8" y1="373.362496" x2="204.8" y2="369.095829" />
<line stroke-width="0.666667"
 x1="206.933333" y1="371.229162" x2="202.666667" y2="371.229162" />
<text font-size="6.973848pt" stroke-width="0.266667"
 fill="black"
 text-anchor="start"
 x="211.733333" y="372.829162">C506</text>
<text font-size="6.973848pt" stroke-width="0.266667"
 fill="black"
 text-anchor="start"
 x="211.733333" y="387.267552">100</text>
<text font-size="6.973848pt" stroke-width="0.266667"
 fill="black"
 text-anchor="start"
 x="211.733333" y="396.566016">30 V</text>
<line x1="217.6" y1="402.055829" x2="200.533333" y2="402.055829" />
<line x1="214.755556" y1="405.255829" x2="203.377778" y2="405.255829" />
<line x1="212.72381" y1="408.455829" x2="205.409524" y2="408.455829" />
<line x1="129.066667" y1="514.055829" x2="105.066667" y2="514.055829" />
<text font-size="6.973848pt" stroke-width="0.2pt" fill="black" x="117.066667" y="511.389162">GRY</text>
<line x1="129.066667" y1="494.055829" x2="105.066667" y2="494.055829" />
<text font-size="6.973848pt" stroke-width="0.2pt" fill="black" x="117.066667" y="491.389162">VIOL</text>
<rect x="25.066667" y="484.055829" width="80" height="40" />
<text font-size="6.973848pt" stroke-width="0.2pt" fill="black" x="65.066667" y="502.707552">TO SIGNAL</text>
<text font-size="6.973848pt" stroke-width="0.2pt" fill="black" x="65.066667" y="512.006016">METER CIRCUIT</text>
<line x1="129.066667" y1="470.055829" x2="65.066667" y2="470.055829" />
<text font-size="6.973848pt" stroke-width="0.2pt" fill="black" x="97.066667" y="467.389162">RED TO C508</text>
<line x1="129.066667" y1="446.055829" x2="65.066667" y2="446.055829" />
<text font-size="6.973848pt" stroke-width="0.2pt" fill="black" x="97.066667" y="443.389162">VIOL</text>
<line x1="129.066667" y1="314.055829" x2="105.066667" y2="314.055829" />
<text font-size="6.973848pt" stroke-width="0.2pt" fill="black" x="117.066667" y="311.389162">RED</text>
<line x1="129.066667" y1="338.055829" x2="105.066667" y2="338.055829" />
<text font-size="6.973848pt" stroke-width="0.266667"
 fill="black"
 text-anchor="start"
 x="107.733333" y="328.707552">WHT-</text>
<text font-size="6.973848pt" stroke-width="0.266667"
 fill="black"
 text-anchor="start"
 x="107.733333" y="338.006016">RED</text>
<rect x="25.066667" y="306.055829" width="80" height="40" />
<text font-size="6.973848pt" stroke-width="0.2pt" fill="black" x="65.066667" y="324.707552">12.7 V SOURCE</text>
<text font-size="6.973848pt" stroke-width="0.2pt" fill="black" x="65.066667" y="334.006016">TO MULTIPLEX</text>
<line x1="129.066667" y1="290.055829" x2="105.066667" y2="290.055829" />
<text font-size="6.973848pt" stroke-width="0.2pt" fill="black" x="117.066667" y="287.389162">WHT</text>
<rect x="25.066667" y="258.055829" width="80" height="40" />
<text font-size="6.973848pt" stroke-width="0.2pt" fill="black" x="65.066667" y="272.05832">12 V SOURCE</text>
<text font-size="6.973848pt" stroke-width="0.2pt" fill="black" x="65.066667" y="281.356784">TO FM TUNER</text>
<text font-size="6.973848pt" stroke-width="0.2pt" fill="black" x="65.066667" y="290.655248">SOURCE SWITCH</text>
<line x1="129.066667" y1="218.055829" x2="105.066667" y2="218.055829" />
<text font-size="6.973848pt" stroke-width="0.2pt" fill="black" x="117.066667" y="215.389162">ORG</text>
<rect x="25.066667" y="206.055829" width="80" height="24" />
<text font-size="6.973848pt" stroke-width="0.2pt" fill="black" x="65.066667" y="216.707552">15 V SOURCE</text>
<text font-size="6.973848pt" stroke-width="0.2pt" fill="black" x="65.066667" y="226.006016">TO FM TUNER</text>
<line x1="129.066667" y1="194.055829" x2="105.066667" y2="194.055829" />
<text font-size="6.973848pt" stroke-width="0.2pt" fill="black" x="117.066667" y="191.389162">BLU</text>
<line x1="129.066667" y1="174.055829" x2="105.066667" y2="174.055829" />
<text font-size="6.973848pt" stroke-width="0.266667"
 fill="black"
 text-anchor="start"
 x="107.733333" y="164.707552">WHT-</text>
<text font-size="6.973848pt" stroke-width="0.266667"
 fill="black"
 text-anchor="start"
 x="107.733333" y="174.006016">RED</text>
<line x1="129.066667" y1="154.055829" x2="105.066667" y2="154.055829" />
<text font-size="6.973848pt" stroke-width="0.2pt" fill="black" x="117.066667" y="151.389162">RED</text>
<rect x="25.066667" y="150.055829" width="80" height="48" />
<text font-size="6.973848pt" stroke-width="0.2pt" fill="black" x="65.066667" y="163.409088">27 V SOURCE</text>
<text font-size="6.973848pt" stroke-width="0.2pt" fill="black" x="65.066667" y="172.707552">TO CONTROL</text>
<text font-size="6.973848pt" stroke-width="0.2pt" fill="black" x="65.066667" y="182.006016">PREAMP AND</text>
<text font-size="6.973848pt" stroke-width="0.2pt" fill="black" x="65.066667" y="191.30448">PWR AMPLIFIER</text>
<line x1="129.066667" y1="134.055829" x2="105.066667" y2="134.055829" />
<text font-size="6.973848pt" stroke-width="0.266667"
 fill="black"
 text-anchor="start"
 x="107.733333" y="116.05832">WHT-</text>
<text font-size="6.973848pt" stroke-width="0.266667"
 fill="black"
 text-anchor="start"
 x="107.733333" y="125.356784">GRY-</text>
<text font-size="6.973848pt" stroke-width="0.266667"
 fill="black"
 text-anchor="start"
 x="107.733333" y="134.655248">GRN</text>
<rect x="25.066667" y="102.055829" width="80" height="40" />
<text font-size="6.973848pt" stroke-width="0.2pt" fill="black" x="65.066667" y="116.05832">50 V SOURCE</text>
<text font-size="6.973848pt" stroke-width="0.2pt" fill="black" x="65.066667" y="125.356784">TO PHONO</text>
<text font-size="6.973848pt" stroke-width="0.2pt" fill="black" x="65.066667" y="134.655248">PREAMP</text>
</g>
</g></svg>
