<?xml version="1.0" encoding="UTF-8" standalone="no"?>
<!DOCTYPE svg PUBLIC "-//W3C//DTD SVG 1.1//EN"
"http://www.w3.org/Graphics/SVG/1.1/DTD/svg11.dtd">
<!-- Creator: dpic version 2022.12.01 option -v for SVG 1.1 -->
<!-- width="590" height="194" -->
<svg
 xmlns="http://www.w3.org/2000/svg" xmlns:xlink="http://www.w3.org/1999/xlink"
 xml:space="preserve"
 style="shape-rendering:geometricPrecision; text-rendering:geometricPrecision;
 image-rendering:optimizeQuality; fill-rule:evenodd; clip-rule:evenodd"
 width="589.333333px" height="193.326667px"
 viewBox="0 0 589.333333 193.326667"
 font-size="11pt" text-anchor="middle"
 stroke="black" stroke-miterlimit="10" stroke-width="1.066667" fill="none">
<g>
<g style="font-family:sans-serif"
>
<rect x="49.333333" y="51.533333" width="72" height="48" />
<line x1="49.333333" y1="63.533333" x2="37.333333" y2="63.533333" />
<circle fill="black"
 cx="37.333333" cy="63.533333" r="1.92" />
<line x1="49.333333" y1="87.533333" x2="37.333333" y2="87.533333" />
<circle fill="black"
 cx="37.333333" cy="87.533333" r="1.92" />
<line x1="121.333333" y1="63.533333" x2="133.333333" y2="63.533333" />
<circle fill="black"
 cx="133.333333" cy="63.533333" r="1.92" />
<line x1="121.333333" y1="87.533333" x2="133.333333" y2="87.533333" />
<circle fill="black"
 cx="133.333333" cy="87.533333" r="1.92" />
<text font-size="11pt" stroke-width="0.266667"
 fill="black"
 text-anchor="end"
 x="34.666667" y="60.866667">W1a</text>
<text font-size="11pt" stroke-width="0.266667"
 fill="black"
 text-anchor="end"
 x="34.666667" y="100.613333">W1b</text>
<text font-size="11pt" stroke-width="0.266667"
 fill="black"
 text-anchor="start"
 x="136" y="60.866667">E1a</text>
<text font-size="11pt" stroke-width="0.266667"
 fill="black"
 text-anchor="start"
 x="136" y="100.613333">E1b</text>
<rect fill="rgb(230,230,230)"
 x="241.333333" y="27.533333" width="168" height="96" />
<line x1="241.333333" y1="51.533333" x2="229.333333" y2="51.533333" />
<circle fill="black"
 cx="229.333333" cy="51.533333" r="1.92" />
<line x1="241.333333" y1="99.533333" x2="229.333333" y2="99.533333" />
<circle fill="black"
 cx="229.333333" cy="99.533333" r="1.92" />
<line x1="265.333333" y1="27.533333" x2="265.333333" y2="15.533333" />
<circle fill="black"
 cx="265.333333" cy="15.533333" r="1.92" />
<line x1="313.333333" y1="27.533333" x2="313.333333" y2="15.533333" />
<circle fill="black"
 cx="313.333333" cy="15.533333" r="1.92" />
<line x1="337.333333" y1="27.533333" x2="337.333333" y2="15.533333" />
<circle fill="black"
 cx="337.333333" cy="15.533333" r="1.92" />
<line x1="385.333333" y1="27.533333" x2="385.333333" y2="15.533333" />
<circle fill="black"
 cx="385.333333" cy="15.533333" r="1.92" />
<line x1="409.333333" y1="37.133333" x2="421.333333" y2="37.133333" />
<circle fill="black"
 cx="421.333333" cy="37.133333" r="1.92" />
<line x1="409.333333" y1="56.333333" x2="421.333333" y2="56.333333" />
<circle fill="black"
 cx="421.333333" cy="56.333333" r="1.92" />
<line x1="409.333333" y1="65.933333" x2="421.333333" y2="65.933333" />
<circle fill="black"
 cx="421.333333" cy="65.933333" r="1.92" />
<line x1="409.333333" y1="85.133333" x2="421.333333" y2="85.133333" />
<circle fill="black"
 cx="421.333333" cy="85.133333" r="1.92" />
<line x1="409.333333" y1="94.733333" x2="421.333333" y2="94.733333" />
<circle fill="black"
 cx="421.333333" cy="94.733333" r="1.92" />
<line x1="409.333333" y1="113.933333" x2="421.333333" y2="113.933333" />
<circle fill="black"
 cx="421.333333" cy="113.933333" r="1.92" />
<line x1="254.25641" y1="123.533333" x2="254.25641" y2="135.533333" />
<circle fill="black"
 cx="254.25641" cy="135.533333" r="1.92" />
<line x1="280.102564" y1="123.533333" x2="280.102564" y2="135.533333" />
<circle fill="black"
 cx="280.102564" cy="135.533333" r="1.92" />
<line x1="293.025641" y1="123.533333" x2="293.025641" y2="135.533333" />
<circle fill="black"
 cx="293.025641" cy="135.533333" r="1.92" />
<line x1="318.871795" y1="123.533333" x2="318.871795" y2="135.533333" />
<circle fill="black"
 cx="318.871795" cy="135.533333" r="1.92" />
<line x1="331.794872" y1="123.533333" x2="331.794872" y2="135.533333" />
<circle fill="black"
 cx="331.794872" cy="135.533333" r="1.92" />
<line x1="357.641026" y1="123.533333" x2="357.641026" y2="135.533333" />
<circle fill="black"
 cx="357.641026" cy="135.533333" r="1.92" />
<line x1="370.564103" y1="123.533333" x2="370.564103" y2="135.533333" />
<circle fill="black"
 cx="370.564103" cy="135.533333" r="1.92" />
<line x1="396.410256" y1="123.533333" x2="396.410256" y2="135.533333" />
<circle fill="black"
 cx="396.410256" cy="135.533333" r="1.92" />
<a xlink:href="Np.svg"  >
  <g stroke="rgb(0,0,255)">
<text font-size="11pt" stroke-width="0.266667"
 fill="black"
 x="325.333333" y="80.74">n-port</text>
</g></a>
<text font-size="11pt" stroke-width="0.266667"
 fill="black"
 text-anchor="end"
 x="226.666667" y="56.74">W1a</text>
<text font-size="11pt" stroke-width="0.266667"
 fill="black"
 text-anchor="end"
 x="226.666667" y="104.74">W1b</text>
<text font-size="11pt" stroke-width="0.266667"
 fill="black"
 text-anchor="start"
 x="424" y="42.34">E1a</text>
<text font-size="11pt" stroke-width="0.266667"
 fill="black"
 text-anchor="start"
 x="424" y="119.14">E3b</text>
<text font-size="11pt" stroke-width="0.266667"
 fill="black"
 x="265.333333" y="10.946667">N1a</text>
<text font-size="11pt" stroke-width="0.266667"
 fill="black"
 x="313.333333" y="10.946667">N1b </text>
<text font-size="11pt" stroke-width="0.266667"
 fill="black"
 x="337.333333" y="10.946667"> N2a</text>
<text font-size="11pt" stroke-width="0.266667"
 fill="black"
 x="385.333333" y="10.946667">N2b</text>
<text font-size="11pt" stroke-width="0.266667"
 fill="black"
 x="254.25641" y="150.533333">S1a</text>
<text font-size="11pt" stroke-width="0.266667"
 fill="black"
 x="396.410256" y="150.533333">S4b</text>
<text font-size="11pt" stroke-width="0.266667"
 fill="black"
 x="325.333333" y="150.34">...</text>
<text font-size="11pt" stroke-width="0.266667"
 fill="black"
 x="435.733333" y="75.94">...</text>
<rect x="505.333333" y="59.533333" width="48" height="32" />
<line x1="505.333333" y1="75.533333" x2="493.333333" y2="75.533333" />
<circle fill="black"
 cx="493.333333" cy="75.533333" r="1.92" />
<line x1="553.333333" y1="75.533333" x2="565.333333" y2="75.533333" />
<circle fill="black"
 cx="565.333333" cy="75.533333" r="1.92" />
<line x1="529.333333" y1="91.533333" x2="529.333333" y2="103.533333" />
<circle fill="black"
 cx="529.333333" cy="103.533333" r="1.92" />
<text font-size="11pt" stroke-width="0.266667"
 fill="black"
 text-anchor="end"
 x="490.666667" y="80.74">W1</text>
<text font-size="11pt" stroke-width="0.266667"
 fill="black"
 text-anchor="start"
 x="568" y="80.74">E1</text>
<text font-size="11pt" stroke-width="0.266667"
 fill="black"
 x="529.333333" y="118.533333">S1</text>
<text font-size="11pt" stroke-width="0.266667"
 fill="black"
 x="85.333333" y="133.54">nport</text>
<text font-size="11pt" stroke-width="0.266667"
 fill="black"
 text-anchor="start"
 x="230.08" y="171.46"
>nport(wid 1.5 ht 1.75 fill_(0.9),1,2,3,4)</text>
<text font-size="11pt" stroke-width="0.266667"
 fill="black"
 text-anchor="start"
 x="230.08" y="190.66">svgLink(Np.svg,"n-port" at Nport,B)</text>
<text font-size="11pt" stroke-width="0.266667"
 fill="black"
 x="529.333333" y="139.46">nterm</text>
</g>
</g></svg>
