<?xml version="1.0" encoding="UTF-8" standalone="no"?>
<!DOCTYPE svg PUBLIC "-//W3C//DTD SVG 1.1//EN"
"http://www.w3.org/Graphics/SVG/1.1/DTD/svg11.dtd">
<!-- Creator: dpic version 2022.12.01 option -v for SVG 1.1 -->
<!-- width="182" height="82" -->
<svg
 xmlns="http://www.w3.org/2000/svg" xmlns:xlink="http://www.w3.org/1999/xlink"
 xml:space="preserve"
 style="shape-rendering:geometricPrecision; text-rendering:geometricPrecision;
 image-rendering:optimizeQuality; fill-rule:evenodd; clip-rule:evenodd"
 width="180.8px" height="81.12px"
 viewBox="0 0 180.8 81.12"
 font-size="11pt" text-anchor="middle"
 stroke="black" stroke-miterlimit="10" stroke-width="1.066667" fill="none">
<g>
<a xlink:href="SourcesDPV.svg"  target="_blank">
  <g stroke="rgb(0,0,255)">
<line x1="39.466667" y1="76.533333" x2="39.466667" y2="52.533333" />
<circle cx="39.466667" cy="40.533333" r="12" />
<line x1="39.466667" y1="28.533333" x2="39.466667" y2="4.533333" />
</g></a>
<text font-size="11pt" stroke-width="0.266667"
 fill="black"
 text-anchor="end"
 x="36.8" y="64.88">-</text>
<text font-size="11pt" stroke-width="0.266667"
 fill="black"
 text-anchor="end"
 x="24.8" y="45.373333"
><tspan font-style="italic">v<tspan font-size="70%"
dy="0.66ex" dx="">s</tspan><tspan
font-size="70%" dy="-0.66ex"
dx="-0.5ex"> </tspan></tspan></text>
<text font-size="11pt" stroke-width="0.266667"
 fill="black"
 text-anchor="end"
 x="36.8" y="25.866667">+</text>
<a xlink:href="ResistorsDPV.svg"  target="_blank">
  <g stroke="rgb(0,0,255)">
<polyline points="39.466667,4.533333 63.466667,4.533333
65.466667,0.533333
69.466667,8.533333
73.466667,0.533333
77.466667,8.533333
81.466667,0.533333
85.466667,8.533333
87.466667,4.533333
111.466667,4.533333" />
</g></a>
<text font-size="11pt" stroke-width="0.266667"
 fill="black"
 x="75.466667" y="20.88"><tspan font-style="italic">R</tspan></text>
<circle fill="black"
 cx="111.466667" cy="4.533333" r="1.92" />
<line x1="111.466667" y1="4.533333" x2="111.466667" y2="38.133333" />
<line x1="103.466667" y1="38.133333" x2="119.466667" y2="38.133333" />
<line x1="103.466667" y1="42.933333" x2="119.466667" y2="42.933333" />
<line x1="111.466667" y1="42.933333" x2="111.466667" y2="76.533333" />
<text font-size="11pt" stroke-width="0.266667"
 fill="black"
 text-anchor="end"
 x="108.8" y="35.466667">+</text>
<text font-size="11pt" stroke-width="0.266667"
 fill="black"
 text-anchor="end"
 x="100.8" y="45.373333"><tspan font-style="italic">v</tspan></text>
<text font-size="11pt" stroke-width="0.266667"
 fill="black"
 text-anchor="end"
 x="108.8" y="55.28">-</text>
<text font-size="11pt" stroke-width="0.266667"
 fill="black"
 text-anchor="start"
 x="122.133333" y="45.373333"><tspan font-style="italic">C</tspan></text>
<circle fill="black"
 cx="111.466667" cy="76.533333" r="1.92" />
<line x1="111.466667" y1="4.533333" x2="159.466667" y2="4.533333" />
<line x1="159.466667" y1="4.533333" x2="159.466667" y2="28.533333" />
<line x1="159.466667" y1="28.533333" x2="158.933333" y2="28.533333" />
<path d="M 159.466667,28.533333
 A 3 3 0 1 1 159.466667,34.533333" />
<line x1="159.466667" y1="34.533333" x2="158.933333" y2="34.533333" />
<path d="M 159.466667,34.533333
 A 3 3 0 1 1 159.466667,40.533333" />
<line x1="159.466667" y1="40.533333" x2="158.933333" y2="40.533333" />
<path d="M 159.466667,40.533333
 A 3 3 0 0 1 159.466667,46.533333" />
<line x1="159.466667" y1="46.533333" x2="158.933333" y2="46.533333" />
<path d="M 159.466667,46.533333
 A 3 3 0 1 1 159.466667,52.533333" />
<line x1="159.466667" y1="52.533333" x2="158.933333" y2="52.533333" />
<line x1="159.466667" y1="52.533333" x2="159.466667" y2="76.533333" />
<text font-size="11pt" stroke-width="0.266667"
 fill="black"
 text-anchor="end"
 x="156.266667" y="45.373333"><tspan font-style="italic">L</tspan></text>
<polygon stroke-width="0" fill="black"
 points="161.866667,14.133333 159.466667,23.733333
157.066667,14.133333" />
<line x1="159.466667" y1="21.534344" x2="159.466667" y2="14.133333" />
<text font-size="11pt" stroke-width="0.2pt" fill="black" text-anchor="start"
 x="162.133333" y="22.673838"><tspan font-style="italic">i</tspan></text>
<line x1="159.466667" y1="76.533333" x2="39.466667" y2="76.533333" />
</g></svg>
